<svg width="264" height="75" viewBox="0 0 264 75" fill="none" xmlns="http://www.w3.org/2000/svg">
<path d="M19.9997 17.7002C17.2404 17.7001 14.543 18.5386 12.2487 20.1099C9.95431 21.6811 8.16605 23.9144 7.11001 26.5274C6.05398 29.1404 5.77761 32.0157 6.31585 34.7896C6.85409 37.5636 8.18277 40.1117 10.1339 42.1116C12.085 44.1116 14.5708 45.4736 17.2771 46.0254C19.9834 46.5773 22.7886 46.2941 25.3379 45.2118C27.8872 44.1295 30.0661 42.2966 31.5991 39.945C33.1321 37.5933 33.9504 34.8285 33.9504 32.0002C33.9462 28.209 32.4751 24.5743 29.8598 21.8935C27.2444 19.2126 23.6985 17.7046 19.9997 17.7002ZM28.3247 31.9362C28.4066 31.9418 28.4867 31.9639 28.5603 32.0012C28.6339 32.0385 28.6995 32.0904 28.7536 32.1537C28.8076 32.2171 28.8489 32.2907 28.8752 32.3705C28.9015 32.4502 28.9121 32.5345 28.9066 32.6184C28.7515 34.931 27.7468 37.0973 26.0951 38.6807C24.4434 40.2641 22.2675 41.1468 20.006 41.1509C19.8043 41.1509 19.6014 41.1437 19.3972 41.1291C19.3141 41.1252 19.2327 41.1042 19.1576 41.0676C19.0825 41.0309 19.0153 40.9792 18.9599 40.9156C18.9046 40.852 18.8622 40.7777 18.8352 40.697C18.8082 40.6164 18.7972 40.531 18.8028 40.446C18.8084 40.3609 18.8305 40.2778 18.8679 40.2016C18.9052 40.1255 18.957 40.0577 19.0202 40.0023C19.0834 39.9469 19.1568 39.905 19.236 39.879C19.3153 39.853 19.3988 39.8435 19.4816 39.8511C21.5127 39.9906 23.5147 39.298 25.048 37.9256C26.5813 36.5531 27.5204 34.613 27.6591 32.5313C27.6705 32.362 27.747 32.2042 27.8718 32.0926C27.9966 31.981 28.1595 31.9247 28.3247 31.9362ZM9.21098 30.7055C9.21098 30.8754 9.14513 31.0384 9.02792 31.1585C8.91071 31.2787 8.75174 31.3461 8.58598 31.3461C8.42022 31.3461 8.26125 31.2787 8.14404 31.1585C8.02683 31.0384 7.96098 30.8754 7.96098 30.7055C7.96098 24.4754 13.3616 19.4075 19.9997 19.4075C20.1655 19.4075 20.3245 19.475 20.4417 19.5951C20.5589 19.7152 20.6247 19.8782 20.6247 20.0481C20.6247 20.218 20.5589 20.3809 20.4417 20.5011C20.3245 20.6212 20.1655 20.6887 19.9997 20.6887C14.0504 20.6887 9.21098 25.1821 9.21098 30.7055ZM11.6979 32.6409C11.5321 32.6409 11.3731 32.5734 11.2559 32.4532C11.1387 32.3331 11.0729 32.1701 11.0729 32.0002C11.0757 29.5744 12.0171 27.2487 13.6906 25.5333C15.3641 23.818 17.633 22.8531 19.9997 22.8502C20.1655 22.8502 20.3245 22.9177 20.4417 23.0378C20.5589 23.158 20.6247 23.3209 20.6247 23.4908C20.6247 23.6607 20.5589 23.8237 20.4417 23.9438C20.3245 24.0639 20.1655 24.1314 19.9997 24.1314C17.9646 24.1343 16.0136 24.9643 14.5745 26.4393C13.1354 27.9144 12.3257 29.9142 12.3229 32.0002C12.3229 32.1701 12.257 32.3331 12.1398 32.4532C12.0226 32.5734 11.8636 32.6409 11.6979 32.6409ZM14.3472 32.0002C14.3472 30.8543 14.6787 29.7341 15.2998 28.7814C15.921 27.8286 16.8038 27.086 17.8366 26.6474C18.8695 26.2089 20.006 26.0942 21.1025 26.3177C22.199 26.5413 23.2061 27.0931 23.9967 27.9034C24.7872 28.7137 25.3255 29.746 25.5436 30.8699C25.7617 31.9938 25.6498 33.1587 25.222 34.2174C24.7941 35.2761 24.0696 36.181 23.1401 36.8176C22.2105 37.4542 21.1177 37.794 19.9997 37.794C18.5011 37.7923 17.0643 37.1814 16.0046 36.0952C14.9449 35.009 14.3489 33.5363 14.3472 32.0002ZM31.3472 33.4423C31.4291 33.4479 31.5092 33.47 31.5828 33.5073C31.6563 33.5447 31.722 33.5965 31.7761 33.6598C31.8301 33.7232 31.8714 33.7968 31.8977 33.8766C31.924 33.9563 31.9346 34.0406 31.9291 34.1245C31.5372 40.058 26.3041 44.5956 20.0691 44.5956C19.7729 44.5956 19.4745 44.5851 19.1741 44.5642C19.0083 44.5527 18.8538 44.4742 18.7445 44.3459C18.6352 44.2177 18.5801 44.0502 18.5913 43.8803C18.6025 43.7104 18.6791 43.552 18.8042 43.44C18.9293 43.3279 19.0927 43.2714 19.2585 43.2829C25.196 43.6955 30.321 39.5461 30.6816 34.0355C30.6935 33.8671 30.7697 33.7103 30.8938 33.5992C31.0179 33.4881 31.1797 33.4317 31.3441 33.4423H31.3472Z" fill="white"/>
<path d="M20 14.0625C16.5388 14.0625 13.1554 15.1145 10.2775 17.0855C7.39967 19.0565 5.15665 21.858 3.83212 25.1356C2.50758 28.4133 2.16102 32.0199 2.83627 35.4994C3.51151 38.979 5.17822 42.1751 7.62564 44.6837C10.0731 47.1923 13.1913 48.9007 16.5859 49.5928C19.9806 50.285 23.4993 49.9297 26.697 48.5721C29.8947 47.2144 32.6278 44.9153 34.5507 41.9655C36.4737 39.0157 37.5 35.5477 37.5 32C37.4947 27.2443 35.6493 22.685 32.3685 19.3223C29.0878 15.9595 24.6397 14.0679 20 14.0625ZM20 47.5813C16.9935 47.5814 14.0544 46.6677 11.5545 44.9557C9.05456 43.2437 7.10608 40.8102 5.95544 37.9631C4.8048 35.116 4.50367 31.9832 5.09014 28.9606C5.67662 25.9381 7.12435 23.1617 9.25025 20.9826C11.3762 18.8035 14.0848 17.3194 17.0335 16.7182C19.9823 16.1169 23.0388 16.4254 25.8165 17.6047C28.5942 18.784 30.9684 20.7811 32.6387 23.3434C34.3091 25.9058 35.2006 28.9183 35.2006 32C35.1962 36.1309 33.5933 40.0913 30.7436 43.0123C27.8939 45.9334 24.0302 47.5765 20 47.5813Z" fill="white"/>
<path d="M20.0002 36.5124C22.4316 36.5124 24.4027 34.4921 24.4027 31.9999C24.4027 29.5076 22.4316 27.4873 20.0002 27.4873C17.5687 27.4873 15.5977 29.5076 15.5977 31.9999C15.5977 34.4921 17.5687 36.5124 20.0002 36.5124Z" fill="white"/>
<g filter="url(#filter0_dddd_17342_1242)">
<mask id="path-4-outside-1_17342_1242" maskUnits="userSpaceOnUse" x="49" y="21.5" width="186" height="25" fill="black">
<rect fill="white" x="49" y="21.5" width="186" height="25"/>
<path d="M59.696 23.708C60.864 23.708 61.736 23.86 62.312 24.164C63.096 24.58 63.488 25.324 63.488 26.396C63.488 27.404 62.952 28.348 61.88 29.228C61.032 29.932 59.872 30.572 58.4 31.148C57.456 31.516 56.352 31.876 55.088 32.228V36.356C55.088 37.284 55.152 37.924 55.28 38.276C55.504 38.884 55.96 39.22 56.648 39.284V39.5H50.888V39.284C51.56 39.188 52.008 38.868 52.232 38.324C52.376 37.972 52.448 37.372 52.448 36.524V26.852C52.448 25.94 52.384 25.308 52.256 24.956C52.032 24.348 51.576 24.004 50.888 23.924V23.708H59.696ZM55.088 31.076C56.592 30.596 57.768 30.108 58.616 29.612C60.072 28.764 60.8 27.82 60.8 26.78C60.8 26.028 60.504 25.516 59.912 25.244C59.336 24.956 58.48 24.812 57.344 24.812C56.912 24.812 56.488 24.86 56.072 24.956C55.656 25.052 55.384 25.228 55.256 25.484C55.192 25.628 55.144 25.852 55.112 26.156C55.096 26.444 55.088 26.764 55.088 27.116V31.076ZM66.9577 30.932C66.9577 29.86 66.8457 29.148 66.6217 28.796C66.3977 28.444 66.0297 28.244 65.5177 28.196V27.98L68.8297 27.668C69.1977 28.452 69.3817 29.332 69.3817 30.308C69.7177 29.524 70.2777 28.852 71.0617 28.292C71.8457 27.716 72.6457 27.428 73.4617 27.428L74.2777 27.572L73.7497 29.972C73.5257 29.812 73.2857 29.692 73.0297 29.612C72.7897 29.516 72.5337 29.468 72.2617 29.468C71.1897 29.468 70.4217 29.956 69.9577 30.932C69.5897 31.7 69.4057 32.772 69.4057 34.148V36.068C69.4057 37.236 69.4617 37.988 69.5737 38.324C69.7497 38.852 70.1737 39.172 70.8457 39.284V39.5H65.5177V39.284C66.0137 39.236 66.3737 39.036 66.5977 38.684C66.8377 38.316 66.9577 37.604 66.9577 36.548V30.932ZM76.1971 33.668C76.1971 31.78 76.8291 30.268 78.0931 29.132C79.3571 27.996 80.9491 27.428 82.8691 27.428C84.7731 27.428 86.3251 27.964 87.5251 29.036C88.7251 30.092 89.3251 31.556 89.3251 33.428C89.3251 35.348 88.6931 36.884 87.4291 38.036C86.1811 39.172 84.5811 39.74 82.6291 39.74C80.7571 39.74 79.2291 39.204 78.0451 38.132C76.8131 37.012 76.1971 35.524 76.1971 33.668ZM78.9331 33.188C78.9331 34.612 79.2211 35.812 79.7971 36.788C80.5011 37.988 81.5171 38.588 82.8451 38.588C83.9811 38.588 84.9011 38.092 85.6051 37.1C86.2611 36.188 86.5891 35.076 86.5891 33.764C86.5891 32.388 86.3011 31.228 85.7251 30.284C85.0371 29.148 84.0371 28.58 82.7251 28.58C81.4611 28.58 80.4931 29.044 79.8211 29.972C79.2291 30.804 78.9331 31.876 78.9331 33.188ZM104.328 27.668V27.884C103.864 27.884 103.504 28.012 103.248 28.268C103.008 28.508 102.888 29.036 102.888 29.852V30.62V36.932C102.888 37.444 102.92 37.796 102.984 37.988C103.048 38.164 103.248 38.42 103.584 38.756C103.936 39.092 104.192 39.396 104.352 39.668C104.528 39.956 104.616 40.324 104.616 40.772C104.616 41.988 103.952 42.972 102.624 43.724C101.392 44.412 99.9039 44.756 98.1599 44.756C96.9439 44.756 95.8239 44.588 94.7999 44.252C93.6319 43.868 92.6639 43.284 91.8959 42.5L94.5839 39.788L94.7039 39.932C94.5919 40.108 94.5039 40.276 94.4399 40.436C94.3919 40.596 94.3679 40.78 94.3679 40.988C94.3679 41.788 94.7199 42.436 95.4239 42.932C96.1279 43.428 97.0479 43.676 98.1839 43.676C99.3199 43.676 100.248 43.436 100.968 42.956C101.704 42.492 102.072 41.892 102.072 41.156C102.072 40.452 101.808 39.98 101.28 39.74C100.928 39.58 100.352 39.5 99.5519 39.5C98.1119 39.5 97.0399 39.404 96.3359 39.212C95.6319 39.02 94.9999 38.724 94.4399 38.324C93.6399 37.764 93.0239 37.028 92.5919 36.116C92.1599 35.204 91.9439 34.228 91.9439 33.188C91.9439 31.38 92.4479 30.012 93.4559 29.084C94.4799 28.14 95.8959 27.668 97.7039 27.668H104.328ZM100.44 30.572V30.14C100.44 29.852 100.416 29.628 100.368 29.468C100.336 29.308 100.248 29.156 100.104 29.012C99.8959 28.852 99.6239 28.748 99.2879 28.7C98.9679 28.652 98.7119 28.628 98.5199 28.628C97.2399 28.628 96.2399 29.084 95.5199 29.996C94.8639 30.828 94.5359 31.908 94.5359 33.236C94.5359 34.804 95.0479 36.076 96.0719 37.052C96.9839 37.916 98.0639 38.348 99.3119 38.348L100.44 38.276V30.572ZM115.753 23.708C116.921 23.708 117.793 23.86 118.369 24.164C119.153 24.58 119.545 25.324 119.545 26.396C119.545 27.404 119.009 28.348 117.937 29.228C117.089 29.932 115.929 30.572 114.457 31.148C113.513 31.516 112.409 31.876 111.145 32.228V36.356C111.145 37.284 111.209 37.924 111.337 38.276C111.561 38.884 112.017 39.22 112.705 39.284V39.5H106.945V39.284C107.617 39.188 108.065 38.868 108.289 38.324C108.433 37.972 108.505 37.372 108.505 36.524V26.852C108.505 25.94 108.441 25.308 108.313 24.956C108.089 24.348 107.633 24.004 106.945 23.924V23.708H115.753ZM111.145 31.076C112.649 30.596 113.825 30.108 114.673 29.612C116.129 28.764 116.857 27.82 116.857 26.78C116.857 26.028 116.561 25.516 115.969 25.244C115.393 24.956 114.537 24.812 113.401 24.812C112.969 24.812 112.545 24.86 112.129 24.956C111.713 25.052 111.441 25.228 111.313 25.484C111.249 25.628 111.201 25.852 111.169 26.156C111.153 26.444 111.145 26.764 111.145 27.116V31.076ZM131.199 31.508L131.031 31.532C130.871 30.636 130.375 29.924 129.543 29.396C128.727 28.852 127.839 28.58 126.879 28.58C126.079 28.58 125.471 28.74 125.055 29.06C124.719 29.316 124.551 29.66 124.551 30.092C124.551 30.748 125.207 31.284 126.519 31.7C128.855 32.452 130.071 32.852 130.167 32.9C131.495 33.556 132.159 34.476 132.159 35.66C132.159 36.94 131.599 37.964 130.479 38.732C129.487 39.404 128.319 39.74 126.975 39.74C126.255 39.74 125.511 39.66 124.743 39.5C123.975 39.356 123.215 39.196 122.463 39.02C122.335 39.02 122.223 39.052 122.127 39.116C122.047 39.164 121.959 39.244 121.863 39.356L121.671 34.652L121.863 34.604C122.007 35.804 122.519 36.772 123.399 37.508C124.295 38.228 125.359 38.588 126.591 38.588C127.375 38.588 128.063 38.412 128.655 38.06C129.359 37.644 129.711 37.076 129.711 36.356C129.711 35.636 129.055 35.06 127.743 34.628C125.327 33.828 124.111 33.42 124.095 33.404C122.767 32.748 122.103 31.812 122.103 30.596C122.103 29.524 122.607 28.7 123.615 28.124C124.431 27.66 125.423 27.428 126.591 27.428C127.199 27.428 127.831 27.492 128.487 27.62C129.143 27.732 129.799 27.852 130.455 27.98C130.663 27.98 130.855 27.916 131.031 27.788L131.199 31.508ZM143.343 30.5C143.471 30.164 143.599 29.82 143.727 29.468C143.855 29.1 143.919 28.82 143.919 28.628C143.919 28.196 143.639 27.948 143.079 27.884V27.668H146.751V27.884C146.191 27.948 145.743 28.316 145.407 28.988C145.295 29.228 145.143 29.58 144.951 30.044L140.871 40.724C140.375 42.02 139.887 42.932 139.407 43.46C138.703 44.244 137.767 44.636 136.599 44.636C135.735 44.636 134.951 44.348 134.247 43.772L135.735 40.532L135.927 40.652C135.863 40.844 135.831 41.06 135.831 41.3C135.831 41.748 135.951 42.132 136.191 42.452C136.447 42.788 136.791 42.956 137.223 42.956C137.927 42.956 138.495 42.62 138.927 41.948C139.295 41.372 139.479 40.708 139.479 39.956C139.479 39.444 139.367 38.828 139.143 38.108C139.015 37.676 138.791 37.076 138.471 36.308L135.903 29.9C135.631 29.212 135.431 28.772 135.303 28.58C134.999 28.116 134.647 27.884 134.247 27.884V27.668H139.071V27.884C138.783 27.916 138.575 27.996 138.447 28.124C138.335 28.236 138.279 28.404 138.279 28.628C138.279 28.804 138.295 28.956 138.327 29.084C138.471 29.452 138.567 29.716 138.615 29.876L141.087 36.5L143.343 30.5ZM159.207 39.668C159.015 39.588 158.847 39.548 158.703 39.548L158.271 39.572L157.575 39.644L155.991 39.74C153.991 39.74 152.311 39.164 150.951 38.012C149.511 36.796 148.791 35.188 148.791 33.188C148.791 31.524 149.311 30.148 150.351 29.06C151.391 27.972 152.743 27.428 154.407 27.428L156.111 27.548L157.647 27.692C157.855 27.692 158.031 27.676 158.175 27.644C158.319 27.612 158.479 27.54 158.655 27.428L159.351 31.124L159.207 31.196C158.791 30.38 158.247 29.74 157.575 29.276C156.919 28.812 156.151 28.58 155.271 28.58C154.055 28.58 153.087 29.076 152.367 30.068C151.711 30.964 151.383 32.06 151.383 33.356C151.383 34.028 151.479 34.652 151.671 35.228C151.879 35.804 152.199 36.348 152.631 36.86C153.063 37.372 153.583 37.788 154.191 38.108C154.815 38.428 155.447 38.588 156.087 38.588C156.935 38.588 157.743 38.372 158.511 37.94C159.279 37.492 159.863 36.884 160.263 36.116L160.431 36.212L159.207 39.668ZM166.888 23.084V30.14C167.736 29.308 168.512 28.684 169.216 28.268C170.16 27.708 171.104 27.428 172.048 27.428C173.04 27.428 173.752 27.74 174.184 28.364C174.616 28.988 174.832 29.932 174.832 31.196V36.548C174.832 37.444 174.896 38.068 175.024 38.42C175.232 39.012 175.664 39.308 176.32 39.308V39.5H170.992V39.308C171.6 39.228 172 38.9 172.192 38.324C172.32 37.94 172.384 37.34 172.384 36.524V32.252C172.384 31.276 172.32 30.604 172.192 30.236C171.936 29.516 171.408 29.156 170.608 29.156C170.112 29.156 169.592 29.316 169.048 29.636C168.504 29.94 168.056 30.316 167.704 30.764C167.352 31.212 167.128 31.684 167.032 32.18C166.936 32.66 166.888 33.276 166.888 34.028V36.524C166.888 37.612 167 38.332 167.224 38.684C167.448 39.036 167.808 39.244 168.304 39.308V39.5H163V39.284C163.624 39.204 164.04 38.876 164.248 38.3C164.376 37.948 164.44 37.356 164.44 36.524V26.66C164.44 25.508 164.328 24.764 164.104 24.428C163.88 24.092 163.512 23.924 163 23.924V23.708L166.888 23.084ZM186.33 26.852C186.33 25.86 186.266 25.188 186.138 24.836C185.914 24.228 185.458 23.924 184.77 23.924V23.708H190.53V23.924C190.018 24.02 189.626 24.244 189.354 24.596C189.098 24.948 188.97 25.644 188.97 26.684V34.484C188.97 35.444 188.898 36.156 188.754 36.62C188.546 37.292 188.13 37.884 187.506 38.396C186.962 38.844 186.33 39.196 185.61 39.452C184.89 39.692 184.154 39.812 183.402 39.812C182.378 39.812 181.394 39.588 180.45 39.14C179.506 38.676 178.682 38.044 177.978 37.244L180.402 33.26L180.618 33.356C180.474 33.9 180.394 34.22 180.378 34.316C180.314 34.636 180.282 34.972 180.282 35.324C180.282 36.22 180.578 36.988 181.17 37.628C181.778 38.252 182.53 38.564 183.426 38.564C184.37 38.564 185.09 38.26 185.586 37.652C186.082 37.044 186.33 36.196 186.33 35.108V26.852ZM202.663 39.5C202.423 39.18 202.223 38.836 202.063 38.468C201.919 38.084 201.847 37.708 201.847 37.34C201.415 38.124 200.735 38.732 199.807 39.164C198.975 39.548 198.063 39.74 197.071 39.74C195.935 39.74 195.015 39.492 194.311 38.996C193.623 38.5 193.279 37.812 193.279 36.932C193.279 35.316 194.327 34.044 196.423 33.116C197.175 32.78 198.919 32.284 201.655 31.628V31.172C201.655 30.276 201.479 29.652 201.127 29.3C200.775 28.948 200.143 28.772 199.231 28.772C198.063 28.772 197.039 29.052 196.159 29.612C195.279 30.156 194.599 30.964 194.119 32.036L194.503 28.1C194.759 28.308 195.007 28.412 195.247 28.412C195.423 28.412 195.687 28.348 196.039 28.22C196.903 27.916 197.607 27.708 198.151 27.596C198.711 27.484 199.391 27.428 200.191 27.428C201.711 27.428 202.767 27.724 203.359 28.316C203.951 28.908 204.247 29.956 204.247 31.46V35.972C204.247 36.948 204.319 37.636 204.463 38.036C204.703 38.724 205.199 39.14 205.951 39.284V39.5H202.663ZM201.655 32.612C200.247 32.916 199.071 33.324 198.127 33.836C196.719 34.604 196.015 35.532 196.015 36.62C196.015 37.164 196.199 37.596 196.567 37.916C196.935 38.236 197.399 38.396 197.959 38.396C199.351 38.396 200.351 37.828 200.959 36.692C201.423 35.828 201.655 34.668 201.655 33.212V32.612ZM211.557 38.276L213.813 38.42C214.981 38.42 215.965 38.228 216.765 37.844C217.725 37.38 218.389 36.652 218.757 35.66L218.949 35.708L217.509 39.74C217.349 39.644 217.133 39.58 216.861 39.548C216.589 39.516 216.317 39.5 216.045 39.5H215.589H207.909L215.277 28.796L213.885 28.748C212.765 28.748 211.845 28.884 211.125 29.156C210.181 29.508 209.533 30.124 209.181 31.004L208.989 30.956L209.781 27.308C209.925 27.484 210.085 27.588 210.261 27.62C210.437 27.652 210.725 27.668 211.125 27.668H218.925L211.557 38.276ZM224.997 38.276L227.253 38.42C228.421 38.42 229.405 38.228 230.205 37.844C231.165 37.38 231.829 36.652 232.197 35.66L232.389 35.708L230.949 39.74C230.789 39.644 230.573 39.58 230.301 39.548C230.029 39.516 229.757 39.5 229.485 39.5H229.029H221.349L228.717 28.796L227.325 28.748C226.205 28.748 225.285 28.884 224.565 29.156C223.621 29.508 222.973 30.124 222.621 31.004L222.429 30.956L223.221 27.308C223.365 27.484 223.525 27.588 223.701 27.62C223.877 27.652 224.165 27.668 224.565 27.668H232.365L224.997 38.276Z"/>
</mask>
<path d="M59.696 23.708C60.864 23.708 61.736 23.86 62.312 24.164C63.096 24.58 63.488 25.324 63.488 26.396C63.488 27.404 62.952 28.348 61.88 29.228C61.032 29.932 59.872 30.572 58.4 31.148C57.456 31.516 56.352 31.876 55.088 32.228V36.356C55.088 37.284 55.152 37.924 55.28 38.276C55.504 38.884 55.96 39.22 56.648 39.284V39.5H50.888V39.284C51.56 39.188 52.008 38.868 52.232 38.324C52.376 37.972 52.448 37.372 52.448 36.524V26.852C52.448 25.94 52.384 25.308 52.256 24.956C52.032 24.348 51.576 24.004 50.888 23.924V23.708H59.696ZM55.088 31.076C56.592 30.596 57.768 30.108 58.616 29.612C60.072 28.764 60.8 27.82 60.8 26.78C60.8 26.028 60.504 25.516 59.912 25.244C59.336 24.956 58.48 24.812 57.344 24.812C56.912 24.812 56.488 24.86 56.072 24.956C55.656 25.052 55.384 25.228 55.256 25.484C55.192 25.628 55.144 25.852 55.112 26.156C55.096 26.444 55.088 26.764 55.088 27.116V31.076ZM66.9577 30.932C66.9577 29.86 66.8457 29.148 66.6217 28.796C66.3977 28.444 66.0297 28.244 65.5177 28.196V27.98L68.8297 27.668C69.1977 28.452 69.3817 29.332 69.3817 30.308C69.7177 29.524 70.2777 28.852 71.0617 28.292C71.8457 27.716 72.6457 27.428 73.4617 27.428L74.2777 27.572L73.7497 29.972C73.5257 29.812 73.2857 29.692 73.0297 29.612C72.7897 29.516 72.5337 29.468 72.2617 29.468C71.1897 29.468 70.4217 29.956 69.9577 30.932C69.5897 31.7 69.4057 32.772 69.4057 34.148V36.068C69.4057 37.236 69.4617 37.988 69.5737 38.324C69.7497 38.852 70.1737 39.172 70.8457 39.284V39.5H65.5177V39.284C66.0137 39.236 66.3737 39.036 66.5977 38.684C66.8377 38.316 66.9577 37.604 66.9577 36.548V30.932ZM76.1971 33.668C76.1971 31.78 76.8291 30.268 78.0931 29.132C79.3571 27.996 80.9491 27.428 82.8691 27.428C84.7731 27.428 86.3251 27.964 87.5251 29.036C88.7251 30.092 89.3251 31.556 89.3251 33.428C89.3251 35.348 88.6931 36.884 87.4291 38.036C86.1811 39.172 84.5811 39.74 82.6291 39.74C80.7571 39.74 79.2291 39.204 78.0451 38.132C76.8131 37.012 76.1971 35.524 76.1971 33.668ZM78.9331 33.188C78.9331 34.612 79.2211 35.812 79.7971 36.788C80.5011 37.988 81.5171 38.588 82.8451 38.588C83.9811 38.588 84.9011 38.092 85.6051 37.1C86.2611 36.188 86.5891 35.076 86.5891 33.764C86.5891 32.388 86.3011 31.228 85.7251 30.284C85.0371 29.148 84.0371 28.58 82.7251 28.58C81.4611 28.58 80.4931 29.044 79.8211 29.972C79.2291 30.804 78.9331 31.876 78.9331 33.188ZM104.328 27.668V27.884C103.864 27.884 103.504 28.012 103.248 28.268C103.008 28.508 102.888 29.036 102.888 29.852V30.62V36.932C102.888 37.444 102.92 37.796 102.984 37.988C103.048 38.164 103.248 38.42 103.584 38.756C103.936 39.092 104.192 39.396 104.352 39.668C104.528 39.956 104.616 40.324 104.616 40.772C104.616 41.988 103.952 42.972 102.624 43.724C101.392 44.412 99.9039 44.756 98.1599 44.756C96.9439 44.756 95.8239 44.588 94.7999 44.252C93.6319 43.868 92.6639 43.284 91.8959 42.5L94.5839 39.788L94.7039 39.932C94.5919 40.108 94.5039 40.276 94.4399 40.436C94.3919 40.596 94.3679 40.78 94.3679 40.988C94.3679 41.788 94.7199 42.436 95.4239 42.932C96.1279 43.428 97.0479 43.676 98.1839 43.676C99.3199 43.676 100.248 43.436 100.968 42.956C101.704 42.492 102.072 41.892 102.072 41.156C102.072 40.452 101.808 39.98 101.28 39.74C100.928 39.58 100.352 39.5 99.5519 39.5C98.1119 39.5 97.0399 39.404 96.3359 39.212C95.6319 39.02 94.9999 38.724 94.4399 38.324C93.6399 37.764 93.0239 37.028 92.5919 36.116C92.1599 35.204 91.9439 34.228 91.9439 33.188C91.9439 31.38 92.4479 30.012 93.4559 29.084C94.4799 28.14 95.8959 27.668 97.7039 27.668H104.328ZM100.44 30.572V30.14C100.44 29.852 100.416 29.628 100.368 29.468C100.336 29.308 100.248 29.156 100.104 29.012C99.8959 28.852 99.6239 28.748 99.2879 28.7C98.9679 28.652 98.7119 28.628 98.5199 28.628C97.2399 28.628 96.2399 29.084 95.5199 29.996C94.8639 30.828 94.5359 31.908 94.5359 33.236C94.5359 34.804 95.0479 36.076 96.0719 37.052C96.9839 37.916 98.0639 38.348 99.3119 38.348L100.44 38.276V30.572ZM115.753 23.708C116.921 23.708 117.793 23.86 118.369 24.164C119.153 24.58 119.545 25.324 119.545 26.396C119.545 27.404 119.009 28.348 117.937 29.228C117.089 29.932 115.929 30.572 114.457 31.148C113.513 31.516 112.409 31.876 111.145 32.228V36.356C111.145 37.284 111.209 37.924 111.337 38.276C111.561 38.884 112.017 39.22 112.705 39.284V39.5H106.945V39.284C107.617 39.188 108.065 38.868 108.289 38.324C108.433 37.972 108.505 37.372 108.505 36.524V26.852C108.505 25.94 108.441 25.308 108.313 24.956C108.089 24.348 107.633 24.004 106.945 23.924V23.708H115.753ZM111.145 31.076C112.649 30.596 113.825 30.108 114.673 29.612C116.129 28.764 116.857 27.82 116.857 26.78C116.857 26.028 116.561 25.516 115.969 25.244C115.393 24.956 114.537 24.812 113.401 24.812C112.969 24.812 112.545 24.86 112.129 24.956C111.713 25.052 111.441 25.228 111.313 25.484C111.249 25.628 111.201 25.852 111.169 26.156C111.153 26.444 111.145 26.764 111.145 27.116V31.076ZM131.199 31.508L131.031 31.532C130.871 30.636 130.375 29.924 129.543 29.396C128.727 28.852 127.839 28.58 126.879 28.58C126.079 28.58 125.471 28.74 125.055 29.06C124.719 29.316 124.551 29.66 124.551 30.092C124.551 30.748 125.207 31.284 126.519 31.7C128.855 32.452 130.071 32.852 130.167 32.9C131.495 33.556 132.159 34.476 132.159 35.66C132.159 36.94 131.599 37.964 130.479 38.732C129.487 39.404 128.319 39.74 126.975 39.74C126.255 39.74 125.511 39.66 124.743 39.5C123.975 39.356 123.215 39.196 122.463 39.02C122.335 39.02 122.223 39.052 122.127 39.116C122.047 39.164 121.959 39.244 121.863 39.356L121.671 34.652L121.863 34.604C122.007 35.804 122.519 36.772 123.399 37.508C124.295 38.228 125.359 38.588 126.591 38.588C127.375 38.588 128.063 38.412 128.655 38.06C129.359 37.644 129.711 37.076 129.711 36.356C129.711 35.636 129.055 35.06 127.743 34.628C125.327 33.828 124.111 33.42 124.095 33.404C122.767 32.748 122.103 31.812 122.103 30.596C122.103 29.524 122.607 28.7 123.615 28.124C124.431 27.66 125.423 27.428 126.591 27.428C127.199 27.428 127.831 27.492 128.487 27.62C129.143 27.732 129.799 27.852 130.455 27.98C130.663 27.98 130.855 27.916 131.031 27.788L131.199 31.508ZM143.343 30.5C143.471 30.164 143.599 29.82 143.727 29.468C143.855 29.1 143.919 28.82 143.919 28.628C143.919 28.196 143.639 27.948 143.079 27.884V27.668H146.751V27.884C146.191 27.948 145.743 28.316 145.407 28.988C145.295 29.228 145.143 29.58 144.951 30.044L140.871 40.724C140.375 42.02 139.887 42.932 139.407 43.46C138.703 44.244 137.767 44.636 136.599 44.636C135.735 44.636 134.951 44.348 134.247 43.772L135.735 40.532L135.927 40.652C135.863 40.844 135.831 41.06 135.831 41.3C135.831 41.748 135.951 42.132 136.191 42.452C136.447 42.788 136.791 42.956 137.223 42.956C137.927 42.956 138.495 42.62 138.927 41.948C139.295 41.372 139.479 40.708 139.479 39.956C139.479 39.444 139.367 38.828 139.143 38.108C139.015 37.676 138.791 37.076 138.471 36.308L135.903 29.9C135.631 29.212 135.431 28.772 135.303 28.58C134.999 28.116 134.647 27.884 134.247 27.884V27.668H139.071V27.884C138.783 27.916 138.575 27.996 138.447 28.124C138.335 28.236 138.279 28.404 138.279 28.628C138.279 28.804 138.295 28.956 138.327 29.084C138.471 29.452 138.567 29.716 138.615 29.876L141.087 36.5L143.343 30.5ZM159.207 39.668C159.015 39.588 158.847 39.548 158.703 39.548L158.271 39.572L157.575 39.644L155.991 39.74C153.991 39.74 152.311 39.164 150.951 38.012C149.511 36.796 148.791 35.188 148.791 33.188C148.791 31.524 149.311 30.148 150.351 29.06C151.391 27.972 152.743 27.428 154.407 27.428L156.111 27.548L157.647 27.692C157.855 27.692 158.031 27.676 158.175 27.644C158.319 27.612 158.479 27.54 158.655 27.428L159.351 31.124L159.207 31.196C158.791 30.38 158.247 29.74 157.575 29.276C156.919 28.812 156.151 28.58 155.271 28.58C154.055 28.58 153.087 29.076 152.367 30.068C151.711 30.964 151.383 32.06 151.383 33.356C151.383 34.028 151.479 34.652 151.671 35.228C151.879 35.804 152.199 36.348 152.631 36.86C153.063 37.372 153.583 37.788 154.191 38.108C154.815 38.428 155.447 38.588 156.087 38.588C156.935 38.588 157.743 38.372 158.511 37.94C159.279 37.492 159.863 36.884 160.263 36.116L160.431 36.212L159.207 39.668ZM166.888 23.084V30.14C167.736 29.308 168.512 28.684 169.216 28.268C170.16 27.708 171.104 27.428 172.048 27.428C173.04 27.428 173.752 27.74 174.184 28.364C174.616 28.988 174.832 29.932 174.832 31.196V36.548C174.832 37.444 174.896 38.068 175.024 38.42C175.232 39.012 175.664 39.308 176.32 39.308V39.5H170.992V39.308C171.6 39.228 172 38.9 172.192 38.324C172.32 37.94 172.384 37.34 172.384 36.524V32.252C172.384 31.276 172.32 30.604 172.192 30.236C171.936 29.516 171.408 29.156 170.608 29.156C170.112 29.156 169.592 29.316 169.048 29.636C168.504 29.94 168.056 30.316 167.704 30.764C167.352 31.212 167.128 31.684 167.032 32.18C166.936 32.66 166.888 33.276 166.888 34.028V36.524C166.888 37.612 167 38.332 167.224 38.684C167.448 39.036 167.808 39.244 168.304 39.308V39.5H163V39.284C163.624 39.204 164.04 38.876 164.248 38.3C164.376 37.948 164.44 37.356 164.44 36.524V26.66C164.44 25.508 164.328 24.764 164.104 24.428C163.88 24.092 163.512 23.924 163 23.924V23.708L166.888 23.084ZM186.33 26.852C186.33 25.86 186.266 25.188 186.138 24.836C185.914 24.228 185.458 23.924 184.77 23.924V23.708H190.53V23.924C190.018 24.02 189.626 24.244 189.354 24.596C189.098 24.948 188.97 25.644 188.97 26.684V34.484C188.97 35.444 188.898 36.156 188.754 36.62C188.546 37.292 188.13 37.884 187.506 38.396C186.962 38.844 186.33 39.196 185.61 39.452C184.89 39.692 184.154 39.812 183.402 39.812C182.378 39.812 181.394 39.588 180.45 39.14C179.506 38.676 178.682 38.044 177.978 37.244L180.402 33.26L180.618 33.356C180.474 33.9 180.394 34.22 180.378 34.316C180.314 34.636 180.282 34.972 180.282 35.324C180.282 36.22 180.578 36.988 181.17 37.628C181.778 38.252 182.53 38.564 183.426 38.564C184.37 38.564 185.09 38.26 185.586 37.652C186.082 37.044 186.33 36.196 186.33 35.108V26.852ZM202.663 39.5C202.423 39.18 202.223 38.836 202.063 38.468C201.919 38.084 201.847 37.708 201.847 37.34C201.415 38.124 200.735 38.732 199.807 39.164C198.975 39.548 198.063 39.74 197.071 39.74C195.935 39.74 195.015 39.492 194.311 38.996C193.623 38.5 193.279 37.812 193.279 36.932C193.279 35.316 194.327 34.044 196.423 33.116C197.175 32.78 198.919 32.284 201.655 31.628V31.172C201.655 30.276 201.479 29.652 201.127 29.3C200.775 28.948 200.143 28.772 199.231 28.772C198.063 28.772 197.039 29.052 196.159 29.612C195.279 30.156 194.599 30.964 194.119 32.036L194.503 28.1C194.759 28.308 195.007 28.412 195.247 28.412C195.423 28.412 195.687 28.348 196.039 28.22C196.903 27.916 197.607 27.708 198.151 27.596C198.711 27.484 199.391 27.428 200.191 27.428C201.711 27.428 202.767 27.724 203.359 28.316C203.951 28.908 204.247 29.956 204.247 31.46V35.972C204.247 36.948 204.319 37.636 204.463 38.036C204.703 38.724 205.199 39.14 205.951 39.284V39.5H202.663ZM201.655 32.612C200.247 32.916 199.071 33.324 198.127 33.836C196.719 34.604 196.015 35.532 196.015 36.62C196.015 37.164 196.199 37.596 196.567 37.916C196.935 38.236 197.399 38.396 197.959 38.396C199.351 38.396 200.351 37.828 200.959 36.692C201.423 35.828 201.655 34.668 201.655 33.212V32.612ZM211.557 38.276L213.813 38.42C214.981 38.42 215.965 38.228 216.765 37.844C217.725 37.38 218.389 36.652 218.757 35.66L218.949 35.708L217.509 39.74C217.349 39.644 217.133 39.58 216.861 39.548C216.589 39.516 216.317 39.5 216.045 39.5H215.589H207.909L215.277 28.796L213.885 28.748C212.765 28.748 211.845 28.884 211.125 29.156C210.181 29.508 209.533 30.124 209.181 31.004L208.989 30.956L209.781 27.308C209.925 27.484 210.085 27.588 210.261 27.62C210.437 27.652 210.725 27.668 211.125 27.668H218.925L211.557 38.276ZM224.997 38.276L227.253 38.42C228.421 38.42 229.405 38.228 230.205 37.844C231.165 37.38 231.829 36.652 232.197 35.66L232.389 35.708L230.949 39.74C230.789 39.644 230.573 39.58 230.301 39.548C230.029 39.516 229.757 39.5 229.485 39.5H229.029H221.349L228.717 28.796L227.325 28.748C226.205 28.748 225.285 28.884 224.565 29.156C223.621 29.508 222.973 30.124 222.621 31.004L222.429 30.956L223.221 27.308C223.365 27.484 223.525 27.588 223.701 27.62C223.877 27.652 224.165 27.668 224.565 27.668H232.365L224.997 38.276Z" fill="white"/>
<path d="M62.312 24.164L62.7807 23.2806L62.7788 23.2796L62.312 24.164ZM61.88 29.228L61.2455 28.4551L61.2412 28.4586L61.88 29.228ZM58.4 31.148L58.7632 32.0797L58.7644 32.0792L58.4 31.148ZM55.088 32.228L54.8197 31.2647L54.088 31.4684V32.228H55.088ZM55.28 38.276L54.3402 38.6177L54.3417 38.6217L55.28 38.276ZM56.648 39.284H57.648V38.3727L56.7406 38.2883L56.648 39.284ZM56.648 39.5V40.5H57.648V39.5H56.648ZM50.888 39.5H49.888V40.5H50.888V39.5ZM50.888 39.284L50.7466 38.2941L49.888 38.4167V39.284H50.888ZM52.232 38.324L53.1567 38.7048L53.1575 38.7026L52.232 38.324ZM52.256 24.956L53.1958 24.6143L53.1943 24.6103L52.256 24.956ZM50.888 23.924H49.888V24.8145L50.7725 24.9173L50.888 23.924ZM50.888 23.708V22.708H49.888V23.708H50.888ZM55.088 31.076H54.088V32.4448L55.392 32.0287L55.088 31.076ZM58.616 29.612L58.1127 28.7479L58.1111 28.7488L58.616 29.612ZM59.912 25.244L59.4648 26.1384L59.4795 26.1458L59.4945 26.1527L59.912 25.244ZM56.072 24.956L56.2969 25.9304L56.2969 25.9304L56.072 24.956ZM55.256 25.484L54.3616 25.0368L54.3514 25.0571L54.3422 25.0779L55.256 25.484ZM55.112 26.156L54.1175 26.0513L54.1149 26.0759L54.1135 26.1005L55.112 26.156ZM59.696 23.708V24.708C60.8114 24.708 61.4863 24.8589 61.8452 25.0484L62.312 24.164L62.7788 23.2796C61.9857 22.8611 60.9166 22.708 59.696 22.708V23.708ZM62.312 24.164L61.8433 25.0473C62.2263 25.2506 62.488 25.602 62.488 26.396H63.488H64.488C64.488 25.046 63.9657 23.9094 62.7807 23.2806L62.312 24.164ZM63.488 26.396H62.488C62.488 27.0033 62.1779 27.6897 61.2455 28.4551L61.88 29.228L62.5145 30.0009C63.7261 29.0063 64.488 27.8047 64.488 26.396H63.488ZM61.88 29.228L61.2412 28.4586C60.5027 29.0717 59.4475 29.6643 58.0356 30.2168L58.4 31.148L58.7644 32.0792C60.2965 31.4797 61.5613 30.7923 62.5188 29.9974L61.88 29.228ZM58.4 31.148L58.0368 30.2163C57.1314 30.5692 56.0604 30.9192 54.8197 31.2647L55.088 32.228L55.3563 33.1913C56.6436 32.8328 57.7806 32.4628 58.7632 32.0797L58.4 31.148ZM55.088 32.228H54.088V36.356H55.088H56.088V32.228H55.088ZM55.088 36.356H54.088C54.088 37.278 54.1452 38.0814 54.3402 38.6177L55.28 38.276L56.2198 37.9343C56.1588 37.7666 56.088 37.29 56.088 36.356H55.088ZM55.28 38.276L54.3417 38.6217C54.5113 39.0821 54.7895 39.4889 55.1968 39.7891C55.6004 40.0864 56.0701 40.2346 56.5554 40.2797L56.648 39.284L56.7406 38.2883C56.5379 38.2694 56.4356 38.2176 56.3832 38.1789C56.3345 38.1431 56.2727 38.0779 56.2183 37.9303L55.28 38.276ZM56.648 39.284H55.648V39.5H56.648H57.648V39.284H56.648ZM56.648 39.5V38.5H50.888V39.5V40.5H56.648V39.5ZM50.888 39.5H51.888V39.284H50.888H49.888V39.5H50.888ZM50.888 39.284L51.0294 40.2739C51.9877 40.137 52.7749 39.632 53.1567 38.7048L52.232 38.324L51.3073 37.9433C51.2411 38.104 51.1323 38.239 50.7466 38.2941L50.888 39.284ZM52.232 38.324L53.1575 38.7026C53.3818 38.1544 53.448 37.3811 53.448 36.524H52.448H51.448C51.448 37.3629 51.3702 37.7896 51.3065 37.9454L52.232 38.324ZM52.448 36.524H53.448V26.852H52.448H51.448V36.524H52.448ZM52.448 26.852H53.448C53.448 25.9435 53.3905 25.1497 53.1958 24.6143L52.256 24.956L51.3162 25.2977C51.3775 25.4663 51.448 25.9365 51.448 26.852H52.448ZM52.256 24.956L53.1943 24.6103C53.0252 24.1512 52.7492 23.7462 52.3482 23.4437C51.9508 23.1439 51.4867 22.9869 51.0035 22.9307L50.888 23.924L50.7725 24.9173C50.9773 24.9411 51.0852 24.9961 51.1438 25.0403C51.1988 25.0818 51.2628 25.1528 51.3177 25.3017L52.256 24.956ZM50.888 23.924H51.888V23.708H50.888H49.888V23.924H50.888ZM50.888 23.708V24.708H59.696V23.708V22.708H50.888V23.708ZM55.088 31.076L55.392 32.0287C56.9293 31.538 58.1831 31.0237 59.1209 30.4752L58.616 29.612L58.1111 28.7488C57.3529 29.1923 56.2547 29.654 54.784 30.1233L55.088 31.076ZM58.616 29.612L59.1193 30.4761C60.6826 29.5656 61.8 28.3588 61.8 26.78H60.8H59.8C59.8 27.2812 59.4614 27.9624 58.1127 28.7479L58.616 29.612ZM60.8 26.78H61.8C61.8 26.2752 61.7005 25.7757 61.4437 25.3315C61.1817 24.8782 60.7935 24.5485 60.3295 24.3353L59.912 25.244L59.4945 26.1527C59.6225 26.2115 59.6784 26.2738 59.7123 26.3325C59.7515 26.4003 59.8 26.5328 59.8 26.78H60.8ZM59.912 25.244L60.3592 24.3496C59.5756 23.9578 58.5337 23.812 57.344 23.812V24.812V25.812C58.4263 25.812 59.0964 25.9542 59.4648 26.1384L59.912 25.244ZM57.344 24.812V23.812C56.8372 23.812 56.3378 23.8684 55.8471 23.9816L56.072 24.956L56.2969 25.9304C56.6382 25.8516 56.9868 25.812 57.344 25.812V24.812ZM56.072 24.956L55.8471 23.9816C55.2865 24.111 54.678 24.404 54.3616 25.0368L55.256 25.484L56.1504 25.9312C56.1389 25.9542 56.1252 25.973 56.1128 25.9864C56.1008 25.9993 56.0942 26.0028 56.0993 25.9996C56.1123 25.9911 56.1681 25.9601 56.2969 25.9304L56.072 24.956ZM55.256 25.484L54.3422 25.0779C54.2124 25.3698 54.1522 25.7217 54.1175 26.0513L55.112 26.156L56.1065 26.2607C56.1199 26.1331 56.1352 26.0377 56.1498 25.9695C56.1652 25.8976 56.1754 25.8776 56.1698 25.8901L55.256 25.484ZM55.112 26.156L54.1135 26.1005C54.0963 26.4105 54.088 26.7494 54.088 27.116H55.088H56.088C56.088 26.7786 56.0957 26.4775 56.1105 26.2115L55.112 26.156ZM55.088 27.116H54.088V31.076H55.088H56.088V27.116H55.088ZM66.6217 28.796L65.778 29.3329L66.6217 28.796ZM65.5177 28.196H64.5177V29.1066L65.4243 29.1916L65.5177 28.196ZM65.5177 27.98L65.4239 26.9844L64.5177 27.0698V27.98H65.5177ZM68.8297 27.668L69.7349 27.2431L69.4361 26.6064L68.7359 26.6724L68.8297 27.668ZM69.3817 30.308H68.3817L70.3008 30.7019L69.3817 30.308ZM71.0617 28.292L71.643 29.1058L71.6538 29.0979L71.0617 28.292ZM73.4617 27.428L73.6355 26.4432L73.5492 26.428H73.4617V27.428ZM74.2777 27.572L75.2543 27.7869L75.4784 26.7684L74.4515 26.5872L74.2777 27.572ZM73.7497 29.972L73.1684 30.7857L74.4009 31.6661L74.7263 30.1869L73.7497 29.972ZM73.0297 29.612L72.6583 30.5405L72.6943 30.5549L72.7314 30.5665L73.0297 29.612ZM69.9577 30.932L70.8595 31.3641L70.8608 31.3614L69.9577 30.932ZM69.5737 38.324L68.625 38.6402L69.5737 38.324ZM70.8457 39.284H71.8457V38.4369L71.0101 38.2976L70.8457 39.284ZM70.8457 39.5V40.5H71.8457V39.5H70.8457ZM65.5177 39.5H64.5177V40.5H65.5177V39.5ZM65.5177 39.284L65.4214 38.2887L64.5177 38.3761V39.284H65.5177ZM66.5977 38.684L65.76 38.1377L65.754 38.1471L66.5977 38.684ZM66.9577 30.932H67.9577C67.9577 30.3665 67.9285 29.8643 67.8615 29.4386C67.7975 29.0315 67.6863 28.6063 67.4653 28.2591L66.6217 28.796L65.778 29.3329C65.7746 29.3275 65.7911 29.3527 65.8151 29.4286C65.8385 29.5026 65.8635 29.6073 65.8858 29.7494C65.9309 30.0357 65.9577 30.4255 65.9577 30.932H66.9577ZM66.6217 28.796L67.4653 28.2591C67.037 27.5861 66.3514 27.2698 65.611 27.2004L65.5177 28.196L65.4243 29.1916C65.708 29.2182 65.7583 29.3019 65.778 29.3329L66.6217 28.796ZM65.5177 28.196H66.5177V27.98H65.5177H64.5177V28.196H65.5177ZM65.5177 27.98L65.6115 28.9756L68.9235 28.6636L68.8297 27.668L68.7359 26.6724L65.4239 26.9844L65.5177 27.98ZM68.8297 27.668L67.9245 28.0929C68.2225 28.728 68.3817 29.4602 68.3817 30.308H69.3817H70.3817C70.3817 29.2038 70.1728 28.176 69.7349 27.2431L68.8297 27.668ZM69.3817 30.308L70.3008 30.7019C70.5557 30.1071 70.9881 29.5735 71.6429 29.1057L71.0617 28.292L70.4804 27.4783C69.5673 28.1305 68.8796 28.9409 68.4625 29.9141L69.3817 30.308ZM71.0617 28.292L71.6538 29.0979C72.3 28.6231 72.8972 28.428 73.4617 28.428V27.428V26.428C72.3941 26.428 71.3913 26.8089 70.4696 27.4861L71.0617 28.292ZM73.4617 27.428L73.2879 28.4128L74.1039 28.5568L74.2777 27.572L74.4515 26.5872L73.6355 26.4432L73.4617 27.428ZM74.2777 27.572L73.301 27.3571L72.773 29.7571L73.7497 29.972L74.7263 30.1869L75.2543 27.7869L74.2777 27.572ZM73.7497 29.972L74.3309 29.1583C74.023 28.9383 73.6878 28.77 73.328 28.6575L73.0297 29.612L72.7314 30.5665C72.8836 30.614 73.0284 30.6857 73.1684 30.7857L73.7497 29.972ZM73.0297 29.612L73.4011 28.6835C73.0369 28.5378 72.6542 28.468 72.2617 28.468V29.468V30.468C72.4132 30.468 72.5425 30.4942 72.6583 30.5405L73.0297 29.612ZM72.2617 29.468V28.468C71.5701 28.468 70.9164 28.6271 70.3454 28.99C69.7748 29.3525 69.352 29.8769 69.0546 30.5026L69.9577 30.932L70.8608 31.3614C71.0274 31.0111 71.2205 30.8035 71.418 30.678C71.6149 30.5529 71.8813 30.468 72.2617 30.468V29.468ZM69.9577 30.932L69.0559 30.4999C68.5954 31.4609 68.4057 32.704 68.4057 34.148H69.4057H70.4057C70.4057 32.84 70.584 31.9391 70.8595 31.3641L69.9577 30.932ZM69.4057 34.148H68.4057V36.068H69.4057H70.4057V34.148H69.4057ZM69.4057 36.068H68.4057C68.4057 36.6649 68.4199 37.172 68.4504 37.5823C68.4793 37.9697 68.5273 38.3471 68.625 38.6402L69.5737 38.324L70.5224 38.0078C70.5081 37.9649 70.4721 37.7983 70.4449 37.4337C70.4195 37.092 70.4057 36.6391 70.4057 36.068H69.4057ZM69.5737 38.324L68.625 38.6402C68.9464 39.6045 69.7415 40.1138 70.6813 40.2704L70.8457 39.284L71.0101 38.2976C70.6058 38.2302 70.5529 38.0995 70.5224 38.0078L69.5737 38.324ZM70.8457 39.284H69.8457V39.5H70.8457H71.8457V39.284H70.8457ZM70.8457 39.5V38.5H65.5177V39.5V40.5H70.8457V39.5ZM65.5177 39.5H66.5177V39.284H65.5177H64.5177V39.5H65.5177ZM65.5177 39.284L65.614 40.2794C66.3499 40.2081 67.0192 39.8842 67.4413 39.2209L66.5977 38.684L65.754 38.1471C65.7281 38.1878 65.6775 38.2639 65.4214 38.2887L65.5177 39.284ZM66.5977 38.684L67.4353 39.2303C67.6635 38.8804 67.7838 38.4554 67.8538 38.0402C67.9262 37.6105 67.9577 37.1087 67.9577 36.548H66.9577H65.9577C65.9577 37.0433 65.9292 37.4255 65.8816 37.7078C65.8316 38.0046 65.7719 38.1196 65.7601 38.1377L66.5977 38.684ZM66.9577 36.548H67.9577V30.932H66.9577H65.9577V36.548H66.9577ZM78.0931 29.132L78.7616 29.8758L78.0931 29.132ZM87.5251 29.036L86.8589 29.7818L86.8645 29.7867L87.5251 29.036ZM87.4291 38.036L88.1023 38.7755L88.1027 38.7751L87.4291 38.036ZM78.0451 38.132L77.3725 38.8719L77.374 38.8733L78.0451 38.132ZM79.7971 36.788L80.6597 36.282L80.6583 36.2797L79.7971 36.788ZM85.6051 37.1L84.7933 36.5161L84.7896 36.5213L85.6051 37.1ZM85.7251 30.284L84.8698 30.802L84.8715 30.8049L85.7251 30.284ZM79.8211 29.972L79.0112 29.3855L79.0063 29.3922L79.8211 29.972ZM76.1971 33.668H77.1971C77.1971 32.0286 77.7334 30.7999 78.7616 29.8758L78.0931 29.132L77.4247 28.3882C75.9249 29.7361 75.1971 31.5314 75.1971 33.668H76.1971ZM78.0931 29.132L78.7616 29.8758C79.818 28.9263 81.1616 28.428 82.8691 28.428V27.428V26.428C80.7367 26.428 78.8963 27.0657 77.4247 28.3882L78.0931 29.132ZM82.8691 27.428V28.428C84.575 28.428 85.8748 28.9027 86.8589 29.7818L87.5251 29.036L88.1913 28.2902C86.7754 27.0253 84.9713 26.428 82.8691 26.428V27.428ZM87.5251 29.036L86.8645 29.7867C87.8112 30.6198 88.3251 31.7892 88.3251 33.428H89.3251H90.3251C90.3251 31.3228 89.6391 29.5642 88.1858 28.2853L87.5251 29.036ZM89.3251 33.428H88.3251C88.3251 35.105 87.7849 36.3587 86.7555 37.2969L87.4291 38.036L88.1027 38.7751C89.6013 37.4093 90.3251 35.591 90.3251 33.428H89.3251ZM87.4291 38.036L86.756 37.2965C85.7207 38.2388 84.3738 38.74 82.6291 38.74V39.74V40.74C84.7885 40.74 86.6415 40.1052 88.1023 38.7755L87.4291 38.036ZM82.6291 39.74V38.74C80.9599 38.74 79.6854 38.2681 78.7163 37.3907L78.0451 38.132L77.374 38.8733C78.7729 40.1399 80.5544 40.74 82.6291 40.74V39.74ZM78.0451 38.132L78.7178 37.3921C77.7195 36.4845 77.1971 35.2782 77.1971 33.668H76.1971H75.1971C75.1971 35.7698 75.9068 37.5395 77.3725 38.8719L78.0451 38.132ZM78.9331 33.188H77.9331C77.9331 34.7455 78.2485 36.1315 78.9359 37.2963L79.7971 36.788L80.6583 36.2797C80.1938 35.4925 79.9331 34.4785 79.9331 33.188H78.9331ZM79.7971 36.788L78.9346 37.294C79.8076 38.7822 81.1421 39.588 82.8451 39.588V38.588V37.588C81.8921 37.588 81.1946 37.1938 80.6597 36.282L79.7971 36.788ZM82.8451 38.588V39.588C84.3312 39.588 85.5447 38.913 86.4206 37.6787L85.6051 37.1L84.7896 36.5213C84.2576 37.271 83.6311 37.588 82.8451 37.588V38.588ZM85.6051 37.1L86.4169 37.6839C87.2149 36.5745 87.5891 35.2493 87.5891 33.764H86.5891H85.5891C85.5891 34.9027 85.3073 35.8015 84.7933 36.5161L85.6051 37.1ZM86.5891 33.764H87.5891C87.5891 32.2489 87.2713 30.8982 86.5788 29.7631L85.7251 30.284L84.8715 30.8049C85.3309 31.5578 85.5891 32.5271 85.5891 33.764H86.5891ZM85.7251 30.284L86.5805 29.766C85.714 28.3353 84.3922 27.58 82.7251 27.58V28.58V29.58C83.6821 29.58 84.3602 29.9607 84.8698 30.802L85.7251 30.284ZM82.7251 28.58V27.58C81.1789 27.58 79.8927 28.1682 79.0112 29.3855L79.8211 29.972L80.6311 30.5585C81.0935 29.9198 81.7434 29.58 82.7251 29.58V28.58ZM79.8211 29.972L79.0063 29.3922C78.2636 30.4361 77.9331 31.7274 77.9331 33.188H78.9331H79.9331C79.9331 32.0246 80.1947 31.1719 80.6359 30.5518L79.8211 29.972ZM104.328 27.668H105.328V26.668H104.328V27.668ZM104.328 27.884V28.884H105.328V27.884H104.328ZM103.248 28.268L102.541 27.5609H102.541L103.248 28.268ZM102.984 37.988L102.035 38.3042L102.04 38.317L102.044 38.3297L102.984 37.988ZM103.584 38.756L102.877 39.4631L102.885 39.4713L102.893 39.4794L103.584 38.756ZM104.352 39.668L103.49 40.175L103.494 40.1823L103.499 40.1894L104.352 39.668ZM102.624 43.724L103.112 44.5971L103.117 44.5942L102.624 43.724ZM94.7999 44.252L94.4876 45.202L94.4882 45.2022L94.7999 44.252ZM91.8959 42.5L91.1857 41.796L90.492 42.4959L91.1816 43.1998L91.8959 42.5ZM94.5839 39.788L95.3522 39.1478L94.648 38.3028L93.8737 39.084L94.5839 39.788ZM94.7039 39.932L95.5476 40.4689L95.9396 39.8528L95.4722 39.2918L94.7039 39.932ZM94.4399 40.436L93.5115 40.0646L93.4949 40.106L93.4821 40.1487L94.4399 40.436ZM100.968 42.956L100.435 42.1101L100.424 42.1169L100.413 42.1239L100.968 42.956ZM101.28 39.74L101.694 38.8296L101.28 39.74ZM94.4399 38.324L95.0212 37.5102L95.0134 37.5048L94.4399 38.324ZM92.5919 36.116L91.6882 36.5441L92.5919 36.116ZM93.4559 29.084L94.1332 29.8197L94.1337 29.8192L93.4559 29.084ZM100.368 29.468L99.3874 29.6641L99.3966 29.7103L99.4101 29.7554L100.368 29.468ZM100.104 29.012L100.811 28.3049L100.765 28.259L100.714 28.2194L100.104 29.012ZM99.2879 28.7L99.1396 29.689L99.1465 29.6899L99.2879 28.7ZM95.5199 29.996L94.7351 29.3764L94.7347 29.3768L95.5199 29.996ZM96.0719 37.052L95.382 37.7759L95.3842 37.778L96.0719 37.052ZM99.3119 38.348V39.348H99.3438L99.3756 39.346L99.3119 38.348ZM100.44 38.276L100.504 39.274L101.44 39.2142V38.276H100.44ZM104.328 27.668H103.328V27.884H104.328H105.328V27.668H104.328ZM104.328 27.884V26.884C103.677 26.884 103.033 27.0685 102.541 27.5609L103.248 28.268L103.955 28.9751C103.975 28.9555 104.051 28.884 104.328 28.884V27.884ZM103.248 28.268L102.541 27.5609C102.23 27.8716 102.082 28.2741 102.003 28.6224C101.92 28.9858 101.888 29.4029 101.888 29.852H102.888H103.888C103.888 29.4851 103.916 29.2302 103.953 29.0656C103.994 28.8859 104.026 28.9044 103.955 28.9751L103.248 28.268ZM102.888 29.852H101.888V30.62H102.888H103.888V29.852H102.888ZM102.888 30.62H101.888V36.932H102.888H103.888V30.62H102.888ZM102.888 36.932H101.888C101.888 37.4362 101.914 37.9398 102.035 38.3042L102.984 37.988L103.933 37.6718C103.937 37.6836 103.921 37.6365 103.908 37.4895C103.895 37.3536 103.888 37.1699 103.888 36.932H102.888ZM102.984 37.988L102.044 38.3297C102.129 38.5632 102.269 38.7682 102.394 38.9276C102.528 39.0987 102.692 39.2782 102.877 39.4631L103.584 38.756L104.291 38.0489C104.14 37.8978 104.036 37.7813 103.97 37.6964C103.937 37.6545 103.919 37.6273 103.911 37.6136C103.901 37.598 103.911 37.6102 103.924 37.6463L102.984 37.988ZM103.584 38.756L102.893 39.4794C103.211 39.7821 103.395 40.0135 103.49 40.175L104.352 39.668L105.214 39.161C104.989 38.7785 104.661 38.4019 104.274 38.0326L103.584 38.756ZM104.352 39.668L103.499 40.1894C103.552 40.277 103.616 40.4494 103.616 40.772H104.616H105.616C105.616 40.1986 105.504 39.635 105.205 39.1466L104.352 39.668ZM104.616 40.772H103.616C103.616 41.532 103.239 42.2265 102.131 42.8538L102.624 43.724L103.117 44.5942C104.665 43.7175 105.616 42.444 105.616 40.772H104.616ZM102.624 43.724L102.136 42.8509C101.085 43.4382 99.7731 43.756 98.1599 43.756V44.756V45.756C100.035 45.756 101.699 45.3858 103.112 44.5971L102.624 43.724ZM98.1599 44.756V43.756C97.0364 43.756 96.0231 43.6009 95.1117 43.3018L94.7999 44.252L94.4882 45.2022C95.6248 45.5751 96.8514 45.756 98.1599 45.756V44.756ZM94.7999 44.252L95.1123 43.302C94.0778 42.9619 93.2533 42.4567 92.6103 41.8002L91.8959 42.5L91.1816 43.1998C92.0745 44.1113 93.186 44.7741 94.4876 45.202L94.7999 44.252ZM91.8959 42.5L92.6062 43.204L95.2942 40.492L94.5839 39.788L93.8737 39.084L91.1857 41.796L91.8959 42.5ZM94.5839 39.788L93.8157 40.4282L93.9357 40.5722L94.7039 39.932L95.4722 39.2918L95.3522 39.1478L94.5839 39.788ZM94.7039 39.932L93.8603 39.3951C93.7216 39.613 93.6027 39.8364 93.5115 40.0646L94.4399 40.436L95.3684 40.8074C95.4051 40.7156 95.4622 40.603 95.5476 40.4689L94.7039 39.932ZM94.4399 40.436L93.4821 40.1487C93.4003 40.4214 93.3679 40.7055 93.3679 40.988H94.3679H95.3679C95.3679 40.8545 95.3836 40.7706 95.3978 40.7233L94.4399 40.436ZM94.3679 40.988H93.3679C93.3679 42.1414 93.902 43.083 94.848 43.7495L95.4239 42.932L95.9999 42.1145C95.5379 41.789 95.3679 41.4346 95.3679 40.988H94.3679ZM95.4239 42.932L94.848 43.7495C95.7669 44.3969 96.9068 44.676 98.1839 44.676V43.676V42.676C97.189 42.676 96.4889 42.4591 95.9999 42.1145L95.4239 42.932ZM98.1839 43.676V44.676C99.4565 44.676 100.594 44.407 101.523 43.788L100.968 42.956L100.413 42.1239C99.9017 42.465 99.1834 42.676 98.1839 42.676V43.676ZM100.968 42.956L101.501 43.8019C102.466 43.1937 103.072 42.3025 103.072 41.156H102.072H101.072C101.072 41.4815 100.942 41.7903 100.435 42.1101L100.968 42.956ZM102.072 41.156H103.072C103.072 40.6832 102.984 40.2094 102.747 39.7858C102.503 39.35 102.137 39.0311 101.694 38.8296L101.28 39.74L100.866 40.6504C100.951 40.6889 100.981 40.726 101.001 40.7622C101.028 40.8106 101.072 40.9248 101.072 41.156H102.072ZM101.28 39.74L101.694 38.8296C101.135 38.5755 100.374 38.5 99.5519 38.5V39.5V40.5C100.33 40.5 100.721 40.5845 100.866 40.6504L101.28 39.74ZM99.5519 39.5V38.5C98.1323 38.5 97.1698 38.4029 96.5991 38.2472L96.3359 39.212L96.0728 40.1768C96.9101 40.4051 98.0916 40.5 99.5519 40.5V39.5ZM96.3359 39.212L96.5991 38.2472C96.0022 38.0845 95.4792 37.8374 95.0212 37.5103L94.4399 38.324L93.8587 39.1377C94.5207 39.6106 95.2616 39.9555 96.0728 40.1768L96.3359 39.212ZM94.4399 38.324L95.0134 37.5048C94.3604 37.0477 93.856 36.4485 93.4957 35.6879L92.5919 36.116L91.6882 36.5441C92.1919 37.6075 92.9194 38.4803 93.8665 39.1432L94.4399 38.324ZM92.5919 36.116L93.4957 35.6879C93.129 34.9139 92.9439 34.0846 92.9439 33.188H91.9439H90.9439C90.9439 34.3714 91.1908 35.4941 91.6882 36.5441L92.5919 36.116ZM91.9439 33.188H92.9439C92.9439 31.5657 93.3911 30.503 94.1332 29.8197L93.4559 29.084L92.7786 28.3483C91.5048 29.521 90.9439 31.1943 90.9439 33.188H91.9439ZM93.4559 29.084L94.1337 29.8192C94.9233 29.0914 96.07 28.668 97.7039 28.668V27.668V26.668C95.7219 26.668 94.0366 27.1886 92.7781 28.3488L93.4559 29.084ZM97.7039 27.668V28.668H104.328V27.668V26.668H97.7039V27.668ZM100.44 30.572H101.44V30.14H100.44H99.4399V30.572H100.44ZM100.44 30.14H101.44C101.44 29.8142 101.415 29.4775 101.326 29.1806L100.368 29.468L99.4101 29.7554C99.4171 29.7785 99.4399 29.8898 99.4399 30.14H100.44ZM100.368 29.468L101.349 29.2719C101.269 28.8752 101.06 28.5538 100.811 28.3049L100.104 29.012L99.3968 29.7191C99.4169 29.7391 99.4184 29.7452 99.4125 29.735C99.4059 29.7236 99.3944 29.6993 99.3874 29.6641L100.368 29.468ZM100.104 29.012L100.714 28.2194C100.335 27.9279 99.8871 27.7754 99.4294 27.71L99.2879 28.7L99.1465 29.6899C99.3608 29.7206 99.4571 29.7761 99.4942 29.8046L100.104 29.012ZM99.2879 28.7L99.4363 27.7111C99.0955 27.66 98.7838 27.628 98.5199 27.628V28.628V29.628C98.6401 29.628 98.8403 29.644 99.1396 29.6889L99.2879 28.7ZM98.5199 28.628V27.628C96.9694 27.628 95.6657 28.1976 94.7351 29.3764L95.5199 29.996L96.3048 30.6156C96.8142 29.9704 97.5104 29.628 98.5199 29.628V28.628ZM95.5199 29.996L94.7347 29.3768C93.9074 30.426 93.5359 31.7414 93.5359 33.236H94.5359H95.5359C95.5359 32.0746 95.8204 31.23 96.3052 30.6152L95.5199 29.996ZM94.5359 33.236H93.5359C93.5359 35.0448 94.1375 36.5897 95.382 37.7759L96.0719 37.052L96.7619 36.3281C95.9584 35.5623 95.5359 34.5632 95.5359 33.236H94.5359ZM96.0719 37.052L95.3842 37.778C96.4806 38.8166 97.8062 39.348 99.3119 39.348V38.348V37.348C98.3217 37.348 97.4873 37.0154 96.7597 36.326L96.0719 37.052ZM99.3119 38.348L99.3756 39.346L100.504 39.274L100.44 38.276L100.376 37.278L99.2482 37.35L99.3119 38.348ZM100.44 38.276H101.44V30.572H100.44H99.4399V38.276H100.44ZM118.369 24.164L118.838 23.2806L118.836 23.2796L118.369 24.164ZM117.937 29.228L117.302 28.4551L117.298 28.4586L117.937 29.228ZM114.457 31.148L114.82 32.0797L114.821 32.0792L114.457 31.148ZM111.145 32.228L110.877 31.2647L110.145 31.4684V32.228H111.145ZM111.337 38.276L110.397 38.6177L110.399 38.6217L111.337 38.276ZM112.705 39.284H113.705V38.3727L112.798 38.2883L112.705 39.284ZM112.705 39.5V40.5H113.705V39.5H112.705ZM106.945 39.5H105.945V40.5H106.945V39.5ZM106.945 39.284L106.803 38.2941L105.945 38.4167V39.284H106.945ZM108.289 38.324L109.214 38.7048L109.214 38.7026L108.289 38.324ZM108.313 24.956L109.253 24.6143L109.251 24.6103L108.313 24.956ZM106.945 23.924H105.945V24.8145L106.829 24.9173L106.945 23.924ZM106.945 23.708V22.708H105.945V23.708H106.945ZM111.145 31.076H110.145V32.4448L111.449 32.0287L111.145 31.076ZM114.673 29.612L114.17 28.7479L114.168 28.7488L114.673 29.612ZM115.969 25.244L115.522 26.1384L115.536 26.1458L115.551 26.1527L115.969 25.244ZM112.129 24.956L112.354 25.9304V25.9304L112.129 24.956ZM111.313 25.484L110.418 25.0368L110.408 25.0571L110.399 25.0779L111.313 25.484ZM111.169 26.156L110.174 26.0513L110.172 26.0759L110.17 26.1005L111.169 26.156ZM115.753 23.708V24.708C116.868 24.708 117.543 24.8589 117.902 25.0484L118.369 24.164L118.836 23.2796C118.043 22.8611 116.973 22.708 115.753 22.708V23.708ZM118.369 24.164L117.9 25.0473C118.283 25.2506 118.545 25.602 118.545 26.396H119.545H120.545C120.545 25.046 120.023 23.9094 118.838 23.2806L118.369 24.164ZM119.545 26.396H118.545C118.545 27.0033 118.235 27.6897 117.302 28.4551L117.937 29.228L118.571 30.0009C119.783 29.0063 120.545 27.8047 120.545 26.396H119.545ZM117.937 29.228L117.298 28.4586C116.56 29.0717 115.504 29.6643 114.092 30.2168L114.457 31.148L114.821 32.0792C116.353 31.4797 117.618 30.7923 118.576 29.9974L117.937 29.228ZM114.457 31.148L114.094 30.2163C113.188 30.5692 112.117 30.9192 110.877 31.2647L111.145 32.228L111.413 33.1913C112.7 32.8328 113.837 32.4628 114.82 32.0797L114.457 31.148ZM111.145 32.228H110.145V36.356H111.145H112.145V32.228H111.145ZM111.145 36.356H110.145C110.145 37.278 110.202 38.0814 110.397 38.6177L111.337 38.276L112.277 37.9343C112.216 37.7666 112.145 37.29 112.145 36.356H111.145ZM111.337 38.276L110.399 38.6217C110.568 39.0821 110.846 39.4889 111.254 39.7891C111.657 40.0864 112.127 40.2346 112.612 40.2797L112.705 39.284L112.798 38.2883C112.595 38.2694 112.493 38.2176 112.44 38.1789C112.391 38.1431 112.33 38.0779 112.275 37.9303L111.337 38.276ZM112.705 39.284H111.705V39.5H112.705H113.705V39.284H112.705ZM112.705 39.5V38.5H106.945V39.5V40.5H112.705V39.5ZM106.945 39.5H107.945V39.284H106.945H105.945V39.5H106.945ZM106.945 39.284L107.086 40.2739C108.045 40.137 108.832 39.632 109.214 38.7048L108.289 38.324L107.364 37.9433C107.298 38.104 107.189 38.239 106.803 38.2941L106.945 39.284ZM108.289 38.324L109.214 38.7026C109.439 38.1544 109.505 37.3811 109.505 36.524H108.505H107.505C107.505 37.3629 107.427 37.7896 107.363 37.9454L108.289 38.324ZM108.505 36.524H109.505V26.852H108.505H107.505V36.524H108.505ZM108.505 26.852H109.505C109.505 25.9435 109.447 25.1497 109.253 24.6143L108.313 24.956L107.373 25.2977C107.434 25.4663 107.505 25.9365 107.505 26.852H108.505ZM108.313 24.956L109.251 24.6103C109.082 24.1512 108.806 23.7462 108.405 23.4437C108.008 23.1439 107.544 22.9869 107.06 22.9307L106.945 23.924L106.829 24.9173C107.034 24.9411 107.142 24.9961 107.201 25.0403C107.256 25.0818 107.32 25.1528 107.375 25.3017L108.313 24.956ZM106.945 23.924H107.945V23.708H106.945H105.945V23.924H106.945ZM106.945 23.708V24.708H115.753V23.708V22.708H106.945V23.708ZM111.145 31.076L111.449 32.0287C112.986 31.538 114.24 31.0237 115.178 30.4752L114.673 29.612L114.168 28.7488C113.41 29.1923 112.312 29.654 110.841 30.1233L111.145 31.076ZM114.673 29.612L115.176 30.4761C116.739 29.5656 117.857 28.3588 117.857 26.78H116.857H115.857C115.857 27.2812 115.518 27.9624 114.17 28.7479L114.673 29.612ZM116.857 26.78H117.857C117.857 26.2752 117.757 25.7757 117.501 25.3315C117.239 24.8782 116.85 24.5485 116.386 24.3353L115.969 25.244L115.551 26.1527C115.679 26.2115 115.735 26.2738 115.769 26.3325C115.808 26.4003 115.857 26.5328 115.857 26.78H116.857ZM115.969 25.244L116.416 24.3496C115.632 23.9578 114.591 23.812 113.401 23.812V24.812V25.812C114.483 25.812 115.153 25.9542 115.522 26.1384L115.969 25.244ZM113.401 24.812V23.812C112.894 23.812 112.395 23.8684 111.904 23.9816L112.129 24.956L112.354 25.9304C112.695 25.8516 113.044 25.812 113.401 25.812V24.812ZM112.129 24.956L111.904 23.9816C111.343 24.111 110.735 24.404 110.418 25.0368L111.313 25.484L112.207 25.9312C112.196 25.9542 112.182 25.973 112.17 25.9864C112.158 25.9993 112.151 26.0028 112.156 25.9996C112.169 25.9911 112.225 25.9601 112.354 25.9304L112.129 24.956ZM111.313 25.484L110.399 25.0779C110.269 25.3698 110.209 25.7217 110.174 26.0513L111.169 26.156L112.163 26.2607C112.177 26.1331 112.192 26.0377 112.207 25.9695C112.222 25.8976 112.232 25.8776 112.227 25.8901L111.313 25.484ZM111.169 26.156L110.17 26.1005C110.153 26.4105 110.145 26.7494 110.145 27.116H111.145H112.145C112.145 26.7786 112.153 26.4775 112.167 26.2115L111.169 26.156ZM111.145 27.116H110.145V31.076H111.145H112.145V27.116H111.145ZM131.199 31.508L131.34 32.4979L132.238 32.3696L132.198 31.4629L131.199 31.508ZM131.031 31.532L130.046 31.7078L130.216 32.6585L131.172 32.5219L131.031 31.532ZM129.543 29.396L128.988 30.228L128.997 30.2343L129.007 30.2403L129.543 29.396ZM125.055 29.06L125.661 29.8554L125.664 29.8526L125.055 29.06ZM126.519 31.7L126.825 30.7481L126.821 30.7468L126.519 31.7ZM130.167 32.9L129.719 33.7944L129.724 33.7966L130.167 32.9ZM130.479 38.732L131.039 39.5599L131.044 39.5567L130.479 38.732ZM124.743 39.5L124.947 38.521L124.937 38.519L124.927 38.5171L124.743 39.5ZM122.463 39.02L122.69 38.0463L122.578 38.02H122.463V39.02ZM122.127 39.116L122.641 39.9735L122.661 39.9613L122.681 39.948L122.127 39.116ZM121.863 39.356L120.863 39.3968L120.967 41.9373L122.622 40.0068L121.863 39.356ZM121.671 34.652L121.428 33.6819L120.638 33.8793L120.671 34.6928L121.671 34.652ZM121.863 34.604L122.855 34.4849L122.72 33.3588L121.62 33.6339L121.863 34.604ZM123.399 37.508L122.757 38.2751L122.765 38.2814L122.772 38.2875L123.399 37.508ZM128.655 38.06L128.146 37.1991L128.143 37.2005L128.655 38.06ZM127.743 34.628L127.428 35.5773L127.43 35.5778L127.743 34.628ZM124.095 33.404L124.802 32.6969L124.685 32.5804L124.537 32.5074L124.095 33.404ZM123.615 28.124L123.12 27.2547L123.118 27.2558L123.615 28.124ZM128.487 27.62L128.295 28.6015L128.307 28.6037L128.318 28.6057L128.487 27.62ZM130.455 27.98L130.263 28.9615L130.358 28.98H130.455V27.98ZM131.031 27.788L132.03 27.7429L131.946 25.886L130.442 26.9793L131.031 27.788ZM131.199 31.508L131.057 30.5181L130.889 30.542L131.031 31.532L131.172 32.5219L131.34 32.4979L131.199 31.508ZM131.031 31.532L132.015 31.3562C131.801 30.1598 131.125 29.2159 130.078 28.5517L129.543 29.396L129.007 30.2403C129.624 30.6321 129.94 31.1122 130.046 31.7078L131.031 31.532ZM129.543 29.396L130.097 28.5639C129.121 27.9129 128.04 27.58 126.879 27.58V28.58V29.58C127.637 29.58 128.332 29.7911 128.988 30.228L129.543 29.396ZM126.879 28.58V27.58C125.968 27.58 125.106 27.7587 124.445 28.2674L125.055 29.06L125.664 29.8526C125.835 29.7213 126.19 29.58 126.879 29.58V28.58ZM125.055 29.06L124.449 28.2646C123.858 28.7147 123.551 29.3562 123.551 30.092H124.551H125.551C125.551 29.9638 125.579 29.9173 125.661 29.8554L125.055 29.06ZM124.551 30.092H123.551C123.551 30.8034 123.923 31.3622 124.41 31.7604C124.878 32.1428 125.506 32.4279 126.216 32.6532L126.519 31.7L126.821 30.7468C126.219 30.5561 125.863 30.3652 125.675 30.2116C125.507 30.0738 125.551 30.0366 125.551 30.092H124.551ZM126.519 31.7L126.212 32.6519C127.38 33.0277 128.265 33.3149 128.87 33.5139C129.173 33.6136 129.403 33.6902 129.561 33.7443C129.641 33.7716 129.699 33.7919 129.738 33.8059C129.803 33.8293 129.771 33.8201 129.719 33.7944L130.167 32.9L130.614 32.0056C130.538 31.9679 130.447 31.9357 130.418 31.9251C130.363 31.9051 130.292 31.8804 130.208 31.8517C130.038 31.7938 129.8 31.7144 129.495 31.6141C128.884 31.4131 127.994 31.1243 126.825 30.7481L126.519 31.7ZM130.167 32.9L129.724 33.7966C130.813 34.3348 131.159 34.959 131.159 35.66H132.159H133.159C133.159 33.993 132.176 32.7772 130.609 32.0034L130.167 32.9ZM132.159 35.66H131.159C131.159 36.5871 130.781 37.3123 129.913 37.9073L130.479 38.732L131.044 39.5567C132.416 38.6157 133.159 37.2929 133.159 35.66H132.159ZM130.479 38.732L129.918 37.9041C129.111 38.4506 128.144 38.74 126.975 38.74V39.74V40.74C128.493 40.74 129.862 40.3574 131.039 39.5599L130.479 38.732ZM126.975 39.74V38.74C126.329 38.74 125.653 38.6683 124.947 38.521L124.743 39.5L124.539 40.479C125.368 40.6517 126.18 40.74 126.975 40.74V39.74ZM124.743 39.5L124.927 38.5171C124.173 38.3758 123.428 38.2189 122.69 38.0463L122.463 39.02L122.235 39.9937C123.001 40.1731 123.776 40.3362 124.558 40.4829L124.743 39.5ZM122.463 39.02V38.02C122.16 38.02 121.85 38.0986 121.572 38.2839L122.127 39.116L122.681 39.948C122.642 39.974 122.6 39.9934 122.557 40.0055C122.516 40.0174 122.482 40.02 122.463 40.02V39.02ZM122.127 39.116L121.612 38.2585C121.402 38.3843 121.234 38.5533 121.103 38.7052L121.863 39.356L122.622 40.0068C122.649 39.9751 122.666 39.9584 122.673 39.9519C122.676 39.949 122.676 39.9499 122.671 39.9534C122.667 39.9569 122.656 39.9642 122.641 39.9735L122.127 39.116ZM121.863 39.356L122.862 39.3152L122.67 34.6112L121.671 34.652L120.671 34.6928L120.863 39.3968L121.863 39.356ZM121.671 34.652L121.913 35.6221L122.105 35.5741L121.863 34.604L121.62 33.6339L121.428 33.6819L121.671 34.652ZM121.863 34.604L120.87 34.7231C121.042 36.1611 121.67 37.3663 122.757 38.2751L123.399 37.508L124.04 36.7409C123.367 36.1777 122.971 35.4469 122.855 34.4849L121.863 34.604ZM123.399 37.508L122.772 38.2875C123.859 39.1608 125.148 39.588 126.591 39.588V38.588V37.588C125.569 37.588 124.73 37.2952 124.025 36.7285L123.399 37.508ZM126.591 38.588V39.588C127.529 39.588 128.399 39.3756 129.166 38.9195L128.655 38.06L128.143 37.2005C127.727 37.4484 127.22 37.588 126.591 37.588V38.588ZM128.655 38.06L129.163 38.9209C130.122 38.3542 130.711 37.4835 130.711 36.356H129.711H128.711C128.711 36.6685 128.595 36.9338 128.146 37.1991L128.655 38.06ZM129.711 36.356H130.711C130.711 35.6477 130.373 35.0665 129.878 34.6326C129.408 34.2191 128.773 33.9145 128.055 33.6782L127.743 34.628L127.43 35.5778C128.024 35.7735 128.374 35.9729 128.559 36.1354C128.721 36.2775 128.711 36.3443 128.711 36.356H129.711ZM127.743 34.628L128.057 33.6787C126.849 33.2788 125.943 32.9773 125.337 32.7739C125.033 32.6721 124.807 32.5956 124.657 32.5439C124.581 32.5178 124.529 32.4994 124.496 32.4877C124.479 32.4815 124.474 32.4795 124.476 32.4804C124.477 32.4809 124.48 32.482 124.484 32.4837C124.488 32.4853 124.496 32.4885 124.506 32.493C124.514 32.4965 124.536 32.5063 124.563 32.5207C124.577 32.5279 124.602 32.5416 124.632 32.5609C124.652 32.5736 124.724 32.6196 124.802 32.6969L124.095 33.404L123.387 34.1111C123.465 34.1886 123.538 34.235 123.558 34.248C123.589 34.2677 123.615 34.2817 123.629 34.2893C123.658 34.3047 123.682 34.3155 123.693 34.3203C123.716 34.3307 123.737 34.3388 123.747 34.3428C123.77 34.3518 123.795 34.361 123.817 34.369C123.864 34.3859 123.928 34.4082 124.006 34.4351C124.164 34.4894 124.396 34.5679 124.7 34.6701C125.31 34.8747 126.22 35.1772 127.428 35.5773L127.743 34.628ZM124.095 33.404L124.537 32.5074C123.98 32.2321 123.628 31.9305 123.416 31.6314C123.211 31.3429 123.103 31.0098 123.103 30.596H122.103H121.103C121.103 31.3982 121.326 32.1411 121.785 32.7886C122.237 33.4255 122.881 33.9199 123.652 34.3006L124.095 33.404ZM122.103 30.596H123.103C123.103 29.9178 123.383 29.4082 124.111 28.9922L123.615 28.124L123.118 27.2558C121.83 27.9918 121.103 29.1302 121.103 30.596H122.103ZM123.615 28.124L124.109 28.9933C124.742 28.6335 125.554 28.428 126.591 28.428V27.428V26.428C125.291 26.428 124.12 26.6865 123.12 27.2547L123.615 28.124ZM126.591 27.428V28.428C127.128 28.428 127.696 28.4846 128.295 28.6015L128.487 27.62L128.678 26.6385C127.965 26.4994 127.269 26.428 126.591 26.428V27.428ZM128.487 27.62L128.318 28.6057C128.966 28.7164 129.615 28.835 130.263 28.9615L130.455 27.98L130.646 26.9985C129.982 26.869 129.319 26.7476 128.655 26.6343L128.487 27.62ZM130.455 27.98V28.98C130.884 28.98 131.28 28.8429 131.619 28.5967L131.031 27.788L130.442 26.9793C130.436 26.9837 130.433 26.9853 130.433 26.9854C130.433 26.9855 130.435 26.9845 130.438 26.9833C130.442 26.9821 130.446 26.9811 130.45 26.9806C130.453 26.98 130.455 26.98 130.455 26.98V27.98ZM131.031 27.788L130.032 27.8331L130.2 31.5531L131.199 31.508L132.198 31.4629L132.03 27.7429L131.031 27.788ZM143.343 30.5L142.408 30.144L142.407 30.1481L143.343 30.5ZM143.727 29.468L144.666 29.8098L144.671 29.7965L143.727 29.468ZM143.079 27.884H142.079V28.7762L142.965 28.8775L143.079 27.884ZM143.079 27.668V26.668H142.079V27.668H143.079ZM146.751 27.668H147.751V26.668H146.751V27.668ZM146.751 27.884L146.864 28.8775L147.751 28.7762V27.884H146.751ZM145.407 28.988L144.512 28.5408L144.506 28.5529L144.5 28.5651L145.407 28.988ZM144.951 30.044L144.027 29.6616L144.021 29.6743L144.016 29.6871L144.951 30.044ZM140.871 40.724L141.805 41.0814L141.805 41.0809L140.871 40.724ZM139.407 43.46L138.667 42.7873L138.663 42.7919L139.407 43.46ZM134.247 43.772L133.338 43.3547L133.015 44.0567L133.613 44.546L134.247 43.772ZM135.735 40.532L136.265 39.684L135.3 39.0814L134.826 40.1147L135.735 40.532ZM135.927 40.652L136.875 40.9682L137.124 40.2213L136.457 39.804L135.927 40.652ZM136.191 42.452L135.391 43.052L135.395 43.058L136.191 42.452ZM138.927 41.948L139.768 42.4888L139.769 42.4864L138.927 41.948ZM139.143 38.108L138.184 38.3921L138.188 38.4051L139.143 38.108ZM138.471 36.308L137.542 36.68L137.547 36.6926L138.471 36.308ZM135.903 29.9L134.973 30.2677L134.974 30.272L135.903 29.9ZM135.303 28.58L134.466 29.128L134.471 29.1347L135.303 28.58ZM134.247 27.884H133.247V28.884H134.247V27.884ZM134.247 27.668V26.668H133.247V27.668H134.247ZM139.071 27.668H140.071V26.668H139.071V27.668ZM139.071 27.884L139.181 28.8779L140.071 28.779V27.884H139.071ZM138.447 28.124L137.739 27.4169V27.4169L138.447 28.124ZM138.327 29.084L137.356 29.3265L137.372 29.3887L137.395 29.4484L138.327 29.084ZM138.615 29.876L137.657 30.1633L137.666 30.1948L137.678 30.2256L138.615 29.876ZM141.087 36.5L140.15 36.8496L141.083 39.3507L142.023 36.8519L141.087 36.5ZM143.343 30.5L144.277 30.856C144.407 30.5151 144.537 30.1663 144.666 29.8097L143.727 29.468L142.787 29.1263C142.66 29.4737 142.534 29.8129 142.408 30.144L143.343 30.5ZM143.727 29.468L144.671 29.7965C144.806 29.4085 144.919 28.9962 144.919 28.628H143.919H142.919C142.919 28.6219 142.918 28.66 142.896 28.7592C142.874 28.8534 142.838 28.9788 142.782 29.1395L143.727 29.468ZM143.919 28.628H144.919C144.919 28.1747 144.76 27.7134 144.372 27.3694C144.018 27.0563 143.579 26.9347 143.192 26.8905L143.079 27.884L142.965 28.8775C143.044 28.8866 143.085 28.8991 143.098 28.9039C143.11 28.9082 143.084 28.9009 143.046 28.8666C143.003 28.8293 142.965 28.7777 142.941 28.7192C142.919 28.6643 142.919 28.6281 142.919 28.628H143.919ZM143.079 27.884H144.079V27.668H143.079H142.079V27.884H143.079ZM143.079 27.668V28.668H146.751V27.668V26.668H143.079V27.668ZM146.751 27.668H145.751V27.884H146.751H147.751V27.668H146.751ZM146.751 27.884L146.637 26.8905C145.633 27.0052 144.943 27.6785 144.512 28.5408L145.407 28.988L146.301 29.4352C146.542 28.9535 146.748 28.8908 146.864 28.8775L146.751 27.884ZM145.407 28.988L144.5 28.5651C144.379 28.8255 144.22 29.1938 144.027 29.6616L144.951 30.044L145.875 30.4264C146.065 29.9662 146.21 29.6305 146.313 29.4109L145.407 28.988ZM144.951 30.044L144.016 29.6871L139.936 40.3671L140.871 40.724L141.805 41.0809L145.885 30.4009L144.951 30.044ZM140.871 40.724L139.937 40.3666C139.451 41.635 139.017 42.4023 138.667 42.7873L139.407 43.46L140.146 44.1327C140.756 43.4617 141.298 42.405 141.805 41.0814L140.871 40.724ZM139.407 43.46L138.663 42.7919C138.17 43.3404 137.517 43.636 136.599 43.636V44.636V45.636C138.016 45.636 139.235 45.1476 140.151 44.1281L139.407 43.46ZM136.599 44.636V43.636C135.978 43.636 135.415 43.4362 134.88 42.998L134.247 43.772L133.613 44.546C134.486 45.2598 135.491 45.636 136.599 45.636V44.636ZM134.247 43.772L135.155 44.1894L136.643 40.9494L135.735 40.532L134.826 40.1147L133.338 43.3547L134.247 43.772ZM135.735 40.532L135.205 41.38L135.397 41.5L135.927 40.652L136.457 39.804L136.265 39.684L135.735 40.532ZM135.927 40.652L134.978 40.3358C134.874 40.6467 134.831 40.9719 134.831 41.3H135.831H136.831C136.831 41.1481 136.851 41.0413 136.875 40.9682L135.927 40.652ZM135.831 41.3H134.831C134.831 41.9371 135.005 42.5383 135.391 43.052L136.191 42.452L136.991 41.852C136.896 41.7257 136.831 41.5589 136.831 41.3H135.831ZM136.191 42.452L135.395 43.058C135.845 43.6488 136.487 43.956 137.223 43.956V42.956V41.956C137.094 41.956 137.048 41.9272 136.986 41.846L136.191 42.452ZM137.223 42.956V43.956C138.318 43.956 139.181 43.4016 139.768 42.4888L138.927 41.948L138.085 41.4072C137.808 41.8384 137.536 41.956 137.223 41.956V42.956ZM138.927 41.948L139.769 42.4864C140.25 41.7337 140.479 40.879 140.479 39.956H139.479H138.479C138.479 40.537 138.339 41.0103 138.084 41.4096L138.927 41.948ZM139.479 39.956H140.479C140.479 39.3078 140.339 38.5861 140.097 37.8109L139.143 38.108L138.188 38.4051C138.395 39.0699 138.479 39.5802 138.479 39.956H139.479ZM139.143 38.108L140.101 37.8239C139.958 37.3405 139.718 36.7017 139.394 35.9234L138.471 36.308L137.547 36.6926C137.863 37.4503 138.071 38.0115 138.184 38.3921L139.143 38.108ZM138.471 36.308L139.399 35.936L136.831 29.528L135.903 29.9L134.974 30.272L137.542 36.68L138.471 36.308ZM135.903 29.9L136.833 29.5323C136.569 28.8662 136.332 28.3218 136.135 28.0253L135.303 28.58L134.471 29.1347C134.529 29.2222 134.692 29.5578 134.973 30.2677L135.903 29.9ZM135.303 28.58L136.139 28.032C135.729 27.4055 135.105 26.884 134.247 26.884V27.884V28.884C134.248 28.884 134.246 28.884 134.243 28.8831C134.24 28.8822 134.246 28.8833 134.26 28.893C134.292 28.9142 134.366 28.9759 134.466 29.128L135.303 28.58ZM134.247 27.884H135.247V27.668H134.247H133.247V27.884H134.247ZM134.247 27.668V28.668H139.071V27.668V26.668H134.247V27.668ZM139.071 27.668H138.071V27.884H139.071H140.071V27.668H139.071ZM139.071 27.884L138.96 26.8901C138.573 26.9331 138.099 27.0569 137.739 27.4169L138.447 28.124L139.154 28.8311C139.099 28.8861 139.055 28.9024 139.058 28.9013C139.059 28.9009 139.069 28.8972 139.09 28.8924C139.111 28.8877 139.141 28.8823 139.181 28.8779L139.071 27.884ZM138.447 28.124L137.739 27.4169C137.374 27.7826 137.279 28.2499 137.279 28.628H138.279H139.279C139.279 28.5963 139.283 28.6094 139.269 28.6502C139.254 28.6959 139.22 28.7649 139.154 28.8311L138.447 28.124ZM138.279 28.628H137.279C137.279 28.8604 137.299 29.0979 137.356 29.3265L138.327 29.084L139.297 28.8415C139.29 28.8141 139.279 28.7476 139.279 28.628H138.279ZM138.327 29.084L137.395 29.4484C137.539 29.8158 137.622 30.0462 137.657 30.1633L138.615 29.876L139.572 29.5887C139.512 29.3858 139.402 29.0882 139.258 28.7196L138.327 29.084ZM138.615 29.876L137.678 30.2256L140.15 36.8496L141.087 36.5L142.023 36.1504L139.551 29.5264L138.615 29.876ZM141.087 36.5L142.023 36.8519L144.279 30.8519L143.343 30.5L142.407 30.1481L140.151 36.1481L141.087 36.5ZM159.207 39.668L158.822 40.5911L159.797 40.9972L160.149 40.0018L159.207 39.668ZM158.703 39.548V38.548H158.675L158.647 38.5495L158.703 39.548ZM158.271 39.572L158.215 38.5735L158.191 38.5749L158.168 38.5773L158.271 39.572ZM157.575 39.644L157.635 40.6422L157.656 40.6409L157.677 40.6387L157.575 39.644ZM155.991 39.74V40.74H156.021L156.051 40.7382L155.991 39.74ZM150.951 38.012L151.597 37.249L151.596 37.248L150.951 38.012ZM150.351 29.06L149.628 28.369L150.351 29.06ZM154.407 27.428L154.477 26.4305L154.442 26.428H154.407V27.428ZM156.111 27.548L156.204 26.5524L156.192 26.5513L156.181 26.5505L156.111 27.548ZM157.647 27.692L157.553 28.6876L157.6 28.692H157.647V27.692ZM158.655 27.428L159.637 27.2429L159.364 25.7913L158.118 26.5843L158.655 27.428ZM159.351 31.124L159.798 32.0184L160.473 31.6808L160.333 30.9389L159.351 31.124ZM159.207 31.196L158.316 31.6502L158.766 32.5342L159.654 32.0904L159.207 31.196ZM157.575 29.276L156.997 30.0925L157.006 30.0989L157.575 29.276ZM152.367 30.068L153.173 30.6587L153.176 30.6554L152.367 30.068ZM151.671 35.228L150.722 35.5442L150.726 35.556L150.73 35.5676L151.671 35.228ZM152.631 36.86L151.866 37.5049L152.631 36.86ZM154.191 38.108L153.725 38.993L153.734 38.9978L154.191 38.108ZM158.511 37.94L159.001 38.8116L159.008 38.8077L159.014 38.8038L158.511 37.94ZM160.263 36.116L160.759 35.2478L159.856 34.7319L159.376 35.6541L160.263 36.116ZM160.431 36.212L161.373 36.5458L161.652 35.7583L160.927 35.3438L160.431 36.212ZM159.207 39.668L159.591 38.7449C159.327 38.6349 159.024 38.548 158.703 38.548V39.548V40.548C158.683 40.548 158.682 40.5454 158.705 40.5508C158.727 40.5562 158.766 40.5677 158.822 40.5911L159.207 39.668ZM158.703 39.548L158.647 38.5495L158.215 38.5735L158.271 39.572L158.326 40.5705L158.758 40.5465L158.703 39.548ZM158.271 39.572L158.168 38.5773L157.472 38.6493L157.575 39.644L157.677 40.6387L158.373 40.5667L158.271 39.572ZM157.575 39.644L157.514 38.6458L155.93 38.7418L155.991 39.74L156.051 40.7382L157.635 40.6422L157.575 39.644ZM155.991 39.74V38.74C154.196 38.74 152.754 38.2292 151.597 37.249L150.951 38.012L150.304 38.775C151.867 40.0988 153.785 40.74 155.991 40.74V39.74ZM150.951 38.012L151.596 37.248C150.396 36.2348 149.791 34.9141 149.791 33.188H148.791H147.791C147.791 35.4619 148.625 37.3572 150.305 38.776L150.951 38.012ZM148.791 33.188H149.791C149.791 31.7518 150.231 30.6326 151.073 29.751L150.351 29.06L149.628 28.369C148.39 29.6634 147.791 31.2962 147.791 33.188H148.791ZM150.351 29.06L151.073 29.751C151.904 28.8823 152.984 28.428 154.407 28.428V27.428V26.428C152.501 26.428 150.877 27.0617 149.628 28.369L150.351 29.06ZM154.407 27.428L154.336 28.4255L156.04 28.5455L156.111 27.548L156.181 26.5505L154.477 26.4305L154.407 27.428ZM156.111 27.548L156.017 28.5436L157.553 28.6876L157.647 27.692L157.74 26.6964L156.204 26.5524L156.111 27.548ZM157.647 27.692V28.692C157.9 28.692 158.154 28.673 158.391 28.6202L158.175 27.644L157.958 26.6678C157.907 26.679 157.809 26.692 157.647 26.692V27.692ZM158.175 27.644L158.391 28.6202C158.685 28.5549 158.955 28.4223 159.191 28.2717L158.655 27.428L158.118 26.5843C158.063 26.6192 158.021 26.641 157.992 26.6541C157.963 26.6672 157.952 26.6691 157.958 26.6678L158.175 27.644ZM158.655 27.428L157.672 27.6131L158.368 31.3091L159.351 31.124L160.333 30.9389L159.637 27.2429L158.655 27.428ZM159.351 31.124L158.903 30.2296L158.759 30.3016L159.207 31.196L159.654 32.0904L159.798 32.0184L159.351 31.124ZM159.207 31.196L160.097 30.7418C159.615 29.7963 158.967 29.0223 158.143 28.4531L157.575 29.276L157.006 30.0989C157.526 30.4577 157.966 30.9637 158.316 31.6502L159.207 31.196ZM157.575 29.276L158.152 28.4596C157.311 27.8647 156.337 27.58 155.271 27.58V28.58V29.58C155.964 29.58 156.526 29.7593 156.997 30.0924L157.575 29.276ZM155.271 28.58V27.58C153.731 27.58 152.464 28.2319 151.557 29.4806L152.367 30.068L153.176 30.6554C153.71 29.9201 154.378 29.58 155.271 29.58V28.58ZM152.367 30.068L151.56 29.4773C150.758 30.5721 150.383 31.8843 150.383 33.356H151.383H152.383C152.383 32.2357 152.663 31.3559 153.173 30.6587L152.367 30.068ZM151.383 33.356H150.383C150.383 34.1241 150.492 34.856 150.722 35.5442L151.671 35.228L152.619 34.9118C152.465 34.448 152.383 33.9319 152.383 33.356H151.383ZM151.671 35.228L150.73 35.5676C150.982 36.265 151.365 36.9109 151.866 37.5049L152.631 36.86L153.395 36.2151C153.032 35.7851 152.775 35.343 152.611 34.8884L151.671 35.228ZM152.631 36.86L151.866 37.5049C152.384 38.1179 153.006 38.6145 153.725 38.9929L154.191 38.108L154.656 37.2231C154.159 36.9615 153.742 36.6261 153.395 36.2151L152.631 36.86ZM154.191 38.108L153.734 38.9978C154.486 39.3832 155.273 39.588 156.087 39.588V38.588V37.588C155.62 37.588 155.143 37.4728 154.647 37.2182L154.191 38.108ZM156.087 38.588V39.588C157.113 39.588 158.089 39.3243 159.001 38.8116L158.511 37.94L158.02 37.0684C157.396 37.4197 156.756 37.588 156.087 37.588V38.588ZM158.511 37.94L159.014 38.8038C159.941 38.2634 160.66 37.518 161.149 36.5779L160.263 36.116L159.376 35.6541C159.065 36.25 158.616 36.7206 158.007 37.0762L158.511 37.94ZM160.263 36.116L159.766 36.9842L159.934 37.0802L160.431 36.212L160.927 35.3438L160.759 35.2478L160.263 36.116ZM160.431 36.212L159.488 35.8782L158.264 39.3342L159.207 39.668L160.149 40.0018L161.373 36.5458L160.431 36.212ZM166.888 23.084H167.888V21.9107L166.729 22.0966L166.888 23.084ZM166.888 30.14H165.888V32.5221L167.588 30.8538L166.888 30.14ZM169.216 28.268L169.724 29.1289L169.726 29.1281L169.216 28.268ZM174.184 28.364L173.361 28.9332L174.184 28.364ZM175.024 38.42L175.967 38.0885L175.963 38.0783L175.024 38.42ZM176.32 39.308H177.32V38.308H176.32V39.308ZM176.32 39.5V40.5H177.32V39.5H176.32ZM170.992 39.5H169.992V40.5H170.992V39.5ZM170.992 39.308L170.861 38.3165L169.992 38.431V39.308H170.992ZM172.192 38.324L171.243 38.0078L172.192 38.324ZM172.192 30.236L173.136 29.9075L173.134 29.901L172.192 30.236ZM169.048 29.636L169.535 30.5089L169.545 30.5035L169.555 30.4979L169.048 29.636ZM167.032 32.18L168.012 32.3761L168.013 32.37L167.032 32.18ZM167.224 38.684L168.067 38.1471L167.224 38.684ZM168.304 39.308H169.304V38.4287L168.431 38.3162L168.304 39.308ZM168.304 39.5V40.5H169.304V39.5H168.304ZM163 39.5H162V40.5H163V39.5ZM163 39.284L162.872 38.2921L162 38.404V39.284H163ZM164.248 38.3L163.308 37.9583L163.307 37.9604L164.248 38.3ZM164.104 24.428L163.271 24.9827V24.9827L164.104 24.428ZM163 23.924H162V24.924H163V23.924ZM163 23.708L162.841 22.7206L162 22.8557V23.708H163ZM166.888 23.084H165.888V30.14H166.888H167.888V23.084H166.888ZM166.888 30.14L167.588 30.8538C168.402 30.0553 169.113 29.4899 169.724 29.1289L169.216 28.268L168.707 27.4071C167.91 27.8781 167.069 28.5607 166.187 29.4262L166.888 30.14ZM169.216 28.268L169.726 29.1281C170.541 28.6446 171.311 28.428 172.048 28.428V27.428V26.428C170.897 26.428 169.778 26.7714 168.705 27.4079L169.216 28.268ZM172.048 27.428V28.428C172.823 28.428 173.172 28.6594 173.361 28.9332L174.184 28.364L175.006 27.7948C174.331 26.8206 173.256 26.428 172.048 26.428V27.428ZM174.184 28.364L173.361 28.9332C173.623 29.3118 173.832 30.0133 173.832 31.196H174.832H175.832C175.832 29.8507 175.608 28.6642 175.006 27.7948L174.184 28.364ZM174.832 31.196H173.832V36.548H174.832H175.832V31.196H174.832ZM174.832 36.548H173.832C173.832 37.4429 173.889 38.2273 174.084 38.7617L175.024 38.42L175.963 38.0783C175.902 37.9087 175.832 37.4451 175.832 36.548H174.832ZM175.024 38.42L174.08 38.7515C174.24 39.2072 174.514 39.6205 174.938 39.9109C175.358 40.1988 175.841 40.308 176.32 40.308V39.308V38.308C176.142 38.308 176.081 38.2692 176.069 38.2611C176.061 38.2555 176.015 38.2248 175.967 38.0885L175.024 38.42ZM176.32 39.308H175.32V39.5H176.32H177.32V39.308H176.32ZM176.32 39.5V38.5H170.992V39.5V40.5H176.32V39.5ZM170.992 39.5H171.992V39.308H170.992H169.992V39.5H170.992ZM170.992 39.308L171.122 40.2995C171.576 40.2397 172.012 40.0779 172.382 39.7753C172.751 39.4722 172.995 39.0756 173.14 38.6402L172.192 38.324L171.243 38.0078C171.196 38.1484 171.144 38.2038 171.113 38.2287C171.083 38.2541 171.015 38.2963 170.861 38.3165L170.992 39.308ZM172.192 38.324L173.14 38.6402C173.322 38.0961 173.384 37.3613 173.384 36.524H172.384H171.384C171.384 37.3187 171.317 37.7839 171.243 38.0078L172.192 38.324ZM172.384 36.524H173.384V32.252H172.384H171.384V36.524H172.384ZM172.384 32.252H173.384C173.384 31.283 173.326 30.4537 173.136 29.9075L172.192 30.236L171.247 30.5645C171.313 30.7543 171.384 31.269 171.384 32.252H172.384ZM172.192 30.236L173.134 29.901C172.949 29.3814 172.638 28.9212 172.167 28.5998C171.699 28.281 171.158 28.156 170.608 28.156V29.156V30.156C170.857 30.156 170.98 30.211 171.04 30.2522C171.097 30.2908 171.178 30.3706 171.249 30.571L172.192 30.236ZM170.608 29.156V28.156C169.891 28.156 169.197 28.3879 168.54 28.7741L169.048 29.636L169.555 30.4979C169.986 30.2441 170.332 30.156 170.608 30.156V29.156ZM169.048 29.636L168.56 28.7631C167.911 29.1255 167.358 29.5849 166.917 30.1462L167.704 30.764L168.49 31.3818C168.753 31.0471 169.096 30.7545 169.535 30.5089L169.048 29.636ZM167.704 30.764L166.917 30.1462C166.48 30.7031 166.18 31.3189 166.05 31.99L167.032 32.18L168.013 32.37C168.075 32.0491 168.223 31.7209 168.49 31.3818L167.704 30.764ZM167.032 32.18L166.051 31.9839C165.937 32.5531 165.888 33.2412 165.888 34.028H166.888H167.888C167.888 33.3108 167.934 32.7669 168.012 32.3761L167.032 32.18ZM166.888 34.028H165.888V36.524H166.888H167.888V34.028H166.888ZM166.888 36.524H165.888C165.888 37.097 165.917 37.6046 165.983 38.0337C166.047 38.4433 166.158 38.8721 166.38 39.2209L167.224 38.684L168.067 38.1471C168.071 38.1537 168.055 38.129 168.031 38.0519C168.007 37.977 167.982 37.8707 167.96 37.7263C167.914 37.4354 167.888 37.039 167.888 36.524H166.888ZM167.224 38.684L166.38 39.2209C166.795 39.8733 167.45 40.2061 168.176 40.2998L168.304 39.308L168.431 38.3162C168.165 38.2819 168.1 38.1987 168.067 38.1471L167.224 38.684ZM168.304 39.308H167.304V39.5H168.304H169.304V39.308H168.304ZM168.304 39.5V38.5H163V39.5V40.5H168.304V39.5ZM163 39.5H164V39.284H163H162V39.5H163ZM163 39.284L163.127 40.2759C163.584 40.2172 164.024 40.0589 164.399 39.7633C164.775 39.4665 165.031 39.0753 165.188 38.6396L164.248 38.3L163.307 37.9604C163.256 38.1007 163.2 38.1615 163.16 38.1927C163.119 38.2251 163.039 38.2708 162.872 38.2921L163 39.284ZM164.248 38.3L165.187 38.6417C165.38 38.1115 165.44 37.3652 165.44 36.524H164.44H163.44C163.44 37.3468 163.371 37.7845 163.308 37.9583L164.248 38.3ZM164.44 36.524H165.44V26.66H164.44H163.44V36.524H164.44ZM164.44 26.66H165.44C165.44 26.0574 165.411 25.529 165.344 25.0891C165.282 24.6762 165.172 24.2282 164.936 23.8733L164.104 24.428L163.271 24.9827C163.259 24.9638 163.317 25.0558 163.367 25.3869C163.412 25.691 163.44 26.1106 163.44 26.66H164.44ZM164.104 24.428L164.936 23.8733C164.476 23.1844 163.745 22.924 163 22.924V23.924V24.924C163.149 24.924 163.22 24.9488 163.244 24.9597C163.259 24.9666 163.263 24.9698 163.271 24.9827L164.104 24.428ZM163 23.924H164V23.708H163H162V23.924H163ZM163 23.708L163.158 24.6954L167.046 24.0714L166.888 23.084L166.729 22.0966L162.841 22.7206L163 23.708ZM186.138 24.836L187.078 24.4943L187.077 24.4903L186.138 24.836ZM184.77 23.924H183.77V24.924H184.77V23.924ZM184.77 23.708V22.708H183.77V23.708H184.77ZM190.53 23.708H191.53V22.708H190.53V23.708ZM190.53 23.924L190.715 24.9069L191.53 24.7539V23.924H190.53ZM189.354 24.596L188.563 23.9846L188.554 23.9961L188.546 24.0078L189.354 24.596ZM188.754 36.62L187.799 36.3236L187.799 36.3243L188.754 36.62ZM187.506 38.396L186.872 37.6229L186.871 37.6241L187.506 38.396ZM185.61 39.452L185.927 40.4007L185.936 40.3975L185.945 40.3942L185.61 39.452ZM180.45 39.14L180.009 40.0375L180.022 40.0434L180.45 39.14ZM177.978 37.244L177.124 36.7242L176.742 37.3525L177.228 37.9046L177.978 37.244ZM180.402 33.26L180.808 32.3462L180.005 31.9891L179.548 32.7402L180.402 33.26ZM180.618 33.356L181.585 33.6119L181.803 32.7882L181.024 32.4422L180.618 33.356ZM180.378 34.316L181.359 34.5121L181.362 34.4963L181.365 34.4804L180.378 34.316ZM181.17 37.628L180.436 38.307L180.445 38.3166L180.454 38.3259L181.17 37.628ZM185.586 37.652L184.811 37.0199L185.586 37.652ZM186.33 26.852H187.33C187.33 25.8751 187.274 25.034 187.078 24.4943L186.138 24.836L185.199 25.1777C185.258 25.342 185.33 25.8449 185.33 26.852H186.33ZM186.138 24.836L187.077 24.4903C186.905 24.0249 186.618 23.6096 186.183 23.3199C185.753 23.0335 185.261 22.924 184.77 22.924V23.924V24.924C184.967 24.924 185.047 24.9665 185.074 24.984C185.095 24.9984 185.147 25.0391 185.2 25.1817L186.138 24.836ZM184.77 23.924H185.77V23.708H184.77H183.77V23.924H184.77ZM184.77 23.708V24.708H190.53V23.708V22.708H184.77V23.708ZM190.53 23.708H189.53V23.924H190.53H191.53V23.708H190.53ZM190.53 23.924L190.346 22.9411C189.637 23.0741 189.01 23.406 188.563 23.9846L189.354 24.596L190.146 25.2074C190.243 25.082 190.4 24.9659 190.715 24.9069L190.53 23.924ZM189.354 24.596L188.546 24.0078C188.291 24.3575 188.159 24.7874 188.083 25.2011C188.004 25.6294 187.97 26.1288 187.97 26.684H188.97H189.97C189.97 26.1992 190.001 25.8305 190.05 25.5629C190.074 25.4304 190.101 25.3347 190.125 25.2685C190.15 25.2014 190.166 25.1796 190.163 25.1842L189.354 24.596ZM188.97 26.684H187.97V34.484H188.97H189.97V26.684H188.97ZM188.97 34.484H187.97C187.97 35.4214 187.897 36.0091 187.799 36.3236L188.754 36.62L189.709 36.9164C189.9 36.3029 189.97 35.4666 189.97 34.484H188.97ZM188.754 36.62L187.799 36.3243C187.657 36.7827 187.368 37.2164 186.872 37.6229L187.506 38.396L188.141 39.1691C188.893 38.5516 189.435 37.8013 189.71 36.9157L188.754 36.62ZM187.506 38.396L186.871 37.6241C186.423 37.9923 185.895 38.2894 185.275 38.5098L185.61 39.452L185.945 40.3942C186.765 40.1026 187.501 39.6957 188.142 39.1679L187.506 38.396ZM185.61 39.452L185.294 38.5033C184.675 38.7096 184.046 38.812 183.402 38.812V39.812V40.812C184.263 40.812 185.106 40.6744 185.927 40.4007L185.61 39.452ZM183.402 39.812V38.812C182.53 38.812 181.692 38.6223 180.879 38.2366L180.45 39.14L180.022 40.0434C181.097 40.5537 182.227 40.812 183.402 40.812V39.812ZM180.45 39.14L180.891 38.2426C180.067 37.8372 179.348 37.2862 178.729 36.5834L177.978 37.244L177.228 37.9046C178.017 38.8018 178.946 39.5148 180.009 40.0374L180.45 39.14ZM177.978 37.244L178.833 37.7638L181.257 33.7798L180.402 33.26L179.548 32.7402L177.124 36.7242L177.978 37.244ZM180.402 33.26L179.996 34.1738L180.212 34.2698L180.618 33.356L181.024 32.4422L180.808 32.3462L180.402 33.26ZM180.618 33.356L179.652 33.1001C179.515 33.6167 179.418 33.9967 179.392 34.1516L180.378 34.316L181.365 34.4804C181.363 34.489 181.365 34.4766 181.377 34.4269C181.387 34.383 181.401 34.3234 181.42 34.2465C181.459 34.093 181.514 33.8821 181.585 33.6119L180.618 33.356ZM180.378 34.316L179.398 34.1199C179.32 34.5093 179.282 34.9113 179.282 35.324H180.282H181.282C181.282 35.0327 181.309 34.7627 181.359 34.5121L180.378 34.316ZM180.282 35.324H179.282C179.282 36.464 179.668 37.4766 180.436 38.307L181.17 37.628L181.904 36.949C181.489 36.4994 181.282 35.976 181.282 35.324H180.282ZM181.17 37.628L180.454 38.3259C181.256 39.1491 182.269 39.564 183.426 39.564V38.564V37.564C182.791 37.564 182.3 37.3549 181.887 36.9301L181.17 37.628ZM183.426 38.564V39.564C184.603 39.564 185.636 39.1726 186.361 38.2841L185.586 37.652L184.811 37.0199C184.544 37.3474 184.137 37.564 183.426 37.564V38.564ZM185.586 37.652L186.361 38.2841C187.05 37.4396 187.33 36.3382 187.33 35.108H186.33H185.33C185.33 36.0538 185.114 36.6484 184.811 37.0199L185.586 37.652ZM186.33 35.108H187.33V26.852H186.33H185.33V35.108H186.33ZM202.663 39.5L201.863 40.1L202.163 40.5H202.663V39.5ZM202.063 38.468L201.127 38.8191L201.136 38.8432L201.146 38.8667L202.063 38.468ZM201.847 37.34H202.847L200.971 36.8574L201.847 37.34ZM199.807 39.164L200.226 40.072L200.229 40.0706L199.807 39.164ZM194.311 38.996L193.726 39.8072L193.735 39.8135L194.311 38.996ZM196.423 33.116L196.828 34.0304L196.831 34.029L196.423 33.116ZM201.655 31.628L201.888 32.6004L202.655 32.4166V31.628H201.655ZM196.159 29.612L196.685 30.4627L196.696 30.4557L196.159 29.612ZM194.119 32.036L193.124 31.9389L195.032 32.4447L194.119 32.036ZM194.503 28.1L195.134 27.3239L193.689 26.1498L193.508 28.0029L194.503 28.1ZM196.039 28.22L195.707 27.2766L195.697 27.2802L196.039 28.22ZM198.151 27.596L197.955 26.6154L197.949 26.6165L198.151 27.596ZM204.463 38.036L205.407 37.7066L205.404 37.6973L204.463 38.036ZM205.951 39.284H206.951V38.4573L206.139 38.3018L205.951 39.284ZM205.951 39.5V40.5H206.951V39.5H205.951ZM201.655 32.612H202.655V31.373L201.444 31.6345L201.655 32.612ZM198.127 33.836L197.65 32.957L197.648 32.9581L198.127 33.836ZM196.567 37.916L195.911 38.6706L196.567 37.916ZM200.959 36.692L200.078 36.2189L200.077 36.2201L200.959 36.692ZM202.663 39.5L203.463 38.9C203.27 38.6425 203.109 38.3661 202.98 38.0693L202.063 38.468L201.146 38.8667C201.337 39.3059 201.576 39.7175 201.863 40.1L202.663 39.5ZM202.063 38.468L202.999 38.1169C202.893 37.8324 202.847 37.5751 202.847 37.34H201.847H200.847C200.847 37.8409 200.945 38.3356 201.127 38.8191L202.063 38.468ZM201.847 37.34L200.971 36.8574C200.656 37.4295 200.149 37.9016 199.385 38.2574L199.807 39.164L200.229 40.0706C201.321 39.5624 202.174 38.8185 202.723 37.8226L201.847 37.34ZM199.807 39.164L199.388 38.256C198.698 38.5745 197.93 38.74 197.071 38.74V39.74V40.74C198.196 40.74 199.252 40.5215 200.226 40.072L199.807 39.164ZM197.071 39.74V38.74C196.076 38.74 195.376 38.5231 194.887 38.1785L194.311 38.996L193.735 39.8135C194.654 40.4609 195.794 40.74 197.071 40.74V39.74ZM194.311 38.996L194.896 38.1848C194.48 37.885 194.279 37.5049 194.279 36.932H193.279H192.279C192.279 38.1191 192.766 39.115 193.726 39.8072L194.311 38.996ZM193.279 36.932H194.279C194.279 35.8744 194.917 34.8765 196.828 34.0304L196.423 33.116L196.018 32.2016C193.737 33.2115 192.279 34.7576 192.279 36.932H193.279ZM196.423 33.116L196.831 34.029C197.482 33.7383 199.128 33.2622 201.888 32.6004L201.655 31.628L201.422 30.6556C198.71 31.3058 196.868 31.8217 196.015 32.203L196.423 33.116ZM201.655 31.628H202.655V31.172H201.655H200.655V31.628H201.655ZM201.655 31.172H202.655C202.655 30.2045 202.477 29.2353 201.834 28.5929L201.127 29.3L200.42 30.0071C200.482 30.0687 200.655 30.3475 200.655 31.172H201.655ZM201.127 29.3L201.834 28.5929C201.189 27.9481 200.208 27.772 199.231 27.772V28.772V29.772C200.078 29.772 200.361 29.9479 200.42 30.0071L201.127 29.3ZM199.231 28.772V27.772C197.896 27.772 196.681 28.0943 195.622 28.7683L196.159 29.612L196.696 30.4557C197.397 30.0097 198.23 29.772 199.231 29.772V28.772ZM196.159 29.612L195.633 28.7614C194.561 29.4245 193.757 30.3982 193.206 31.6273L194.119 32.036L195.032 32.4447C195.441 31.5298 195.998 30.8875 196.685 30.4626L196.159 29.612ZM194.119 32.036L195.114 32.1331L195.498 28.1971L194.503 28.1L193.508 28.0029L193.124 31.9389L194.119 32.036ZM194.503 28.1L193.872 28.8761C194.241 29.1751 194.705 29.412 195.247 29.412V28.412V27.412C195.275 27.412 195.284 27.4186 195.268 27.4118C195.249 27.4039 195.204 27.3809 195.134 27.3239L194.503 28.1ZM195.247 28.412V29.412C195.61 29.412 196.014 29.293 196.381 29.1598L196.039 28.22L195.697 27.2802C195.544 27.3359 195.427 27.3714 195.341 27.3921C195.25 27.4144 195.225 27.412 195.247 27.412V28.412ZM196.039 28.22L196.371 29.1633C197.216 28.866 197.872 28.6744 198.353 28.5755L198.151 27.596L197.949 26.6165C197.342 26.7416 196.59 26.966 195.707 27.2767L196.039 28.22ZM198.151 27.596L198.347 28.5766C198.823 28.4815 199.433 28.428 200.191 28.428V27.428V26.428C199.349 26.428 198.599 26.4865 197.955 26.6154L198.151 27.596ZM200.191 27.428V28.428C201.643 28.428 202.352 28.7227 202.652 29.0231L203.359 28.316L204.066 27.6089C203.183 26.7253 201.78 26.428 200.191 26.428V27.428ZM203.359 28.316L202.652 29.0231C202.954 29.325 203.247 30.0281 203.247 31.46H204.247H205.247C205.247 29.8839 204.948 28.491 204.066 27.6089L203.359 28.316ZM204.247 31.46H203.247V35.972H204.247H205.247V31.46H204.247ZM204.247 35.972H203.247C203.247 36.9526 203.314 37.796 203.522 38.3747L204.463 38.036L205.404 37.6973C205.324 37.476 205.247 36.9434 205.247 35.972H204.247ZM204.463 38.036L203.519 38.3654C203.884 39.4108 204.682 40.0592 205.763 40.2662L205.951 39.284L206.139 38.3018C205.716 38.2208 205.523 38.0372 205.407 37.7066L204.463 38.036ZM205.951 39.284H204.951V39.5H205.951H206.951V39.284H205.951ZM205.951 39.5V38.5H202.663V39.5V40.5H205.951V39.5ZM201.655 32.612L201.444 31.6345C199.973 31.9522 198.701 32.3873 197.65 32.957L198.127 33.836L198.604 34.715C199.441 34.2607 200.521 33.8798 201.866 33.5895L201.655 32.612ZM198.127 33.836L197.648 32.9581C196.087 33.8094 195.015 35.0075 195.015 36.62H196.015H197.015C197.015 36.0565 197.351 35.3986 198.606 34.7139L198.127 33.836ZM196.015 36.62H195.015C195.015 37.416 195.298 38.1374 195.911 38.6706L196.567 37.916L197.223 37.1614C197.1 37.0546 197.015 36.912 197.015 36.62H196.015ZM196.567 37.916L195.911 38.6706C196.488 39.1721 197.196 39.396 197.959 39.396V38.396V37.396C197.602 37.396 197.382 37.2999 197.223 37.1614L196.567 37.916ZM197.959 38.396V39.396C198.792 39.396 199.568 39.2253 200.247 38.8395C200.93 38.4513 201.459 37.8777 201.841 37.1639L200.959 36.692L200.077 36.2201C199.851 36.6423 199.576 36.9207 199.259 37.1005C198.938 37.2827 198.518 37.396 197.959 37.396V38.396ZM200.959 36.692L201.84 37.1651C202.411 36.1021 202.655 34.7592 202.655 33.212H201.655H200.655C200.655 34.5768 200.435 35.5539 200.078 36.2189L200.959 36.692ZM201.655 33.212H202.655V32.612H201.655H200.655V33.212H201.655ZM211.557 38.276L210.735 37.7055L209.724 39.1611L211.493 39.274L211.557 38.276ZM213.813 38.42L213.749 39.418L213.781 39.42H213.813V38.42ZM216.765 37.844L217.197 38.7455L217.2 38.7443L216.765 37.844ZM218.757 35.66L218.999 34.6899L218.131 34.4727L217.819 35.3122L218.757 35.66ZM218.949 35.708L219.89 36.0443L220.262 35.0054L219.191 34.7379L218.949 35.708ZM217.509 39.74L216.994 40.5975L218.04 41.2251L218.45 40.0763L217.509 39.74ZM216.861 39.548L216.978 38.5548L216.861 39.548ZM207.909 39.5L207.085 38.933L206.006 40.5H207.909V39.5ZM215.277 28.796L216.1 29.363L217.135 27.8595L215.311 27.7966L215.277 28.796ZM213.885 28.748L213.919 27.7486L213.902 27.748H213.885V28.748ZM211.125 29.156L211.474 30.093L211.478 30.0915L211.125 29.156ZM209.181 31.004L208.938 31.9741L209.785 32.1859L210.109 31.3754L209.181 31.004ZM208.989 30.956L208.012 30.7438L207.806 31.6911L208.746 31.9261L208.989 30.956ZM209.781 27.308L210.555 26.6748L209.243 25.0716L208.804 27.0958L209.781 27.308ZM210.261 27.62L210.44 26.6361V26.6361L210.261 27.62ZM218.925 27.668L219.746 28.2385L220.837 26.668H218.925V27.668ZM211.557 38.276L211.493 39.274L213.749 39.418L213.813 38.42L213.876 37.422L211.62 37.278L211.557 38.276ZM213.813 38.42V39.42C215.085 39.42 216.227 39.2115 217.197 38.7455L216.765 37.844L216.332 36.9425C215.703 37.2445 214.876 37.42 213.813 37.42V38.42ZM216.765 37.844L217.2 38.7443C218.39 38.1689 219.236 37.244 219.694 36.0078L218.757 35.66L217.819 35.3122C217.542 36.06 217.059 36.5911 216.33 36.9437L216.765 37.844ZM218.757 35.66L218.514 36.6301L218.706 36.6781L218.949 35.708L219.191 34.7379L218.999 34.6899L218.757 35.66ZM218.949 35.708L218.007 35.3717L216.567 39.4037L217.509 39.74L218.45 40.0763L219.89 36.0443L218.949 35.708ZM217.509 39.74L218.023 38.8825C217.699 38.6878 217.33 38.5963 216.978 38.5548L216.861 39.548L216.744 40.5412C216.835 40.5519 216.9 40.566 216.943 40.5788C216.986 40.5916 217 40.6007 216.994 40.5975L217.509 39.74ZM216.861 39.548L216.978 38.5548C216.667 38.5183 216.356 38.5 216.045 38.5V39.5V40.5C216.277 40.5 216.51 40.5137 216.744 40.5412L216.861 39.548ZM216.045 39.5V38.5H215.589V39.5V40.5H216.045V39.5ZM215.589 39.5V38.5H207.909V39.5V40.5H215.589V39.5ZM207.909 39.5L208.732 40.067L216.1 29.363L215.277 28.796L214.453 28.229L207.085 38.933L207.909 39.5ZM215.277 28.796L215.311 27.7966L213.919 27.7486L213.885 28.748L213.85 29.7474L215.242 29.7954L215.277 28.796ZM213.885 28.748V27.748C212.694 27.748 211.643 27.8912 210.771 28.2205L211.125 29.156L211.478 30.0915C212.046 29.8768 212.835 29.748 213.885 29.748V28.748ZM211.125 29.156L210.775 28.219C209.586 28.6625 208.716 29.4729 208.252 30.6326L209.181 31.004L210.109 31.3754C210.349 30.7751 210.775 30.3535 211.474 30.093L211.125 29.156ZM209.181 31.004L209.423 30.0339L209.231 29.9859L208.989 30.956L208.746 31.9261L208.938 31.9741L209.181 31.004ZM208.989 30.956L209.966 31.1682L210.758 27.5202L209.781 27.308L208.804 27.0958L208.012 30.7438L208.989 30.956ZM209.781 27.308L209.007 27.9412C209.259 28.2499 209.614 28.5189 210.082 28.6039L210.261 27.62L210.44 26.6361C210.491 26.6454 210.53 26.6642 210.554 26.6796C210.575 26.6933 210.574 26.6978 210.555 26.6748L209.781 27.308ZM210.261 27.62L210.082 28.6039C210.354 28.6533 210.72 28.668 211.125 28.668V27.668V26.668C210.73 26.668 210.52 26.6507 210.44 26.6361L210.261 27.62ZM211.125 27.668V28.668H218.925V27.668V26.668H211.125V27.668ZM218.925 27.668L218.103 27.0975L210.735 37.7055L211.557 38.276L212.378 38.8465L219.746 28.2385L218.925 27.668ZM224.997 38.276L224.175 37.7055L223.164 39.1611L224.933 39.274L224.997 38.276ZM227.253 38.42L227.189 39.418L227.221 39.42H227.253V38.42ZM230.205 37.844L230.637 38.7455L230.64 38.7443L230.205 37.844ZM232.197 35.66L232.439 34.6899L231.571 34.4727L231.259 35.3122L232.197 35.66ZM232.389 35.708L233.33 36.0443L233.702 35.0054L232.631 34.7379L232.389 35.708ZM230.949 39.74L230.434 40.5975L231.48 41.2251L231.89 40.0763L230.949 39.74ZM230.301 39.548L230.418 38.5548L230.301 39.548ZM221.349 39.5L220.525 38.933L219.446 40.5H221.349V39.5ZM228.717 28.796L229.54 29.363L230.575 27.8595L228.751 27.7966L228.717 28.796ZM227.325 28.748L227.359 27.7486L227.342 27.748H227.325V28.748ZM224.565 29.156L224.914 30.093L224.918 30.0915L224.565 29.156ZM222.621 31.004L222.378 31.9741L223.225 32.1859L223.549 31.3754L222.621 31.004ZM222.429 30.956L221.452 30.7438L221.246 31.6911L222.186 31.9261L222.429 30.956ZM223.221 27.308L223.995 26.6748L222.683 25.0716L222.244 27.0958L223.221 27.308ZM223.701 27.62L223.88 26.6361V26.6361L223.701 27.62ZM232.365 27.668L233.186 28.2385L234.277 26.668H232.365V27.668ZM224.997 38.276L224.933 39.274L227.189 39.418L227.253 38.42L227.316 37.422L225.06 37.278L224.997 38.276ZM227.253 38.42V39.42C228.525 39.42 229.667 39.2115 230.637 38.7455L230.205 37.844L229.772 36.9425C229.143 37.2445 228.316 37.42 227.253 37.42V38.42ZM230.205 37.844L230.64 38.7443C231.83 38.1689 232.676 37.244 233.134 36.0078L232.197 35.66L231.259 35.3122C230.982 36.06 230.499 36.5911 229.77 36.9437L230.205 37.844ZM232.197 35.66L231.954 36.6301L232.146 36.6781L232.389 35.708L232.631 34.7379L232.439 34.6899L232.197 35.66ZM232.389 35.708L231.447 35.3717L230.007 39.4037L230.949 39.74L231.89 40.0763L233.33 36.0443L232.389 35.708ZM230.949 39.74L231.463 38.8825C231.139 38.6878 230.77 38.5963 230.418 38.5548L230.301 39.548L230.184 40.5412C230.275 40.5519 230.34 40.566 230.383 40.5788C230.426 40.5916 230.44 40.6007 230.434 40.5975L230.949 39.74ZM230.301 39.548L230.418 38.5548C230.107 38.5183 229.796 38.5 229.485 38.5V39.5V40.5C229.717 40.5 229.95 40.5137 230.184 40.5412L230.301 39.548ZM229.485 39.5V38.5H229.029V39.5V40.5H229.485V39.5ZM229.029 39.5V38.5H221.349V39.5V40.5H229.029V39.5ZM221.349 39.5L222.172 40.067L229.54 29.363L228.717 28.796L227.893 28.229L220.525 38.933L221.349 39.5ZM228.717 28.796L228.751 27.7966L227.359 27.7486L227.325 28.748L227.29 29.7474L228.682 29.7954L228.717 28.796ZM227.325 28.748V27.748C226.134 27.748 225.083 27.8912 224.211 28.2205L224.565 29.156L224.918 30.0915C225.486 29.8768 226.275 29.748 227.325 29.748V28.748ZM224.565 29.156L224.215 28.219C223.026 28.6625 222.156 29.4729 221.692 30.6326L222.621 31.004L223.549 31.3754C223.789 30.7751 224.215 30.3535 224.914 30.093L224.565 29.156ZM222.621 31.004L222.863 30.0339L222.671 29.9859L222.429 30.956L222.186 31.9261L222.378 31.9741L222.621 31.004ZM222.429 30.956L223.406 31.1682L224.198 27.5202L223.221 27.308L222.244 27.0958L221.452 30.7438L222.429 30.956ZM223.221 27.308L222.447 27.9412C222.699 28.2499 223.054 28.5189 223.522 28.6039L223.701 27.62L223.88 26.6361C223.931 26.6454 223.97 26.6642 223.994 26.6796C224.015 26.6933 224.014 26.6978 223.995 26.6748L223.221 27.308ZM223.701 27.62L223.522 28.6039C223.794 28.6533 224.16 28.668 224.565 28.668V27.668V26.668C224.17 26.668 223.96 26.6507 223.88 26.6361L223.701 27.62ZM224.565 27.668V28.668H232.365V27.668V26.668H224.565V27.668ZM232.365 27.668L231.543 27.0975L224.175 37.7055L224.997 38.276L225.818 38.8465L233.186 28.2385L232.365 27.668Z" fill="#00626D" mask="url(#path-4-outside-1_17342_1242)"/>
</g>
<defs>
<filter id="filter0_dddd_17342_1242" x="28.8877" y="0.910645" width="234.39" height="73.8452" filterUnits="userSpaceOnUse" color-interpolation-filters="sRGB">
<feFlood flood-opacity="0" result="BackgroundImageFix"/>
<feColorMatrix in="SourceAlpha" type="matrix" values="0 0 0 0 0 0 0 0 0 0 0 0 0 0 0 0 0 0 127 0" result="hardAlpha"/>
<feOffset/>
<feGaussianBlur stdDeviation="5"/>
<feComposite in2="hardAlpha" operator="out"/>
<feColorMatrix type="matrix" values="0 0 0 0 0.346004 0 0 0 0 0.171023 0 0 0 0 0.426401 0 0 0 1 0"/>
<feBlend mode="normal" in2="BackgroundImageFix" result="effect1_dropShadow_17342_1242"/>
<feColorMatrix in="SourceAlpha" type="matrix" values="0 0 0 0 0 0 0 0 0 0 0 0 0 0 0 0 0 0 127 0" result="hardAlpha"/>
<feOffset dx="4" dy="4"/>
<feGaussianBlur stdDeviation="12.5"/>
<feComposite in2="hardAlpha" operator="out"/>
<feColorMatrix type="matrix" values="0 0 0 0 0.244739 0 0 0 0 0.133473 0 0 0 0 0.295861 0 0 0 0.48 0"/>
<feBlend mode="normal" in2="effect1_dropShadow_17342_1242" result="effect2_dropShadow_17342_1242"/>
<feColorMatrix in="SourceAlpha" type="matrix" values="0 0 0 0 0 0 0 0 0 0 0 0 0 0 0 0 0 0 127 0" result="hardAlpha"/>
<feOffset dx="1" dy="1"/>
<feComposite in2="hardAlpha" operator="out"/>
<feColorMatrix type="matrix" values="0 0 0 0 0 0 0 0 0 0.196078 0 0 0 0 0.227451 0 0 0 1 0"/>
<feBlend mode="normal" in2="effect2_dropShadow_17342_1242" result="effect3_dropShadow_17342_1242"/>
<feColorMatrix in="SourceAlpha" type="matrix" values="0 0 0 0 0 0 0 0 0 0 0 0 0 0 0 0 0 0 127 0" result="hardAlpha"/>
<feOffset dx="2" dy="2"/>
<feComposite in2="hardAlpha" operator="out"/>
<feColorMatrix type="matrix" values="0 0 0 0 0 0 0 0 0 0.196078 0 0 0 0 0.227451 0 0 0 1 0"/>
<feBlend mode="normal" in2="effect3_dropShadow_17342_1242" result="effect4_dropShadow_17342_1242"/>
<feBlend mode="normal" in="SourceGraphic" in2="effect4_dropShadow_17342_1242" result="shape"/>
</filter>
</defs>
</svg>
