<svg width="236" height="75" viewBox="0 0 236 75" fill="none" xmlns="http://www.w3.org/2000/svg">
<g filter="url(#filter0_dddd_17342_1247)">
<mask id="path-1-outside-1_17342_1247" maskUnits="userSpaceOnUse" x="21" y="21.5" width="186" height="25" fill="black">
<rect fill="white" x="21" y="21.5" width="186" height="25"/>
<path d="M31.696 23.708C32.864 23.708 33.736 23.86 34.312 24.164C35.096 24.58 35.488 25.324 35.488 26.396C35.488 27.404 34.952 28.348 33.88 29.228C33.032 29.932 31.872 30.572 30.4 31.148C29.456 31.516 28.352 31.876 27.088 32.228V36.356C27.088 37.284 27.152 37.924 27.28 38.276C27.504 38.884 27.96 39.22 28.648 39.284V39.5H22.888V39.284C23.56 39.188 24.008 38.868 24.232 38.324C24.376 37.972 24.448 37.372 24.448 36.524V26.852C24.448 25.94 24.384 25.308 24.256 24.956C24.032 24.348 23.576 24.004 22.888 23.924V23.708H31.696ZM27.088 31.076C28.592 30.596 29.768 30.108 30.616 29.612C32.072 28.764 32.8 27.82 32.8 26.78C32.8 26.028 32.504 25.516 31.912 25.244C31.336 24.956 30.48 24.812 29.344 24.812C28.912 24.812 28.488 24.86 28.072 24.956C27.656 25.052 27.384 25.228 27.256 25.484C27.192 25.628 27.144 25.852 27.112 26.156C27.096 26.444 27.088 26.764 27.088 27.116V31.076ZM38.9577 30.932C38.9577 29.86 38.8457 29.148 38.6217 28.796C38.3977 28.444 38.0297 28.244 37.5177 28.196V27.98L40.8297 27.668C41.1977 28.452 41.3817 29.332 41.3817 30.308C41.7177 29.524 42.2777 28.852 43.0617 28.292C43.8457 27.716 44.6457 27.428 45.4617 27.428L46.2777 27.572L45.7497 29.972C45.5257 29.812 45.2857 29.692 45.0297 29.612C44.7897 29.516 44.5337 29.468 44.2617 29.468C43.1897 29.468 42.4217 29.956 41.9577 30.932C41.5897 31.7 41.4057 32.772 41.4057 34.148V36.068C41.4057 37.236 41.4617 37.988 41.5737 38.324C41.7497 38.852 42.1737 39.172 42.8457 39.284V39.5H37.5177V39.284C38.0137 39.236 38.3737 39.036 38.5977 38.684C38.8377 38.316 38.9577 37.604 38.9577 36.548V30.932ZM48.1971 33.668C48.1971 31.78 48.8291 30.268 50.0931 29.132C51.3571 27.996 52.9491 27.428 54.8691 27.428C56.7731 27.428 58.3251 27.964 59.5251 29.036C60.7251 30.092 61.3251 31.556 61.3251 33.428C61.3251 35.348 60.6931 36.884 59.4291 38.036C58.1811 39.172 56.5811 39.74 54.6291 39.74C52.7571 39.74 51.2291 39.204 50.0451 38.132C48.8131 37.012 48.1971 35.524 48.1971 33.668ZM50.9331 33.188C50.9331 34.612 51.2211 35.812 51.7971 36.788C52.5011 37.988 53.5171 38.588 54.8451 38.588C55.9811 38.588 56.9011 38.092 57.6051 37.1C58.2611 36.188 58.5891 35.076 58.5891 33.764C58.5891 32.388 58.3011 31.228 57.7251 30.284C57.0371 29.148 56.0371 28.58 54.7251 28.58C53.4611 28.58 52.4931 29.044 51.8211 29.972C51.2291 30.804 50.9331 31.876 50.9331 33.188ZM76.3279 27.668V27.884C75.8639 27.884 75.5039 28.012 75.2479 28.268C75.0079 28.508 74.8879 29.036 74.8879 29.852V30.62V36.932C74.8879 37.444 74.9199 37.796 74.9839 37.988C75.0479 38.164 75.2479 38.42 75.5839 38.756C75.9359 39.092 76.1919 39.396 76.3519 39.668C76.5279 39.956 76.6159 40.324 76.6159 40.772C76.6159 41.988 75.9519 42.972 74.6239 43.724C73.3919 44.412 71.9039 44.756 70.1599 44.756C68.9439 44.756 67.8239 44.588 66.7999 44.252C65.6319 43.868 64.6639 43.284 63.8959 42.5L66.5839 39.788L66.7039 39.932C66.5919 40.108 66.5039 40.276 66.4399 40.436C66.3919 40.596 66.3679 40.78 66.3679 40.988C66.3679 41.788 66.7199 42.436 67.4239 42.932C68.1279 43.428 69.0479 43.676 70.1839 43.676C71.3199 43.676 72.2479 43.436 72.9679 42.956C73.7039 42.492 74.0719 41.892 74.0719 41.156C74.0719 40.452 73.8079 39.98 73.2799 39.74C72.9279 39.58 72.3519 39.5 71.5519 39.5C70.1119 39.5 69.0399 39.404 68.3359 39.212C67.6319 39.02 66.9999 38.724 66.4399 38.324C65.6399 37.764 65.0239 37.028 64.5919 36.116C64.1599 35.204 63.9439 34.228 63.9439 33.188C63.9439 31.38 64.4479 30.012 65.4559 29.084C66.4799 28.14 67.8959 27.668 69.7039 27.668H76.3279ZM72.4399 30.572V30.14C72.4399 29.852 72.4159 29.628 72.3679 29.468C72.3359 29.308 72.2479 29.156 72.1039 29.012C71.8959 28.852 71.6239 28.748 71.2879 28.7C70.9679 28.652 70.7119 28.628 70.5199 28.628C69.2399 28.628 68.2399 29.084 67.5199 29.996C66.8639 30.828 66.5359 31.908 66.5359 33.236C66.5359 34.804 67.0479 36.076 68.0719 37.052C68.9839 37.916 70.0639 38.348 71.3119 38.348L72.4399 38.276V30.572ZM87.7529 23.708C88.9209 23.708 89.7929 23.86 90.3689 24.164C91.1529 24.58 91.5449 25.324 91.5449 26.396C91.5449 27.404 91.0089 28.348 89.9369 29.228C89.0889 29.932 87.9289 30.572 86.4569 31.148C85.5129 31.516 84.4089 31.876 83.1449 32.228V36.356C83.1449 37.284 83.2089 37.924 83.3369 38.276C83.5609 38.884 84.0169 39.22 84.7049 39.284V39.5H78.9449V39.284C79.6169 39.188 80.0649 38.868 80.2889 38.324C80.4329 37.972 80.5049 37.372 80.5049 36.524V26.852C80.5049 25.94 80.4409 25.308 80.3129 24.956C80.0889 24.348 79.6329 24.004 78.9449 23.924V23.708H87.7529ZM83.1449 31.076C84.6489 30.596 85.8249 30.108 86.6729 29.612C88.1289 28.764 88.8569 27.82 88.8569 26.78C88.8569 26.028 88.5609 25.516 87.9689 25.244C87.3929 24.956 86.5369 24.812 85.4009 24.812C84.9689 24.812 84.5449 24.86 84.1289 24.956C83.7129 25.052 83.4409 25.228 83.3129 25.484C83.2489 25.628 83.2009 25.852 83.1689 26.156C83.1529 26.444 83.1449 26.764 83.1449 27.116V31.076ZM103.199 31.508L103.031 31.532C102.871 30.636 102.375 29.924 101.543 29.396C100.727 28.852 99.8386 28.58 98.8786 28.58C98.0786 28.58 97.4706 28.74 97.0546 29.06C96.7186 29.316 96.5506 29.66 96.5506 30.092C96.5506 30.748 97.2066 31.284 98.5186 31.7C100.855 32.452 102.071 32.852 102.167 32.9C103.495 33.556 104.159 34.476 104.159 35.66C104.159 36.94 103.599 37.964 102.479 38.732C101.487 39.404 100.319 39.74 98.9746 39.74C98.2546 39.74 97.5106 39.66 96.7426 39.5C95.9746 39.356 95.2146 39.196 94.4626 39.02C94.3346 39.02 94.2226 39.052 94.1266 39.116C94.0466 39.164 93.9586 39.244 93.8626 39.356L93.6706 34.652L93.8626 34.604C94.0066 35.804 94.5186 36.772 95.3986 37.508C96.2946 38.228 97.3586 38.588 98.5906 38.588C99.3746 38.588 100.063 38.412 100.655 38.06C101.359 37.644 101.711 37.076 101.711 36.356C101.711 35.636 101.055 35.06 99.7426 34.628C97.3266 33.828 96.1106 33.42 96.0946 33.404C94.7666 32.748 94.1026 31.812 94.1026 30.596C94.1026 29.524 94.6066 28.7 95.6146 28.124C96.4306 27.66 97.4226 27.428 98.5906 27.428C99.1986 27.428 99.8306 27.492 100.487 27.62C101.143 27.732 101.799 27.852 102.455 27.98C102.663 27.98 102.855 27.916 103.031 27.788L103.199 31.508ZM115.343 30.5C115.471 30.164 115.599 29.82 115.727 29.468C115.855 29.1 115.919 28.82 115.919 28.628C115.919 28.196 115.639 27.948 115.079 27.884V27.668H118.751V27.884C118.191 27.948 117.743 28.316 117.407 28.988C117.295 29.228 117.143 29.58 116.951 30.044L112.871 40.724C112.375 42.02 111.887 42.932 111.407 43.46C110.703 44.244 109.767 44.636 108.599 44.636C107.735 44.636 106.951 44.348 106.247 43.772L107.735 40.532L107.927 40.652C107.863 40.844 107.831 41.06 107.831 41.3C107.831 41.748 107.951 42.132 108.191 42.452C108.447 42.788 108.791 42.956 109.223 42.956C109.927 42.956 110.495 42.62 110.927 41.948C111.295 41.372 111.479 40.708 111.479 39.956C111.479 39.444 111.367 38.828 111.143 38.108C111.015 37.676 110.791 37.076 110.471 36.308L107.903 29.9C107.631 29.212 107.431 28.772 107.303 28.58C106.999 28.116 106.647 27.884 106.247 27.884V27.668H111.071V27.884C110.783 27.916 110.575 27.996 110.447 28.124C110.335 28.236 110.279 28.404 110.279 28.628C110.279 28.804 110.295 28.956 110.327 29.084C110.471 29.452 110.567 29.716 110.615 29.876L113.087 36.5L115.343 30.5ZM131.207 39.668C131.015 39.588 130.847 39.548 130.703 39.548L130.271 39.572L129.575 39.644L127.991 39.74C125.991 39.74 124.311 39.164 122.951 38.012C121.511 36.796 120.791 35.188 120.791 33.188C120.791 31.524 121.311 30.148 122.351 29.06C123.391 27.972 124.743 27.428 126.407 27.428L128.111 27.548L129.647 27.692C129.855 27.692 130.031 27.676 130.175 27.644C130.319 27.612 130.479 27.54 130.655 27.428L131.351 31.124L131.207 31.196C130.791 30.38 130.247 29.74 129.575 29.276C128.919 28.812 128.151 28.58 127.271 28.58C126.055 28.58 125.087 29.076 124.367 30.068C123.711 30.964 123.383 32.06 123.383 33.356C123.383 34.028 123.479 34.652 123.671 35.228C123.879 35.804 124.199 36.348 124.631 36.86C125.063 37.372 125.583 37.788 126.191 38.108C126.815 38.428 127.447 38.588 128.087 38.588C128.935 38.588 129.743 38.372 130.511 37.94C131.279 37.492 131.863 36.884 132.263 36.116L132.431 36.212L131.207 39.668ZM138.888 23.084V30.14C139.736 29.308 140.512 28.684 141.216 28.268C142.16 27.708 143.104 27.428 144.048 27.428C145.04 27.428 145.752 27.74 146.184 28.364C146.616 28.988 146.832 29.932 146.832 31.196V36.548C146.832 37.444 146.896 38.068 147.024 38.42C147.232 39.012 147.664 39.308 148.32 39.308V39.5H142.992V39.308C143.6 39.228 144 38.9 144.192 38.324C144.32 37.94 144.384 37.34 144.384 36.524V32.252C144.384 31.276 144.32 30.604 144.192 30.236C143.936 29.516 143.408 29.156 142.608 29.156C142.112 29.156 141.592 29.316 141.048 29.636C140.504 29.94 140.056 30.316 139.704 30.764C139.352 31.212 139.128 31.684 139.032 32.18C138.936 32.66 138.888 33.276 138.888 34.028V36.524C138.888 37.612 139 38.332 139.224 38.684C139.448 39.036 139.808 39.244 140.304 39.308V39.5H135V39.284C135.624 39.204 136.04 38.876 136.248 38.3C136.376 37.948 136.44 37.356 136.44 36.524V26.66C136.44 25.508 136.328 24.764 136.104 24.428C135.88 24.092 135.512 23.924 135 23.924V23.708L138.888 23.084ZM158.33 26.852C158.33 25.86 158.266 25.188 158.138 24.836C157.914 24.228 157.458 23.924 156.77 23.924V23.708H162.53V23.924C162.018 24.02 161.626 24.244 161.354 24.596C161.098 24.948 160.97 25.644 160.97 26.684V34.484C160.97 35.444 160.898 36.156 160.754 36.62C160.546 37.292 160.13 37.884 159.506 38.396C158.962 38.844 158.33 39.196 157.61 39.452C156.89 39.692 156.154 39.812 155.402 39.812C154.378 39.812 153.394 39.588 152.45 39.14C151.506 38.676 150.682 38.044 149.978 37.244L152.402 33.26L152.618 33.356C152.474 33.9 152.394 34.22 152.378 34.316C152.314 34.636 152.282 34.972 152.282 35.324C152.282 36.22 152.578 36.988 153.17 37.628C153.778 38.252 154.53 38.564 155.426 38.564C156.37 38.564 157.09 38.26 157.586 37.652C158.082 37.044 158.33 36.196 158.33 35.108V26.852ZM174.663 39.5C174.423 39.18 174.223 38.836 174.063 38.468C173.919 38.084 173.847 37.708 173.847 37.34C173.415 38.124 172.735 38.732 171.807 39.164C170.975 39.548 170.063 39.74 169.071 39.74C167.935 39.74 167.015 39.492 166.311 38.996C165.623 38.5 165.279 37.812 165.279 36.932C165.279 35.316 166.327 34.044 168.423 33.116C169.175 32.78 170.919 32.284 173.655 31.628V31.172C173.655 30.276 173.479 29.652 173.127 29.3C172.775 28.948 172.143 28.772 171.231 28.772C170.063 28.772 169.039 29.052 168.159 29.612C167.279 30.156 166.599 30.964 166.119 32.036L166.503 28.1C166.759 28.308 167.007 28.412 167.247 28.412C167.423 28.412 167.687 28.348 168.039 28.22C168.903 27.916 169.607 27.708 170.151 27.596C170.711 27.484 171.391 27.428 172.191 27.428C173.711 27.428 174.767 27.724 175.359 28.316C175.951 28.908 176.247 29.956 176.247 31.46V35.972C176.247 36.948 176.319 37.636 176.463 38.036C176.703 38.724 177.199 39.14 177.951 39.284V39.5H174.663ZM173.655 32.612C172.247 32.916 171.071 33.324 170.127 33.836C168.719 34.604 168.015 35.532 168.015 36.62C168.015 37.164 168.199 37.596 168.567 37.916C168.935 38.236 169.399 38.396 169.959 38.396C171.351 38.396 172.351 37.828 172.959 36.692C173.423 35.828 173.655 34.668 173.655 33.212V32.612ZM183.557 38.276L185.813 38.42C186.981 38.42 187.965 38.228 188.765 37.844C189.725 37.38 190.389 36.652 190.757 35.66L190.949 35.708L189.509 39.74C189.349 39.644 189.133 39.58 188.861 39.548C188.589 39.516 188.317 39.5 188.045 39.5H187.589H179.909L187.277 28.796L185.885 28.748C184.765 28.748 183.845 28.884 183.125 29.156C182.181 29.508 181.533 30.124 181.181 31.004L180.989 30.956L181.781 27.308C181.925 27.484 182.085 27.588 182.261 27.62C182.437 27.652 182.725 27.668 183.125 27.668H190.925L183.557 38.276ZM196.997 38.276L199.253 38.42C200.421 38.42 201.405 38.228 202.205 37.844C203.165 37.38 203.829 36.652 204.197 35.66L204.389 35.708L202.949 39.74C202.789 39.644 202.573 39.58 202.301 39.548C202.029 39.516 201.757 39.5 201.485 39.5H201.029H193.349L200.717 28.796L199.325 28.748C198.205 28.748 197.285 28.884 196.565 29.156C195.621 29.508 194.973 30.124 194.621 31.004L194.429 30.956L195.221 27.308C195.365 27.484 195.525 27.588 195.701 27.62C195.877 27.652 196.165 27.668 196.565 27.668H204.365L196.997 38.276Z"/>
</mask>
<path d="M31.696 23.708C32.864 23.708 33.736 23.86 34.312 24.164C35.096 24.58 35.488 25.324 35.488 26.396C35.488 27.404 34.952 28.348 33.88 29.228C33.032 29.932 31.872 30.572 30.4 31.148C29.456 31.516 28.352 31.876 27.088 32.228V36.356C27.088 37.284 27.152 37.924 27.28 38.276C27.504 38.884 27.96 39.22 28.648 39.284V39.5H22.888V39.284C23.56 39.188 24.008 38.868 24.232 38.324C24.376 37.972 24.448 37.372 24.448 36.524V26.852C24.448 25.94 24.384 25.308 24.256 24.956C24.032 24.348 23.576 24.004 22.888 23.924V23.708H31.696ZM27.088 31.076C28.592 30.596 29.768 30.108 30.616 29.612C32.072 28.764 32.8 27.82 32.8 26.78C32.8 26.028 32.504 25.516 31.912 25.244C31.336 24.956 30.48 24.812 29.344 24.812C28.912 24.812 28.488 24.86 28.072 24.956C27.656 25.052 27.384 25.228 27.256 25.484C27.192 25.628 27.144 25.852 27.112 26.156C27.096 26.444 27.088 26.764 27.088 27.116V31.076ZM38.9577 30.932C38.9577 29.86 38.8457 29.148 38.6217 28.796C38.3977 28.444 38.0297 28.244 37.5177 28.196V27.98L40.8297 27.668C41.1977 28.452 41.3817 29.332 41.3817 30.308C41.7177 29.524 42.2777 28.852 43.0617 28.292C43.8457 27.716 44.6457 27.428 45.4617 27.428L46.2777 27.572L45.7497 29.972C45.5257 29.812 45.2857 29.692 45.0297 29.612C44.7897 29.516 44.5337 29.468 44.2617 29.468C43.1897 29.468 42.4217 29.956 41.9577 30.932C41.5897 31.7 41.4057 32.772 41.4057 34.148V36.068C41.4057 37.236 41.4617 37.988 41.5737 38.324C41.7497 38.852 42.1737 39.172 42.8457 39.284V39.5H37.5177V39.284C38.0137 39.236 38.3737 39.036 38.5977 38.684C38.8377 38.316 38.9577 37.604 38.9577 36.548V30.932ZM48.1971 33.668C48.1971 31.78 48.8291 30.268 50.0931 29.132C51.3571 27.996 52.9491 27.428 54.8691 27.428C56.7731 27.428 58.3251 27.964 59.5251 29.036C60.7251 30.092 61.3251 31.556 61.3251 33.428C61.3251 35.348 60.6931 36.884 59.4291 38.036C58.1811 39.172 56.5811 39.74 54.6291 39.74C52.7571 39.74 51.2291 39.204 50.0451 38.132C48.8131 37.012 48.1971 35.524 48.1971 33.668ZM50.9331 33.188C50.9331 34.612 51.2211 35.812 51.7971 36.788C52.5011 37.988 53.5171 38.588 54.8451 38.588C55.9811 38.588 56.9011 38.092 57.6051 37.1C58.2611 36.188 58.5891 35.076 58.5891 33.764C58.5891 32.388 58.3011 31.228 57.7251 30.284C57.0371 29.148 56.0371 28.58 54.7251 28.58C53.4611 28.58 52.4931 29.044 51.8211 29.972C51.2291 30.804 50.9331 31.876 50.9331 33.188ZM76.3279 27.668V27.884C75.8639 27.884 75.5039 28.012 75.2479 28.268C75.0079 28.508 74.8879 29.036 74.8879 29.852V30.62V36.932C74.8879 37.444 74.9199 37.796 74.9839 37.988C75.0479 38.164 75.2479 38.42 75.5839 38.756C75.9359 39.092 76.1919 39.396 76.3519 39.668C76.5279 39.956 76.6159 40.324 76.6159 40.772C76.6159 41.988 75.9519 42.972 74.6239 43.724C73.3919 44.412 71.9039 44.756 70.1599 44.756C68.9439 44.756 67.8239 44.588 66.7999 44.252C65.6319 43.868 64.6639 43.284 63.8959 42.5L66.5839 39.788L66.7039 39.932C66.5919 40.108 66.5039 40.276 66.4399 40.436C66.3919 40.596 66.3679 40.78 66.3679 40.988C66.3679 41.788 66.7199 42.436 67.4239 42.932C68.1279 43.428 69.0479 43.676 70.1839 43.676C71.3199 43.676 72.2479 43.436 72.9679 42.956C73.7039 42.492 74.0719 41.892 74.0719 41.156C74.0719 40.452 73.8079 39.98 73.2799 39.74C72.9279 39.58 72.3519 39.5 71.5519 39.5C70.1119 39.5 69.0399 39.404 68.3359 39.212C67.6319 39.02 66.9999 38.724 66.4399 38.324C65.6399 37.764 65.0239 37.028 64.5919 36.116C64.1599 35.204 63.9439 34.228 63.9439 33.188C63.9439 31.38 64.4479 30.012 65.4559 29.084C66.4799 28.14 67.8959 27.668 69.7039 27.668H76.3279ZM72.4399 30.572V30.14C72.4399 29.852 72.4159 29.628 72.3679 29.468C72.3359 29.308 72.2479 29.156 72.1039 29.012C71.8959 28.852 71.6239 28.748 71.2879 28.7C70.9679 28.652 70.7119 28.628 70.5199 28.628C69.2399 28.628 68.2399 29.084 67.5199 29.996C66.8639 30.828 66.5359 31.908 66.5359 33.236C66.5359 34.804 67.0479 36.076 68.0719 37.052C68.9839 37.916 70.0639 38.348 71.3119 38.348L72.4399 38.276V30.572ZM87.7529 23.708C88.9209 23.708 89.7929 23.86 90.3689 24.164C91.1529 24.58 91.5449 25.324 91.5449 26.396C91.5449 27.404 91.0089 28.348 89.9369 29.228C89.0889 29.932 87.9289 30.572 86.4569 31.148C85.5129 31.516 84.4089 31.876 83.1449 32.228V36.356C83.1449 37.284 83.2089 37.924 83.3369 38.276C83.5609 38.884 84.0169 39.22 84.7049 39.284V39.5H78.9449V39.284C79.6169 39.188 80.0649 38.868 80.2889 38.324C80.4329 37.972 80.5049 37.372 80.5049 36.524V26.852C80.5049 25.94 80.4409 25.308 80.3129 24.956C80.0889 24.348 79.6329 24.004 78.9449 23.924V23.708H87.7529ZM83.1449 31.076C84.6489 30.596 85.8249 30.108 86.6729 29.612C88.1289 28.764 88.8569 27.82 88.8569 26.78C88.8569 26.028 88.5609 25.516 87.9689 25.244C87.3929 24.956 86.5369 24.812 85.4009 24.812C84.9689 24.812 84.5449 24.86 84.1289 24.956C83.7129 25.052 83.4409 25.228 83.3129 25.484C83.2489 25.628 83.2009 25.852 83.1689 26.156C83.1529 26.444 83.1449 26.764 83.1449 27.116V31.076ZM103.199 31.508L103.031 31.532C102.871 30.636 102.375 29.924 101.543 29.396C100.727 28.852 99.8386 28.58 98.8786 28.58C98.0786 28.58 97.4706 28.74 97.0546 29.06C96.7186 29.316 96.5506 29.66 96.5506 30.092C96.5506 30.748 97.2066 31.284 98.5186 31.7C100.855 32.452 102.071 32.852 102.167 32.9C103.495 33.556 104.159 34.476 104.159 35.66C104.159 36.94 103.599 37.964 102.479 38.732C101.487 39.404 100.319 39.74 98.9746 39.74C98.2546 39.74 97.5106 39.66 96.7426 39.5C95.9746 39.356 95.2146 39.196 94.4626 39.02C94.3346 39.02 94.2226 39.052 94.1266 39.116C94.0466 39.164 93.9586 39.244 93.8626 39.356L93.6706 34.652L93.8626 34.604C94.0066 35.804 94.5186 36.772 95.3986 37.508C96.2946 38.228 97.3586 38.588 98.5906 38.588C99.3746 38.588 100.063 38.412 100.655 38.06C101.359 37.644 101.711 37.076 101.711 36.356C101.711 35.636 101.055 35.06 99.7426 34.628C97.3266 33.828 96.1106 33.42 96.0946 33.404C94.7666 32.748 94.1026 31.812 94.1026 30.596C94.1026 29.524 94.6066 28.7 95.6146 28.124C96.4306 27.66 97.4226 27.428 98.5906 27.428C99.1986 27.428 99.8306 27.492 100.487 27.62C101.143 27.732 101.799 27.852 102.455 27.98C102.663 27.98 102.855 27.916 103.031 27.788L103.199 31.508ZM115.343 30.5C115.471 30.164 115.599 29.82 115.727 29.468C115.855 29.1 115.919 28.82 115.919 28.628C115.919 28.196 115.639 27.948 115.079 27.884V27.668H118.751V27.884C118.191 27.948 117.743 28.316 117.407 28.988C117.295 29.228 117.143 29.58 116.951 30.044L112.871 40.724C112.375 42.02 111.887 42.932 111.407 43.46C110.703 44.244 109.767 44.636 108.599 44.636C107.735 44.636 106.951 44.348 106.247 43.772L107.735 40.532L107.927 40.652C107.863 40.844 107.831 41.06 107.831 41.3C107.831 41.748 107.951 42.132 108.191 42.452C108.447 42.788 108.791 42.956 109.223 42.956C109.927 42.956 110.495 42.62 110.927 41.948C111.295 41.372 111.479 40.708 111.479 39.956C111.479 39.444 111.367 38.828 111.143 38.108C111.015 37.676 110.791 37.076 110.471 36.308L107.903 29.9C107.631 29.212 107.431 28.772 107.303 28.58C106.999 28.116 106.647 27.884 106.247 27.884V27.668H111.071V27.884C110.783 27.916 110.575 27.996 110.447 28.124C110.335 28.236 110.279 28.404 110.279 28.628C110.279 28.804 110.295 28.956 110.327 29.084C110.471 29.452 110.567 29.716 110.615 29.876L113.087 36.5L115.343 30.5ZM131.207 39.668C131.015 39.588 130.847 39.548 130.703 39.548L130.271 39.572L129.575 39.644L127.991 39.74C125.991 39.74 124.311 39.164 122.951 38.012C121.511 36.796 120.791 35.188 120.791 33.188C120.791 31.524 121.311 30.148 122.351 29.06C123.391 27.972 124.743 27.428 126.407 27.428L128.111 27.548L129.647 27.692C129.855 27.692 130.031 27.676 130.175 27.644C130.319 27.612 130.479 27.54 130.655 27.428L131.351 31.124L131.207 31.196C130.791 30.38 130.247 29.74 129.575 29.276C128.919 28.812 128.151 28.58 127.271 28.58C126.055 28.58 125.087 29.076 124.367 30.068C123.711 30.964 123.383 32.06 123.383 33.356C123.383 34.028 123.479 34.652 123.671 35.228C123.879 35.804 124.199 36.348 124.631 36.86C125.063 37.372 125.583 37.788 126.191 38.108C126.815 38.428 127.447 38.588 128.087 38.588C128.935 38.588 129.743 38.372 130.511 37.94C131.279 37.492 131.863 36.884 132.263 36.116L132.431 36.212L131.207 39.668ZM138.888 23.084V30.14C139.736 29.308 140.512 28.684 141.216 28.268C142.16 27.708 143.104 27.428 144.048 27.428C145.04 27.428 145.752 27.74 146.184 28.364C146.616 28.988 146.832 29.932 146.832 31.196V36.548C146.832 37.444 146.896 38.068 147.024 38.42C147.232 39.012 147.664 39.308 148.32 39.308V39.5H142.992V39.308C143.6 39.228 144 38.9 144.192 38.324C144.32 37.94 144.384 37.34 144.384 36.524V32.252C144.384 31.276 144.32 30.604 144.192 30.236C143.936 29.516 143.408 29.156 142.608 29.156C142.112 29.156 141.592 29.316 141.048 29.636C140.504 29.94 140.056 30.316 139.704 30.764C139.352 31.212 139.128 31.684 139.032 32.18C138.936 32.66 138.888 33.276 138.888 34.028V36.524C138.888 37.612 139 38.332 139.224 38.684C139.448 39.036 139.808 39.244 140.304 39.308V39.5H135V39.284C135.624 39.204 136.04 38.876 136.248 38.3C136.376 37.948 136.44 37.356 136.44 36.524V26.66C136.44 25.508 136.328 24.764 136.104 24.428C135.88 24.092 135.512 23.924 135 23.924V23.708L138.888 23.084ZM158.33 26.852C158.33 25.86 158.266 25.188 158.138 24.836C157.914 24.228 157.458 23.924 156.77 23.924V23.708H162.53V23.924C162.018 24.02 161.626 24.244 161.354 24.596C161.098 24.948 160.97 25.644 160.97 26.684V34.484C160.97 35.444 160.898 36.156 160.754 36.62C160.546 37.292 160.13 37.884 159.506 38.396C158.962 38.844 158.33 39.196 157.61 39.452C156.89 39.692 156.154 39.812 155.402 39.812C154.378 39.812 153.394 39.588 152.45 39.14C151.506 38.676 150.682 38.044 149.978 37.244L152.402 33.26L152.618 33.356C152.474 33.9 152.394 34.22 152.378 34.316C152.314 34.636 152.282 34.972 152.282 35.324C152.282 36.22 152.578 36.988 153.17 37.628C153.778 38.252 154.53 38.564 155.426 38.564C156.37 38.564 157.09 38.26 157.586 37.652C158.082 37.044 158.33 36.196 158.33 35.108V26.852ZM174.663 39.5C174.423 39.18 174.223 38.836 174.063 38.468C173.919 38.084 173.847 37.708 173.847 37.34C173.415 38.124 172.735 38.732 171.807 39.164C170.975 39.548 170.063 39.74 169.071 39.74C167.935 39.74 167.015 39.492 166.311 38.996C165.623 38.5 165.279 37.812 165.279 36.932C165.279 35.316 166.327 34.044 168.423 33.116C169.175 32.78 170.919 32.284 173.655 31.628V31.172C173.655 30.276 173.479 29.652 173.127 29.3C172.775 28.948 172.143 28.772 171.231 28.772C170.063 28.772 169.039 29.052 168.159 29.612C167.279 30.156 166.599 30.964 166.119 32.036L166.503 28.1C166.759 28.308 167.007 28.412 167.247 28.412C167.423 28.412 167.687 28.348 168.039 28.22C168.903 27.916 169.607 27.708 170.151 27.596C170.711 27.484 171.391 27.428 172.191 27.428C173.711 27.428 174.767 27.724 175.359 28.316C175.951 28.908 176.247 29.956 176.247 31.46V35.972C176.247 36.948 176.319 37.636 176.463 38.036C176.703 38.724 177.199 39.14 177.951 39.284V39.5H174.663ZM173.655 32.612C172.247 32.916 171.071 33.324 170.127 33.836C168.719 34.604 168.015 35.532 168.015 36.62C168.015 37.164 168.199 37.596 168.567 37.916C168.935 38.236 169.399 38.396 169.959 38.396C171.351 38.396 172.351 37.828 172.959 36.692C173.423 35.828 173.655 34.668 173.655 33.212V32.612ZM183.557 38.276L185.813 38.42C186.981 38.42 187.965 38.228 188.765 37.844C189.725 37.38 190.389 36.652 190.757 35.66L190.949 35.708L189.509 39.74C189.349 39.644 189.133 39.58 188.861 39.548C188.589 39.516 188.317 39.5 188.045 39.5H187.589H179.909L187.277 28.796L185.885 28.748C184.765 28.748 183.845 28.884 183.125 29.156C182.181 29.508 181.533 30.124 181.181 31.004L180.989 30.956L181.781 27.308C181.925 27.484 182.085 27.588 182.261 27.62C182.437 27.652 182.725 27.668 183.125 27.668H190.925L183.557 38.276ZM196.997 38.276L199.253 38.42C200.421 38.42 201.405 38.228 202.205 37.844C203.165 37.38 203.829 36.652 204.197 35.66L204.389 35.708L202.949 39.74C202.789 39.644 202.573 39.58 202.301 39.548C202.029 39.516 201.757 39.5 201.485 39.5H201.029H193.349L200.717 28.796L199.325 28.748C198.205 28.748 197.285 28.884 196.565 29.156C195.621 29.508 194.973 30.124 194.621 31.004L194.429 30.956L195.221 27.308C195.365 27.484 195.525 27.588 195.701 27.62C195.877 27.652 196.165 27.668 196.565 27.668H204.365L196.997 38.276Z" fill="white"/>
<path d="M34.312 24.164L34.7807 23.2806L34.7788 23.2796L34.312 24.164ZM33.88 29.228L33.2455 28.4551L33.2412 28.4586L33.88 29.228ZM30.4 31.148L30.7632 32.0797L30.7644 32.0792L30.4 31.148ZM27.088 32.228L26.8197 31.2647L26.088 31.4684V32.228H27.088ZM27.28 38.276L26.3402 38.6177L26.3417 38.6217L27.28 38.276ZM28.648 39.284H29.648V38.3727L28.7406 38.2883L28.648 39.284ZM28.648 39.5V40.5H29.648V39.5H28.648ZM22.888 39.5H21.888V40.5H22.888V39.5ZM22.888 39.284L22.7466 38.2941L21.888 38.4167V39.284H22.888ZM24.232 38.324L25.1567 38.7048L25.1575 38.7026L24.232 38.324ZM24.256 24.956L25.1958 24.6143L25.1943 24.6103L24.256 24.956ZM22.888 23.924H21.888V24.8145L22.7725 24.9173L22.888 23.924ZM22.888 23.708V22.708H21.888V23.708H22.888ZM27.088 31.076H26.088V32.4448L27.392 32.0287L27.088 31.076ZM30.616 29.612L30.1127 28.7479L30.1111 28.7488L30.616 29.612ZM31.912 25.244L31.4648 26.1384L31.4795 26.1458L31.4945 26.1527L31.912 25.244ZM28.072 24.956L28.2969 25.9304L28.2969 25.9304L28.072 24.956ZM27.256 25.484L26.3616 25.0368L26.3514 25.0571L26.3422 25.0779L27.256 25.484ZM27.112 26.156L26.1175 26.0513L26.1149 26.0759L26.1135 26.1005L27.112 26.156ZM31.696 23.708V24.708C32.8114 24.708 33.4863 24.8589 33.8452 25.0484L34.312 24.164L34.7788 23.2796C33.9857 22.8611 32.9166 22.708 31.696 22.708V23.708ZM34.312 24.164L33.8433 25.0473C34.2263 25.2506 34.488 25.602 34.488 26.396H35.488H36.488C36.488 25.046 35.9657 23.9094 34.7807 23.2806L34.312 24.164ZM35.488 26.396H34.488C34.488 27.0033 34.1779 27.6897 33.2455 28.4551L33.88 29.228L34.5145 30.0009C35.7261 29.0063 36.488 27.8047 36.488 26.396H35.488ZM33.88 29.228L33.2412 28.4586C32.5027 29.0717 31.4475 29.6643 30.0356 30.2168L30.4 31.148L30.7644 32.0792C32.2965 31.4797 33.5613 30.7923 34.5188 29.9974L33.88 29.228ZM30.4 31.148L30.0368 30.2163C29.1314 30.5692 28.0604 30.9192 26.8197 31.2647L27.088 32.228L27.3563 33.1913C28.6436 32.8328 29.7806 32.4628 30.7632 32.0797L30.4 31.148ZM27.088 32.228H26.088V36.356H27.088H28.088V32.228H27.088ZM27.088 36.356H26.088C26.088 37.278 26.1452 38.0814 26.3402 38.6177L27.28 38.276L28.2198 37.9343C28.1588 37.7666 28.088 37.29 28.088 36.356H27.088ZM27.28 38.276L26.3417 38.6217C26.5113 39.0821 26.7895 39.4889 27.1968 39.7891C27.6004 40.0864 28.0701 40.2346 28.5554 40.2797L28.648 39.284L28.7406 38.2883C28.5379 38.2694 28.4356 38.2176 28.3832 38.1789C28.3345 38.1431 28.2727 38.0779 28.2183 37.9303L27.28 38.276ZM28.648 39.284H27.648V39.5H28.648H29.648V39.284H28.648ZM28.648 39.5V38.5H22.888V39.5V40.5H28.648V39.5ZM22.888 39.5H23.888V39.284H22.888H21.888V39.5H22.888ZM22.888 39.284L23.0294 40.2739C23.9877 40.137 24.7749 39.632 25.1567 38.7048L24.232 38.324L23.3073 37.9433C23.2411 38.104 23.1323 38.239 22.7466 38.2941L22.888 39.284ZM24.232 38.324L25.1575 38.7026C25.3818 38.1544 25.448 37.3811 25.448 36.524H24.448H23.448C23.448 37.3629 23.3702 37.7896 23.3065 37.9454L24.232 38.324ZM24.448 36.524H25.448V26.852H24.448H23.448V36.524H24.448ZM24.448 26.852H25.448C25.448 25.9435 25.3905 25.1497 25.1958 24.6143L24.256 24.956L23.3162 25.2977C23.3775 25.4663 23.448 25.9365 23.448 26.852H24.448ZM24.256 24.956L25.1943 24.6103C25.0252 24.1512 24.7492 23.7462 24.3482 23.4437C23.9508 23.1439 23.4867 22.9869 23.0035 22.9307L22.888 23.924L22.7725 24.9173C22.9773 24.9411 23.0852 24.9961 23.1438 25.0403C23.1988 25.0818 23.2628 25.1528 23.3177 25.3017L24.256 24.956ZM22.888 23.924H23.888V23.708H22.888H21.888V23.924H22.888ZM22.888 23.708V24.708H31.696V23.708V22.708H22.888V23.708ZM27.088 31.076L27.392 32.0287C28.9293 31.538 30.1831 31.0237 31.1209 30.4752L30.616 29.612L30.1111 28.7488C29.3529 29.1923 28.2547 29.654 26.784 30.1233L27.088 31.076ZM30.616 29.612L31.1193 30.4761C32.6826 29.5656 33.8 28.3588 33.8 26.78H32.8H31.8C31.8 27.2812 31.4614 27.9624 30.1127 28.7479L30.616 29.612ZM32.8 26.78H33.8C33.8 26.2752 33.7005 25.7757 33.4437 25.3315C33.1817 24.8782 32.7935 24.5485 32.3295 24.3353L31.912 25.244L31.4945 26.1527C31.6225 26.2115 31.6784 26.2738 31.7123 26.3325C31.7515 26.4003 31.8 26.5328 31.8 26.78H32.8ZM31.912 25.244L32.3592 24.3496C31.5756 23.9578 30.5337 23.812 29.344 23.812V24.812V25.812C30.4263 25.812 31.0964 25.9542 31.4648 26.1384L31.912 25.244ZM29.344 24.812V23.812C28.8372 23.812 28.3378 23.8684 27.8471 23.9816L28.072 24.956L28.2969 25.9304C28.6382 25.8516 28.9868 25.812 29.344 25.812V24.812ZM28.072 24.956L27.8471 23.9816C27.2865 24.111 26.678 24.404 26.3616 25.0368L27.256 25.484L28.1504 25.9312C28.1389 25.9542 28.1252 25.973 28.1128 25.9864C28.1008 25.9993 28.0942 26.0028 28.0993 25.9996C28.1123 25.9911 28.1681 25.9601 28.2969 25.9304L28.072 24.956ZM27.256 25.484L26.3422 25.0779C26.2124 25.3698 26.1522 25.7217 26.1175 26.0513L27.112 26.156L28.1065 26.2607C28.1199 26.1331 28.1352 26.0377 28.1498 25.9695C28.1652 25.8976 28.1754 25.8776 28.1698 25.8901L27.256 25.484ZM27.112 26.156L26.1135 26.1005C26.0963 26.4105 26.088 26.7494 26.088 27.116H27.088H28.088C28.088 26.7786 28.0957 26.4775 28.1105 26.2115L27.112 26.156ZM27.088 27.116H26.088V31.076H27.088H28.088V27.116H27.088ZM38.6217 28.796L37.778 29.3329L38.6217 28.796ZM37.5177 28.196H36.5177V29.1066L37.4243 29.1916L37.5177 28.196ZM37.5177 27.98L37.4239 26.9844L36.5177 27.0698V27.98H37.5177ZM40.8297 27.668L41.7349 27.2431L41.4361 26.6064L40.7359 26.6724L40.8297 27.668ZM41.3817 30.308H40.3817L42.3008 30.7019L41.3817 30.308ZM43.0617 28.292L43.643 29.1058L43.6538 29.0979L43.0617 28.292ZM45.4617 27.428L45.6355 26.4432L45.5492 26.428H45.4617V27.428ZM46.2777 27.572L47.2543 27.7869L47.4784 26.7684L46.4515 26.5872L46.2777 27.572ZM45.7497 29.972L45.1684 30.7857L46.4009 31.6661L46.7263 30.1869L45.7497 29.972ZM45.0297 29.612L44.6583 30.5405L44.6943 30.5549L44.7314 30.5665L45.0297 29.612ZM41.9577 30.932L42.8595 31.3641L42.8608 31.3614L41.9577 30.932ZM41.5737 38.324L40.625 38.6402L41.5737 38.324ZM42.8457 39.284H43.8457V38.4369L43.0101 38.2976L42.8457 39.284ZM42.8457 39.5V40.5H43.8457V39.5H42.8457ZM37.5177 39.5H36.5177V40.5H37.5177V39.5ZM37.5177 39.284L37.4214 38.2887L36.5177 38.3761V39.284H37.5177ZM38.5977 38.684L37.76 38.1377L37.754 38.1471L38.5977 38.684ZM38.9577 30.932H39.9577C39.9577 30.3665 39.9285 29.8643 39.8615 29.4386C39.7975 29.0315 39.6863 28.6063 39.4653 28.2591L38.6217 28.796L37.778 29.3329C37.7746 29.3275 37.7911 29.3527 37.8151 29.4286C37.8385 29.5026 37.8635 29.6073 37.8858 29.7494C37.9309 30.0357 37.9577 30.4255 37.9577 30.932H38.9577ZM38.6217 28.796L39.4653 28.2591C39.037 27.5861 38.3514 27.2698 37.611 27.2004L37.5177 28.196L37.4243 29.1916C37.708 29.2182 37.7583 29.3019 37.778 29.3329L38.6217 28.796ZM37.5177 28.196H38.5177V27.98H37.5177H36.5177V28.196H37.5177ZM37.5177 27.98L37.6115 28.9756L40.9235 28.6636L40.8297 27.668L40.7359 26.6724L37.4239 26.9844L37.5177 27.98ZM40.8297 27.668L39.9245 28.0929C40.2225 28.728 40.3817 29.4602 40.3817 30.308H41.3817H42.3817C42.3817 29.2038 42.1728 28.176 41.7349 27.2431L40.8297 27.668ZM41.3817 30.308L42.3008 30.7019C42.5557 30.1071 42.9881 29.5735 43.6429 29.1057L43.0617 28.292L42.4804 27.4783C41.5673 28.1305 40.8796 28.9409 40.4625 29.9141L41.3817 30.308ZM43.0617 28.292L43.6538 29.0979C44.3 28.6231 44.8972 28.428 45.4617 28.428V27.428V26.428C44.3941 26.428 43.3913 26.8089 42.4696 27.4861L43.0617 28.292ZM45.4617 27.428L45.2879 28.4128L46.1039 28.5568L46.2777 27.572L46.4515 26.5872L45.6355 26.4432L45.4617 27.428ZM46.2777 27.572L45.301 27.3571L44.773 29.7571L45.7497 29.972L46.7263 30.1869L47.2543 27.7869L46.2777 27.572ZM45.7497 29.972L46.3309 29.1583C46.023 28.9383 45.6878 28.77 45.328 28.6575L45.0297 29.612L44.7314 30.5665C44.8836 30.614 45.0284 30.6857 45.1684 30.7857L45.7497 29.972ZM45.0297 29.612L45.4011 28.6835C45.0369 28.5378 44.6542 28.468 44.2617 28.468V29.468V30.468C44.4132 30.468 44.5425 30.4942 44.6583 30.5405L45.0297 29.612ZM44.2617 29.468V28.468C43.5701 28.468 42.9164 28.6271 42.3454 28.99C41.7748 29.3525 41.352 29.8769 41.0546 30.5026L41.9577 30.932L42.8608 31.3614C43.0274 31.0111 43.2205 30.8035 43.418 30.678C43.6149 30.5529 43.8813 30.468 44.2617 30.468V29.468ZM41.9577 30.932L41.0559 30.4999C40.5954 31.4609 40.4057 32.704 40.4057 34.148H41.4057H42.4057C42.4057 32.84 42.584 31.9391 42.8595 31.3641L41.9577 30.932ZM41.4057 34.148H40.4057V36.068H41.4057H42.4057V34.148H41.4057ZM41.4057 36.068H40.4057C40.4057 36.6649 40.4199 37.172 40.4504 37.5823C40.4793 37.9697 40.5273 38.3471 40.625 38.6402L41.5737 38.324L42.5224 38.0078C42.5081 37.9649 42.4721 37.7983 42.4449 37.4337C42.4195 37.092 42.4057 36.6391 42.4057 36.068H41.4057ZM41.5737 38.324L40.625 38.6402C40.9464 39.6045 41.7415 40.1138 42.6813 40.2704L42.8457 39.284L43.0101 38.2976C42.6058 38.2302 42.5529 38.0995 42.5224 38.0078L41.5737 38.324ZM42.8457 39.284H41.8457V39.5H42.8457H43.8457V39.284H42.8457ZM42.8457 39.5V38.5H37.5177V39.5V40.5H42.8457V39.5ZM37.5177 39.5H38.5177V39.284H37.5177H36.5177V39.5H37.5177ZM37.5177 39.284L37.614 40.2794C38.3499 40.2081 39.0192 39.8842 39.4413 39.2209L38.5977 38.684L37.754 38.1471C37.7281 38.1878 37.6775 38.2639 37.4214 38.2887L37.5177 39.284ZM38.5977 38.684L39.4353 39.2303C39.6635 38.8804 39.7838 38.4554 39.8538 38.0402C39.9262 37.6105 39.9577 37.1087 39.9577 36.548H38.9577H37.9577C37.9577 37.0433 37.9292 37.4255 37.8816 37.7078C37.8316 38.0046 37.7719 38.1196 37.7601 38.1377L38.5977 38.684ZM38.9577 36.548H39.9577V30.932H38.9577H37.9577V36.548H38.9577ZM50.0931 29.132L50.7616 29.8758L50.0931 29.132ZM59.5251 29.036L58.8589 29.7818L58.8645 29.7867L59.5251 29.036ZM59.4291 38.036L60.1023 38.7755L60.1027 38.7751L59.4291 38.036ZM50.0451 38.132L49.3725 38.8719L49.374 38.8733L50.0451 38.132ZM51.7971 36.788L52.6597 36.282L52.6583 36.2797L51.7971 36.788ZM57.6051 37.1L56.7933 36.5161L56.7896 36.5213L57.6051 37.1ZM57.7251 30.284L56.8698 30.802L56.8715 30.8049L57.7251 30.284ZM51.8211 29.972L51.0112 29.3855L51.0063 29.3922L51.8211 29.972ZM48.1971 33.668H49.1971C49.1971 32.0286 49.7334 30.7999 50.7616 29.8758L50.0931 29.132L49.4247 28.3882C47.9249 29.7361 47.1971 31.5314 47.1971 33.668H48.1971ZM50.0931 29.132L50.7616 29.8758C51.818 28.9263 53.1616 28.428 54.8691 28.428V27.428V26.428C52.7367 26.428 50.8963 27.0657 49.4247 28.3882L50.0931 29.132ZM54.8691 27.428V28.428C56.575 28.428 57.8748 28.9027 58.8589 29.7818L59.5251 29.036L60.1913 28.2902C58.7754 27.0253 56.9713 26.428 54.8691 26.428V27.428ZM59.5251 29.036L58.8645 29.7867C59.8112 30.6198 60.3251 31.7892 60.3251 33.428H61.3251H62.3251C62.3251 31.3228 61.6391 29.5642 60.1858 28.2853L59.5251 29.036ZM61.3251 33.428H60.3251C60.3251 35.105 59.7849 36.3587 58.7555 37.2969L59.4291 38.036L60.1027 38.7751C61.6013 37.4093 62.3251 35.591 62.3251 33.428H61.3251ZM59.4291 38.036L58.756 37.2965C57.7207 38.2388 56.3738 38.74 54.6291 38.74V39.74V40.74C56.7885 40.74 58.6415 40.1052 60.1023 38.7755L59.4291 38.036ZM54.6291 39.74V38.74C52.9599 38.74 51.6854 38.2681 50.7163 37.3907L50.0451 38.132L49.374 38.8733C50.7729 40.1399 52.5544 40.74 54.6291 40.74V39.74ZM50.0451 38.132L50.7178 37.3921C49.7195 36.4845 49.1971 35.2782 49.1971 33.668H48.1971H47.1971C47.1971 35.7698 47.9068 37.5395 49.3725 38.8719L50.0451 38.132ZM50.9331 33.188H49.9331C49.9331 34.7455 50.2485 36.1315 50.9359 37.2963L51.7971 36.788L52.6583 36.2797C52.1938 35.4925 51.9331 34.4785 51.9331 33.188H50.9331ZM51.7971 36.788L50.9346 37.294C51.8076 38.7822 53.1421 39.588 54.8451 39.588V38.588V37.588C53.8921 37.588 53.1946 37.1938 52.6597 36.282L51.7971 36.788ZM54.8451 38.588V39.588C56.3312 39.588 57.5447 38.913 58.4206 37.6787L57.6051 37.1L56.7896 36.5213C56.2576 37.271 55.6311 37.588 54.8451 37.588V38.588ZM57.6051 37.1L58.4169 37.6839C59.2149 36.5745 59.5891 35.2493 59.5891 33.764H58.5891H57.5891C57.5891 34.9027 57.3073 35.8015 56.7933 36.5161L57.6051 37.1ZM58.5891 33.764H59.5891C59.5891 32.2489 59.2713 30.8982 58.5788 29.7631L57.7251 30.284L56.8715 30.8049C57.3309 31.5578 57.5891 32.5271 57.5891 33.764H58.5891ZM57.7251 30.284L58.5805 29.766C57.714 28.3353 56.3922 27.58 54.7251 27.58V28.58V29.58C55.6821 29.58 56.3602 29.9607 56.8698 30.802L57.7251 30.284ZM54.7251 28.58V27.58C53.1789 27.58 51.8927 28.1682 51.0112 29.3855L51.8211 29.972L52.6311 30.5585C53.0935 29.9198 53.7434 29.58 54.7251 29.58V28.58ZM51.8211 29.972L51.0063 29.3922C50.2636 30.4361 49.9331 31.7274 49.9331 33.188H50.9331H51.9331C51.9331 32.0246 52.1947 31.1719 52.6359 30.5518L51.8211 29.972ZM76.3279 27.668H77.3279V26.668H76.3279V27.668ZM76.3279 27.884V28.884H77.3279V27.884H76.3279ZM75.2479 28.268L74.5408 27.5609H74.5408L75.2479 28.268ZM74.9839 37.988L74.0353 38.3042L74.0395 38.317L74.0441 38.3297L74.9839 37.988ZM75.5839 38.756L74.8768 39.4631L74.8851 39.4713L74.8935 39.4794L75.5839 38.756ZM76.3519 39.668L75.49 40.175L75.4943 40.1823L75.4987 40.1894L76.3519 39.668ZM74.6239 43.724L75.1115 44.5971L75.1167 44.5942L74.6239 43.724ZM66.7999 44.252L66.4876 45.202L66.4882 45.2022L66.7999 44.252ZM63.8959 42.5L63.1857 41.796L62.492 42.4959L63.1816 43.1998L63.8959 42.5ZM66.5839 39.788L67.3522 39.1478L66.648 38.3028L65.8737 39.084L66.5839 39.788ZM66.7039 39.932L67.5476 40.4689L67.9396 39.8528L67.4722 39.2918L66.7039 39.932ZM66.4399 40.436L65.5115 40.0646L65.4949 40.106L65.4821 40.1487L66.4399 40.436ZM72.9679 42.956L72.4346 42.1101L72.4238 42.1169L72.4132 42.1239L72.9679 42.956ZM73.2799 39.74L73.6937 38.8296L73.2799 39.74ZM66.4399 38.324L67.0212 37.5102L67.0134 37.5048L66.4399 38.324ZM64.5919 36.116L63.6882 36.5441L64.5919 36.116ZM65.4559 29.084L66.1332 29.8197L66.1337 29.8192L65.4559 29.084ZM72.3679 29.468L71.3874 29.6641L71.3966 29.7103L71.4101 29.7554L72.3679 29.468ZM72.1039 29.012L72.811 28.3049L72.7651 28.259L72.7136 28.2194L72.1039 29.012ZM71.2879 28.7L71.1396 29.689L71.1465 29.6899L71.2879 28.7ZM67.5199 29.996L66.7351 29.3764L66.7347 29.3768L67.5199 29.996ZM68.0719 37.052L67.382 37.7759L67.3842 37.778L68.0719 37.052ZM71.3119 38.348V39.348H71.3438L71.3756 39.346L71.3119 38.348ZM72.4399 38.276L72.5036 39.274L73.4399 39.2142V38.276H72.4399ZM76.3279 27.668H75.3279V27.884H76.3279H77.3279V27.668H76.3279ZM76.3279 27.884V26.884C75.677 26.884 75.0333 27.0685 74.5408 27.5609L75.2479 28.268L75.955 28.9751C75.9746 28.9555 76.0509 28.884 76.3279 28.884V27.884ZM75.2479 28.268L74.5408 27.5609C74.2301 27.8716 74.0819 28.2741 74.0028 28.6224C73.9202 28.9858 73.8879 29.4029 73.8879 29.852H74.8879H75.8879C75.8879 29.4851 75.9157 29.2302 75.9531 29.0656C75.9939 28.8859 76.0258 28.9044 75.955 28.9751L75.2479 28.268ZM74.8879 29.852H73.8879V30.62H74.8879H75.8879V29.852H74.8879ZM74.8879 30.62H73.8879V36.932H74.8879H75.8879V30.62H74.8879ZM74.8879 36.932H73.8879C73.8879 37.4362 73.9138 37.9398 74.0353 38.3042L74.9839 37.988L75.9326 37.6718C75.9366 37.6836 75.9212 37.6365 75.9078 37.4895C75.8955 37.3536 75.8879 37.1699 75.8879 36.932H74.8879ZM74.9839 37.988L74.0441 38.3297C74.129 38.5632 74.2694 38.7682 74.3939 38.9276C74.5276 39.0987 74.6919 39.2782 74.8768 39.4631L75.5839 38.756L76.291 38.0489C76.14 37.8978 76.0363 37.7813 75.97 37.6964C75.9373 37.6545 75.9191 37.6273 75.9107 37.6136C75.9012 37.598 75.9106 37.6102 75.9237 37.6463L74.9839 37.988ZM75.5839 38.756L74.8935 39.4794C75.2106 39.7821 75.395 40.0135 75.49 40.175L76.3519 39.668L77.2139 39.161C76.9889 38.7785 76.6613 38.4019 76.2744 38.0326L75.5839 38.756ZM76.3519 39.668L75.4987 40.1894C75.5522 40.277 75.6159 40.4494 75.6159 40.772H76.6159H77.6159C77.6159 40.1986 77.5037 39.635 77.2052 39.1466L76.3519 39.668ZM76.6159 40.772H75.6159C75.6159 41.532 75.239 42.2265 74.1312 42.8538L74.6239 43.724L75.1167 44.5942C76.6648 43.7175 77.6159 42.444 77.6159 40.772H76.6159ZM74.6239 43.724L74.1364 42.8509C73.0847 43.4382 71.7731 43.756 70.1599 43.756V44.756V45.756C72.0348 45.756 73.6992 45.3858 75.1115 44.5971L74.6239 43.724ZM70.1599 44.756V43.756C69.0364 43.756 68.0231 43.6009 67.1117 43.3018L66.7999 44.252L66.4882 45.2022C67.6248 45.5751 68.8514 45.756 70.1599 45.756V44.756ZM66.7999 44.252L67.1123 43.302C66.0778 42.9619 65.2533 42.4567 64.6103 41.8002L63.8959 42.5L63.1816 43.1998C64.0745 44.1113 65.186 44.7741 66.4876 45.202L66.7999 44.252ZM63.8959 42.5L64.6062 43.204L67.2942 40.492L66.5839 39.788L65.8737 39.084L63.1857 41.796L63.8959 42.5ZM66.5839 39.788L65.8157 40.4282L65.9357 40.5722L66.7039 39.932L67.4722 39.2918L67.3522 39.1478L66.5839 39.788ZM66.7039 39.932L65.8603 39.3951C65.7216 39.613 65.6027 39.8364 65.5115 40.0646L66.4399 40.436L67.3684 40.8074C67.4051 40.7156 67.4622 40.603 67.5476 40.4689L66.7039 39.932ZM66.4399 40.436L65.4821 40.1487C65.4003 40.4214 65.3679 40.7055 65.3679 40.988H66.3679H67.3679C67.3679 40.8545 67.3836 40.7706 67.3978 40.7233L66.4399 40.436ZM66.3679 40.988H65.3679C65.3679 42.1414 65.902 43.083 66.848 43.7495L67.4239 42.932L67.9999 42.1145C67.5379 41.789 67.3679 41.4346 67.3679 40.988H66.3679ZM67.4239 42.932L66.848 43.7495C67.7669 44.3969 68.9068 44.676 70.1839 44.676V43.676V42.676C69.189 42.676 68.4889 42.4591 67.9999 42.1145L67.4239 42.932ZM70.1839 43.676V44.676C71.4565 44.676 72.5942 44.407 73.5226 43.788L72.9679 42.956L72.4132 42.1239C71.9017 42.465 71.1834 42.676 70.1839 42.676V43.676ZM72.9679 42.956L73.5012 43.8019C74.466 43.1937 75.0719 42.3025 75.0719 41.156H74.0719H73.0719C73.0719 41.4815 72.9419 41.7903 72.4346 42.1101L72.9679 42.956ZM74.0719 41.156H75.0719C75.0719 40.6832 74.9836 40.2094 74.7467 39.7858C74.5029 39.35 74.1369 39.0311 73.6937 38.8296L73.2799 39.74L72.8661 40.6504C72.951 40.6889 72.981 40.726 73.0012 40.7622C73.0283 40.8106 73.0719 40.9248 73.0719 41.156H74.0719ZM73.2799 39.74L73.6937 38.8296C73.1346 38.5755 72.3742 38.5 71.5519 38.5V39.5V40.5C72.3297 40.5 72.7213 40.5845 72.8661 40.6504L73.2799 39.74ZM71.5519 39.5V38.5C70.1323 38.5 69.1698 38.4029 68.5991 38.2472L68.3359 39.212L68.0728 40.1768C68.9101 40.4051 70.0916 40.5 71.5519 40.5V39.5ZM68.3359 39.212L68.5991 38.2472C68.0022 38.0845 67.4792 37.8374 67.0212 37.5103L66.4399 38.324L65.8587 39.1377C66.5207 39.6106 67.2616 39.9555 68.0728 40.1768L68.3359 39.212ZM66.4399 38.324L67.0134 37.5048C66.3604 37.0477 65.856 36.4485 65.4957 35.6879L64.5919 36.116L63.6882 36.5441C64.1919 37.6075 64.9194 38.4803 65.8665 39.1432L66.4399 38.324ZM64.5919 36.116L65.4957 35.6879C65.129 34.9139 64.9439 34.0846 64.9439 33.188H63.9439H62.9439C62.9439 34.3714 63.1908 35.4941 63.6882 36.5441L64.5919 36.116ZM63.9439 33.188H64.9439C64.9439 31.5657 65.3911 30.503 66.1332 29.8197L65.4559 29.084L64.7786 28.3483C63.5048 29.521 62.9439 31.1943 62.9439 33.188H63.9439ZM65.4559 29.084L66.1337 29.8192C66.9233 29.0914 68.07 28.668 69.7039 28.668V27.668V26.668C67.7219 26.668 66.0366 27.1886 64.7781 28.3488L65.4559 29.084ZM69.7039 27.668V28.668H76.3279V27.668V26.668H69.7039V27.668ZM72.4399 30.572H73.4399V30.14H72.4399H71.4399V30.572H72.4399ZM72.4399 30.14H73.4399C73.4399 29.8142 73.4148 29.4775 73.3258 29.1806L72.3679 29.468L71.4101 29.7554C71.4171 29.7785 71.4399 29.8898 71.4399 30.14H72.4399ZM72.3679 29.468L73.3485 29.2719C73.2692 28.8752 73.0599 28.5538 72.811 28.3049L72.1039 29.012L71.3968 29.7191C71.4169 29.7391 71.4184 29.7452 71.4125 29.735C71.4059 29.7236 71.3944 29.6993 71.3874 29.6641L72.3679 29.468ZM72.1039 29.012L72.7136 28.2194C72.3348 27.9279 71.8871 27.7754 71.4294 27.71L71.2879 28.7L71.1465 29.6899C71.3608 29.7206 71.4571 29.7761 71.4942 29.8046L72.1039 29.012ZM71.2879 28.7L71.4363 27.7111C71.0955 27.66 70.7838 27.628 70.5199 27.628V28.628V29.628C70.6401 29.628 70.8403 29.644 71.1396 29.6889L71.2879 28.7ZM70.5199 28.628V27.628C68.9694 27.628 67.6657 28.1976 66.7351 29.3764L67.5199 29.996L68.3048 30.6156C68.8142 29.9704 69.5104 29.628 70.5199 29.628V28.628ZM67.5199 29.996L66.7347 29.3768C65.9074 30.426 65.5359 31.7414 65.5359 33.236H66.5359H67.5359C67.5359 32.0746 67.8204 31.23 68.3052 30.6152L67.5199 29.996ZM66.5359 33.236H65.5359C65.5359 35.0448 66.1375 36.5897 67.382 37.7759L68.0719 37.052L68.7619 36.3281C67.9584 35.5623 67.5359 34.5632 67.5359 33.236H66.5359ZM68.0719 37.052L67.3842 37.778C68.4806 38.8166 69.8062 39.348 71.3119 39.348V38.348V37.348C70.3217 37.348 69.4873 37.0154 68.7597 36.326L68.0719 37.052ZM71.3119 38.348L71.3756 39.346L72.5036 39.274L72.4399 38.276L72.3762 37.278L71.2482 37.35L71.3119 38.348ZM72.4399 38.276H73.4399V30.572H72.4399H71.4399V38.276H72.4399ZM90.3689 24.164L90.8376 23.2806L90.8356 23.2796L90.3689 24.164ZM89.9369 29.228L89.3024 28.4551L89.2981 28.4586L89.9369 29.228ZM86.4569 31.148L86.8201 32.0797L86.8213 32.0792L86.4569 31.148ZM83.1449 32.228L82.8766 31.2647L82.1449 31.4684V32.228H83.1449ZM83.3369 38.276L82.3971 38.6177L82.3985 38.6217L83.3369 38.276ZM84.7049 39.284H85.7049V38.3727L84.7975 38.2883L84.7049 39.284ZM84.7049 39.5V40.5H85.7049V39.5H84.7049ZM78.9449 39.5H77.9449V40.5H78.9449V39.5ZM78.9449 39.284L78.8035 38.2941L77.9449 38.4167V39.284H78.9449ZM80.2889 38.324L81.2136 38.7048L81.2144 38.7026L80.2889 38.324ZM80.3129 24.956L81.2527 24.6143L81.2512 24.6103L80.3129 24.956ZM78.9449 23.924H77.9449V24.8145L78.8294 24.9173L78.9449 23.924ZM78.9449 23.708V22.708H77.9449V23.708H78.9449ZM83.1449 31.076H82.1449V32.4448L83.4489 32.0287L83.1449 31.076ZM86.6729 29.612L86.1696 28.7479L86.168 28.7488L86.6729 29.612ZM87.9689 25.244L87.5217 26.1384L87.5364 26.1458L87.5514 26.1527L87.9689 25.244ZM84.1289 24.956L84.3537 25.9304V25.9304L84.1289 24.956ZM83.3129 25.484L82.4184 25.0368L82.4083 25.0571L82.3991 25.0779L83.3129 25.484ZM83.1689 26.156L82.1744 26.0513L82.1718 26.0759L82.1704 26.1005L83.1689 26.156ZM87.7529 23.708V24.708C88.8683 24.708 89.5431 24.8589 89.9021 25.0484L90.3689 24.164L90.8356 23.2796C90.0426 22.8611 88.9735 22.708 87.7529 22.708V23.708ZM90.3689 24.164L89.9002 25.0473C90.2832 25.2506 90.5449 25.602 90.5449 26.396H91.5449H92.5449C92.5449 25.046 92.0225 23.9094 90.8376 23.2806L90.3689 24.164ZM91.5449 26.396H90.5449C90.5449 27.0033 90.2348 27.6897 89.3024 28.4551L89.9369 29.228L90.5714 30.0009C91.783 29.0063 92.5449 27.8047 92.5449 26.396H91.5449ZM89.9369 29.228L89.2981 28.4586C88.5596 29.0717 87.5044 29.6643 86.0925 30.2168L86.4569 31.148L86.8213 32.0792C88.3534 31.4797 89.6182 30.7923 90.5756 29.9974L89.9369 29.228ZM86.4569 31.148L86.0937 30.2163C85.1883 30.5692 84.1173 30.9192 82.8766 31.2647L83.1449 32.228L83.4132 33.1913C84.7005 32.8328 85.8375 32.4628 86.8201 32.0797L86.4569 31.148ZM83.1449 32.228H82.1449V36.356H83.1449H84.1449V32.228H83.1449ZM83.1449 36.356H82.1449C82.1449 37.278 82.202 38.0814 82.3971 38.6177L83.3369 38.276L84.2767 37.9343C84.2157 37.7666 84.1449 37.29 84.1449 36.356H83.1449ZM83.3369 38.276L82.3985 38.6217C82.5682 39.0821 82.8464 39.4889 83.2537 39.7891C83.6572 40.0864 84.127 40.2346 84.6123 40.2797L84.7049 39.284L84.7975 38.2883C84.5948 38.2694 84.4925 38.2176 84.4401 38.1789C84.3914 38.1431 84.3296 38.0779 84.2752 37.9303L83.3369 38.276ZM84.7049 39.284H83.7049V39.5H84.7049H85.7049V39.284H84.7049ZM84.7049 39.5V38.5H78.9449V39.5V40.5H84.7049V39.5ZM78.9449 39.5H79.9449V39.284H78.9449H77.9449V39.5H78.9449ZM78.9449 39.284L79.0863 40.2739C80.0446 40.137 80.8317 39.632 81.2136 38.7048L80.2889 38.324L79.3642 37.9433C79.298 38.104 79.1891 38.239 78.8035 38.2941L78.9449 39.284ZM80.2889 38.324L81.2144 38.7026C81.4387 38.1544 81.5049 37.3811 81.5049 36.524H80.5049H79.5049C79.5049 37.3629 79.4271 37.7896 79.3633 37.9454L80.2889 38.324ZM80.5049 36.524H81.5049V26.852H80.5049H79.5049V36.524H80.5049ZM80.5049 26.852H81.5049C81.5049 25.9435 81.4474 25.1497 81.2527 24.6143L80.3129 24.956L79.3731 25.2977C79.4344 25.4663 79.5049 25.9365 79.5049 26.852H80.5049ZM80.3129 24.956L81.2512 24.6103C81.0821 24.1512 80.8061 23.7462 80.4051 23.4437C80.0077 23.1439 79.5435 22.9869 79.0604 22.9307L78.9449 23.924L78.8294 24.9173C79.0342 24.9411 79.1421 24.9961 79.2006 25.0403C79.2556 25.0818 79.3197 25.1528 79.3745 25.3017L80.3129 24.956ZM78.9449 23.924H79.9449V23.708H78.9449H77.9449V23.924H78.9449ZM78.9449 23.708V24.708H87.7529V23.708V22.708H78.9449V23.708ZM83.1449 31.076L83.4489 32.0287C84.9862 31.538 86.24 31.0237 87.1778 30.4752L86.6729 29.612L86.168 28.7488C85.4098 29.1923 84.3115 29.654 82.8408 30.1233L83.1449 31.076ZM86.6729 29.612L87.1762 30.4761C88.7394 29.5656 89.8569 28.3588 89.8569 26.78H88.8569H87.8569C87.8569 27.2812 87.5183 27.9624 86.1696 28.7479L86.6729 29.612ZM88.8569 26.78H89.8569C89.8569 26.2752 89.7574 25.7757 89.5006 25.3315C89.2385 24.8782 88.8504 24.5485 88.3864 24.3353L87.9689 25.244L87.5514 26.1527C87.6794 26.2115 87.7352 26.2738 87.7691 26.3325C87.8084 26.4003 87.8569 26.5328 87.8569 26.78H88.8569ZM87.9689 25.244L88.4161 24.3496C87.6325 23.9578 86.5906 23.812 85.4009 23.812V24.812V25.812C86.4832 25.812 87.1533 25.9542 87.5217 26.1384L87.9689 25.244ZM85.4009 24.812V23.812C84.8941 23.812 84.3946 23.8684 83.904 23.9816L84.1289 24.956L84.3537 25.9304C84.6951 25.8516 85.0437 25.812 85.4009 25.812V24.812ZM84.1289 24.956L83.904 23.9816C83.3433 24.111 82.7348 24.404 82.4184 25.0368L83.3129 25.484L84.2073 25.9312C84.1958 25.9542 84.1821 25.973 84.1696 25.9864C84.1577 25.9993 84.1511 26.0028 84.1561 25.9996C84.1692 25.9911 84.225 25.9601 84.3537 25.9304L84.1289 24.956ZM83.3129 25.484L82.3991 25.0779C82.2693 25.3698 82.2091 25.7217 82.1744 26.0513L83.1689 26.156L84.1634 26.2607C84.1768 26.1331 84.1921 26.0377 84.2067 25.9695C84.2221 25.8976 84.2323 25.8776 84.2267 25.8901L83.3129 25.484ZM83.1689 26.156L82.1704 26.1005C82.1532 26.4105 82.1449 26.7494 82.1449 27.116H83.1449H84.1449C84.1449 26.7786 84.1526 26.4775 84.1673 26.2115L83.1689 26.156ZM83.1449 27.116H82.1449V31.076H83.1449H84.1449V27.116H83.1449ZM103.199 31.508L103.34 32.4979L104.238 32.3696L104.198 31.4629L103.199 31.508ZM103.031 31.532L102.046 31.7078L102.216 32.6585L103.172 32.5219L103.031 31.532ZM101.543 29.396L100.988 30.228L100.997 30.2343L101.007 30.2403L101.543 29.396ZM97.0546 29.06L97.6606 29.8554L97.6643 29.8526L97.0546 29.06ZM98.5186 31.7L98.825 30.7481L98.8208 30.7468L98.5186 31.7ZM102.167 32.9L101.719 33.7944L101.724 33.7966L102.167 32.9ZM102.479 38.732L103.039 39.5599L103.044 39.5567L102.479 38.732ZM96.7426 39.5L96.9465 38.521L96.9367 38.519L96.9268 38.5171L96.7426 39.5ZM94.4626 39.02L94.6904 38.0463L94.578 38.02H94.4626V39.02ZM94.1266 39.116L94.6411 39.9735L94.6615 39.9613L94.6813 39.948L94.1266 39.116ZM93.8626 39.356L92.8634 39.3968L92.9671 41.9373L94.6218 40.0068L93.8626 39.356ZM93.6706 34.652L93.428 33.6819L92.6382 33.8793L92.6714 34.6928L93.6706 34.652ZM93.8626 34.604L94.8554 34.4849L94.7203 33.3588L93.62 33.6339L93.8626 34.604ZM95.3986 37.508L94.757 38.2751L94.7645 38.2814L94.7722 38.2875L95.3986 37.508ZM100.655 38.06L100.146 37.1991L100.143 37.2005L100.655 38.06ZM99.7426 34.628L99.4282 35.5773L99.4298 35.5778L99.7426 34.628ZM96.0946 33.404L96.8017 32.6969L96.6852 32.5804L96.5374 32.5074L96.0946 33.404ZM95.6146 28.124L95.1203 27.2547L95.1184 27.2558L95.6146 28.124ZM100.487 27.62L100.295 28.6015L100.307 28.6037L100.318 28.6057L100.487 27.62ZM102.455 27.98L102.263 28.9615L102.358 28.98H102.455V27.98ZM103.031 27.788L104.03 27.7429L103.946 25.886L102.442 26.9793L103.031 27.788ZM103.199 31.508L103.057 30.5181L102.889 30.542L103.031 31.532L103.172 32.5219L103.34 32.4979L103.199 31.508ZM103.031 31.532L104.015 31.3562C103.801 30.1598 103.125 29.2159 102.078 28.5517L101.543 29.396L101.007 30.2403C101.624 30.6321 101.94 31.1122 102.046 31.7078L103.031 31.532ZM101.543 29.396L102.097 28.5639C101.121 27.9129 100.04 27.58 98.8786 27.58V28.58V29.58C99.6367 29.58 100.332 29.7911 100.988 30.228L101.543 29.396ZM98.8786 28.58V27.58C97.9676 27.58 97.1062 27.7587 96.4448 28.2674L97.0546 29.06L97.6643 29.8526C97.835 29.7213 98.1896 29.58 98.8786 29.58V28.58ZM97.0546 29.06L96.4485 28.2646C95.8577 28.7147 95.5506 29.3562 95.5506 30.092H96.5506H97.5506C97.5506 29.9638 97.5794 29.9173 97.6606 29.8554L97.0546 29.06ZM96.5506 30.092H95.5506C95.5506 30.8034 95.9226 31.3622 96.4098 31.7604C96.8778 32.1428 97.5057 32.4279 98.2163 32.6532L98.5186 31.7L98.8208 30.7468C98.2194 30.5561 97.8633 30.3652 97.6753 30.2116C97.5066 30.0738 97.5506 30.0366 97.5506 30.092H96.5506ZM98.5186 31.7L98.2121 32.6519C99.3796 33.0277 100.265 33.3149 100.87 33.5139C101.173 33.6136 101.403 33.6902 101.561 33.7443C101.641 33.7716 101.699 33.7919 101.738 33.8059C101.803 33.8293 101.771 33.8201 101.719 33.7944L102.167 32.9L102.614 32.0056C102.538 31.9679 102.447 31.9357 102.418 31.9251C102.363 31.9051 102.292 31.8804 102.208 31.8517C102.038 31.7938 101.8 31.7144 101.495 31.6141C100.884 31.4131 99.9935 31.1243 98.825 30.7481L98.5186 31.7ZM102.167 32.9L101.724 33.7966C102.813 34.3348 103.159 34.959 103.159 35.66H104.159H105.159C105.159 33.993 104.176 32.7772 102.609 32.0034L102.167 32.9ZM104.159 35.66H103.159C103.159 36.5871 102.781 37.3123 101.913 37.9073L102.479 38.732L103.044 39.5567C104.416 38.6157 105.159 37.2929 105.159 35.66H104.159ZM102.479 38.732L101.918 37.9041C101.111 38.4506 100.144 38.74 98.9746 38.74V39.74V40.74C100.493 40.74 101.862 40.3574 103.039 39.5599L102.479 38.732ZM98.9746 39.74V38.74C98.3289 38.74 97.6534 38.6683 96.9465 38.521L96.7426 39.5L96.5386 40.479C97.3678 40.6517 98.1802 40.74 98.9746 40.74V39.74ZM96.7426 39.5L96.9268 38.5171C96.1733 38.3758 95.4278 38.2189 94.6904 38.0463L94.4626 39.02L94.2347 39.9937C95.0013 40.1731 95.7758 40.3362 96.5583 40.4829L96.7426 39.5ZM94.4626 39.02V38.02C94.1596 38.02 93.8499 38.0986 93.5719 38.2839L94.1266 39.116L94.6813 39.948C94.6424 39.974 94.5998 39.9934 94.5573 40.0055C94.5156 40.0174 94.4824 40.02 94.4626 40.02V39.02ZM94.1266 39.116L93.6121 38.2585C93.4024 38.3843 93.2335 38.5533 93.1033 38.7052L93.8626 39.356L94.6218 40.0068C94.6489 39.9751 94.6662 39.9584 94.6732 39.9519C94.6765 39.949 94.6758 39.9499 94.6711 39.9534C94.6665 39.9569 94.6565 39.9642 94.6411 39.9735L94.1266 39.116ZM93.8626 39.356L94.8617 39.3152L94.6697 34.6112L93.6706 34.652L92.6714 34.6928L92.8634 39.3968L93.8626 39.356ZM93.6706 34.652L93.9131 35.6221L94.1051 35.5741L93.8626 34.604L93.62 33.6339L93.428 33.6819L93.6706 34.652ZM93.8626 34.604L92.8697 34.7231C93.0422 36.1611 93.6705 37.3663 94.757 38.2751L95.3986 37.508L96.0401 36.7409C95.3667 36.1777 94.9709 35.4469 94.8554 34.4849L93.8626 34.604ZM95.3986 37.508L94.7722 38.2875C95.859 39.1608 97.1483 39.588 98.5906 39.588V38.588V37.588C97.5688 37.588 96.7302 37.2952 96.0249 36.7285L95.3986 37.508ZM98.5906 38.588V39.588C99.5291 39.588 100.399 39.3756 101.166 38.9195L100.655 38.06L100.143 37.2005C99.7265 37.4484 99.22 37.588 98.5906 37.588V38.588ZM100.655 38.06L101.163 38.9209C102.122 38.3542 102.711 37.4835 102.711 36.356H101.711H100.711C100.711 36.6685 100.595 36.9338 100.146 37.1991L100.655 38.06ZM101.711 36.356H102.711C102.711 35.6477 102.373 35.0665 101.878 34.6326C101.408 34.2191 100.773 33.9145 100.055 33.6782L99.7426 34.628L99.4298 35.5778C100.024 35.7735 100.374 35.9729 100.559 36.1354C100.721 36.2775 100.711 36.3443 100.711 36.356H101.711ZM99.7426 34.628L100.057 33.6787C98.8492 33.2788 97.9427 32.9773 97.3367 32.7739C97.0332 32.6721 96.8072 32.5956 96.657 32.5439C96.5812 32.5178 96.5285 32.4994 96.4962 32.4877C96.4789 32.4815 96.4739 32.4795 96.4762 32.4804C96.4774 32.4809 96.4803 32.482 96.4845 32.4837C96.4883 32.4853 96.496 32.4885 96.5062 32.493C96.514 32.4965 96.5357 32.5063 96.5631 32.5207C96.5767 32.5279 96.6018 32.5416 96.6322 32.5609C96.6521 32.5736 96.7244 32.6196 96.8017 32.6969L96.0946 33.404L95.3875 34.1111C95.465 34.1886 95.5377 34.235 95.5581 34.248C95.589 34.2677 95.6149 34.2817 95.6292 34.2893C95.6584 34.3047 95.6823 34.3155 95.693 34.3203C95.7164 34.3307 95.7368 34.3388 95.747 34.3428C95.7701 34.3518 95.7952 34.361 95.8175 34.369C95.8641 34.3859 95.9279 34.4082 96.0061 34.4351C96.1639 34.4894 96.3959 34.5679 96.7005 34.6701C97.3104 34.8747 98.2199 35.1772 99.4282 35.5773L99.7426 34.628ZM96.0946 33.404L96.5374 32.5074C95.9801 32.2321 95.6283 31.9305 95.4162 31.6314C95.2115 31.3429 95.1026 31.0098 95.1026 30.596H94.1026H93.1026C93.1026 31.3982 93.3256 32.1411 93.7849 32.7886C94.2368 33.4255 94.881 33.9199 95.6517 34.3006L96.0946 33.404ZM94.1026 30.596H95.1026C95.1026 29.9178 95.3827 29.4082 96.1107 28.9922L95.6146 28.124L95.1184 27.2558C93.8304 27.9918 93.1026 29.1302 93.1026 30.596H94.1026ZM95.6146 28.124L96.1089 28.9933C96.7416 28.6335 97.554 28.428 98.5906 28.428V27.428V26.428C97.2911 26.428 96.1195 26.6865 95.1203 27.2547L95.6146 28.124ZM98.5906 27.428V28.428C99.1283 28.428 99.696 28.4846 100.295 28.6015L100.487 27.62L100.678 26.6385C99.9651 26.4994 99.2688 26.428 98.5906 26.428V27.428ZM100.487 27.62L100.318 28.6057C100.966 28.7164 101.615 28.835 102.263 28.9615L102.455 27.98L102.646 26.9985C101.982 26.869 101.319 26.7476 100.655 26.6343L100.487 27.62ZM102.455 27.98V28.98C102.884 28.98 103.28 28.8429 103.619 28.5967L103.031 27.788L102.442 26.9793C102.436 26.9837 102.433 26.9853 102.433 26.9854C102.433 26.9855 102.435 26.9845 102.438 26.9833C102.442 26.9821 102.446 26.9811 102.45 26.9806C102.453 26.98 102.455 26.98 102.455 26.98V27.98ZM103.031 27.788L102.032 27.8331L102.2 31.5531L103.199 31.508L104.198 31.4629L104.03 27.7429L103.031 27.788ZM115.343 30.5L114.408 30.144L114.407 30.1481L115.343 30.5ZM115.727 29.468L116.666 29.8098L116.671 29.7965L115.727 29.468ZM115.079 27.884H114.079V28.7762L114.965 28.8775L115.079 27.884ZM115.079 27.668V26.668H114.079V27.668H115.079ZM118.751 27.668H119.751V26.668H118.751V27.668ZM118.751 27.884L118.864 28.8775L119.751 28.7762V27.884H118.751ZM117.407 28.988L116.512 28.5408L116.506 28.5529L116.5 28.5651L117.407 28.988ZM116.951 30.044L116.027 29.6616L116.021 29.6743L116.016 29.6871L116.951 30.044ZM112.871 40.724L113.805 41.0814L113.805 41.0809L112.871 40.724ZM111.407 43.46L110.667 42.7873L110.663 42.7919L111.407 43.46ZM106.247 43.772L105.338 43.3547L105.015 44.0567L105.613 44.546L106.247 43.772ZM107.735 40.532L108.265 39.684L107.3 39.0814L106.826 40.1147L107.735 40.532ZM107.927 40.652L108.875 40.9682L109.124 40.2213L108.457 39.804L107.927 40.652ZM108.191 42.452L107.391 43.052L107.395 43.058L108.191 42.452ZM110.927 41.948L111.768 42.4888L111.769 42.4864L110.927 41.948ZM111.143 38.108L110.184 38.3921L110.188 38.4051L111.143 38.108ZM110.471 36.308L109.542 36.68L109.547 36.6926L110.471 36.308ZM107.903 29.9L106.973 30.2677L106.974 30.272L107.903 29.9ZM107.303 28.58L106.466 29.128L106.471 29.1347L107.303 28.58ZM106.247 27.884H105.247V28.884H106.247V27.884ZM106.247 27.668V26.668H105.247V27.668H106.247ZM111.071 27.668H112.071V26.668H111.071V27.668ZM111.071 27.884L111.181 28.8779L112.071 28.779V27.884H111.071ZM110.447 28.124L109.739 27.4169V27.4169L110.447 28.124ZM110.327 29.084L109.356 29.3265L109.372 29.3887L109.395 29.4484L110.327 29.084ZM110.615 29.876L109.657 30.1633L109.666 30.1948L109.678 30.2256L110.615 29.876ZM113.087 36.5L112.15 36.8496L113.083 39.3507L114.023 36.8519L113.087 36.5ZM115.343 30.5L116.277 30.856C116.407 30.5151 116.537 30.1663 116.666 29.8097L115.727 29.468L114.787 29.1263C114.66 29.4737 114.534 29.8129 114.408 30.144L115.343 30.5ZM115.727 29.468L116.671 29.7965C116.806 29.4085 116.919 28.9962 116.919 28.628H115.919H114.919C114.919 28.6219 114.918 28.66 114.896 28.7592C114.874 28.8534 114.838 28.9788 114.782 29.1395L115.727 29.468ZM115.919 28.628H116.919C116.919 28.1747 116.76 27.7134 116.372 27.3694C116.018 27.0563 115.579 26.9347 115.192 26.8905L115.079 27.884L114.965 28.8775C115.044 28.8866 115.085 28.8991 115.098 28.9039C115.11 28.9082 115.084 28.9009 115.046 28.8666C115.003 28.8293 114.965 28.7777 114.941 28.7192C114.919 28.6643 114.919 28.6281 114.919 28.628H115.919ZM115.079 27.884H116.079V27.668H115.079H114.079V27.884H115.079ZM115.079 27.668V28.668H118.751V27.668V26.668H115.079V27.668ZM118.751 27.668H117.751V27.884H118.751H119.751V27.668H118.751ZM118.751 27.884L118.637 26.8905C117.633 27.0052 116.943 27.6785 116.512 28.5408L117.407 28.988L118.301 29.4352C118.542 28.9535 118.748 28.8908 118.864 28.8775L118.751 27.884ZM117.407 28.988L116.5 28.5651C116.379 28.8255 116.22 29.1938 116.027 29.6616L116.951 30.044L117.875 30.4264C118.065 29.9662 118.21 29.6305 118.313 29.4109L117.407 28.988ZM116.951 30.044L116.016 29.6871L111.936 40.3671L112.871 40.724L113.805 41.0809L117.885 30.4009L116.951 30.044ZM112.871 40.724L111.937 40.3666C111.451 41.635 111.017 42.4023 110.667 42.7873L111.407 43.46L112.146 44.1327C112.756 43.4617 113.298 42.405 113.805 41.0814L112.871 40.724ZM111.407 43.46L110.663 42.7919C110.17 43.3404 109.517 43.636 108.599 43.636V44.636V45.636C110.016 45.636 111.235 45.1476 112.151 44.1281L111.407 43.46ZM108.599 44.636V43.636C107.978 43.636 107.415 43.4362 106.88 42.998L106.247 43.772L105.613 44.546C106.486 45.2598 107.491 45.636 108.599 45.636V44.636ZM106.247 43.772L107.155 44.1894L108.643 40.9494L107.735 40.532L106.826 40.1147L105.338 43.3547L106.247 43.772ZM107.735 40.532L107.205 41.38L107.397 41.5L107.927 40.652L108.457 39.804L108.265 39.684L107.735 40.532ZM107.927 40.652L106.978 40.3358C106.874 40.6467 106.831 40.9719 106.831 41.3H107.831H108.831C108.831 41.1481 108.851 41.0413 108.875 40.9682L107.927 40.652ZM107.831 41.3H106.831C106.831 41.9371 107.005 42.5383 107.391 43.052L108.191 42.452L108.991 41.852C108.896 41.7257 108.831 41.5589 108.831 41.3H107.831ZM108.191 42.452L107.395 43.058C107.845 43.6488 108.487 43.956 109.223 43.956V42.956V41.956C109.094 41.956 109.048 41.9272 108.986 41.846L108.191 42.452ZM109.223 42.956V43.956C110.318 43.956 111.181 43.4016 111.768 42.4888L110.927 41.948L110.085 41.4072C109.808 41.8384 109.536 41.956 109.223 41.956V42.956ZM110.927 41.948L111.769 42.4864C112.25 41.7337 112.479 40.879 112.479 39.956H111.479H110.479C110.479 40.537 110.339 41.0103 110.084 41.4096L110.927 41.948ZM111.479 39.956H112.479C112.479 39.3078 112.339 38.5861 112.097 37.8109L111.143 38.108L110.188 38.4051C110.395 39.0699 110.479 39.5802 110.479 39.956H111.479ZM111.143 38.108L112.101 37.8239C111.958 37.3405 111.718 36.7017 111.394 35.9234L110.471 36.308L109.547 36.6926C109.863 37.4503 110.071 38.0115 110.184 38.3921L111.143 38.108ZM110.471 36.308L111.399 35.936L108.831 29.528L107.903 29.9L106.974 30.272L109.542 36.68L110.471 36.308ZM107.903 29.9L108.833 29.5323C108.569 28.8662 108.332 28.3218 108.135 28.0253L107.303 28.58L106.471 29.1347C106.529 29.2222 106.692 29.5578 106.973 30.2677L107.903 29.9ZM107.303 28.58L108.139 28.032C107.729 27.4055 107.105 26.884 106.247 26.884V27.884V28.884C106.248 28.884 106.246 28.884 106.243 28.8831C106.24 28.8822 106.246 28.8833 106.26 28.893C106.292 28.9142 106.366 28.9759 106.466 29.128L107.303 28.58ZM106.247 27.884H107.247V27.668H106.247H105.247V27.884H106.247ZM106.247 27.668V28.668H111.071V27.668V26.668H106.247V27.668ZM111.071 27.668H110.071V27.884H111.071H112.071V27.668H111.071ZM111.071 27.884L110.96 26.8901C110.573 26.9331 110.099 27.0569 109.739 27.4169L110.447 28.124L111.154 28.8311C111.099 28.8861 111.055 28.9024 111.058 28.9013C111.059 28.9009 111.069 28.8972 111.09 28.8924C111.111 28.8877 111.141 28.8823 111.181 28.8779L111.071 27.884ZM110.447 28.124L109.739 27.4169C109.374 27.7826 109.279 28.2499 109.279 28.628H110.279H111.279C111.279 28.5963 111.283 28.6094 111.269 28.6502C111.254 28.6959 111.22 28.7649 111.154 28.8311L110.447 28.124ZM110.279 28.628H109.279C109.279 28.8604 109.299 29.0979 109.356 29.3265L110.327 29.084L111.297 28.8415C111.29 28.8141 111.279 28.7476 111.279 28.628H110.279ZM110.327 29.084L109.395 29.4484C109.539 29.8158 109.622 30.0462 109.657 30.1633L110.615 29.876L111.572 29.5887C111.512 29.3858 111.402 29.0882 111.258 28.7196L110.327 29.084ZM110.615 29.876L109.678 30.2256L112.15 36.8496L113.087 36.5L114.023 36.1504L111.551 29.5264L110.615 29.876ZM113.087 36.5L114.023 36.8519L116.279 30.8519L115.343 30.5L114.407 30.1481L112.151 36.1481L113.087 36.5ZM131.207 39.668L130.822 40.5911L131.797 40.9972L132.149 40.0018L131.207 39.668ZM130.703 39.548V38.548H130.675L130.647 38.5495L130.703 39.548ZM130.271 39.572L130.215 38.5735L130.191 38.5749L130.168 38.5773L130.271 39.572ZM129.575 39.644L129.635 40.6422L129.656 40.6409L129.677 40.6387L129.575 39.644ZM127.991 39.74V40.74H128.021L128.051 40.7382L127.991 39.74ZM122.951 38.012L123.597 37.249L123.596 37.248L122.951 38.012ZM122.351 29.06L121.628 28.369L122.351 29.06ZM126.407 27.428L126.477 26.4305L126.442 26.428H126.407V27.428ZM128.111 27.548L128.204 26.5524L128.192 26.5513L128.181 26.5505L128.111 27.548ZM129.647 27.692L129.553 28.6876L129.6 28.692H129.647V27.692ZM130.655 27.428L131.637 27.2429L131.364 25.7913L130.118 26.5843L130.655 27.428ZM131.351 31.124L131.798 32.0184L132.473 31.6808L132.333 30.9389L131.351 31.124ZM131.207 31.196L130.316 31.6502L130.766 32.5342L131.654 32.0904L131.207 31.196ZM129.575 29.276L128.997 30.0925L129.006 30.0989L129.575 29.276ZM124.367 30.068L125.173 30.6587L125.176 30.6554L124.367 30.068ZM123.671 35.228L122.722 35.5442L122.726 35.556L122.73 35.5676L123.671 35.228ZM124.631 36.86L123.866 37.5049L124.631 36.86ZM126.191 38.108L125.725 38.993L125.734 38.9978L126.191 38.108ZM130.511 37.94L131.001 38.8116L131.008 38.8077L131.014 38.8038L130.511 37.94ZM132.263 36.116L132.759 35.2478L131.856 34.7319L131.376 35.6541L132.263 36.116ZM132.431 36.212L133.373 36.5458L133.652 35.7583L132.927 35.3438L132.431 36.212ZM131.207 39.668L131.591 38.7449C131.327 38.6349 131.024 38.548 130.703 38.548V39.548V40.548C130.683 40.548 130.682 40.5454 130.705 40.5508C130.727 40.5562 130.766 40.5677 130.822 40.5911L131.207 39.668ZM130.703 39.548L130.647 38.5495L130.215 38.5735L130.271 39.572L130.326 40.5705L130.758 40.5465L130.703 39.548ZM130.271 39.572L130.168 38.5773L129.472 38.6493L129.575 39.644L129.677 40.6387L130.373 40.5667L130.271 39.572ZM129.575 39.644L129.514 38.6458L127.93 38.7418L127.991 39.74L128.051 40.7382L129.635 40.6422L129.575 39.644ZM127.991 39.74V38.74C126.196 38.74 124.754 38.2292 123.597 37.249L122.951 38.012L122.304 38.775C123.867 40.0988 125.785 40.74 127.991 40.74V39.74ZM122.951 38.012L123.596 37.248C122.396 36.2348 121.791 34.9141 121.791 33.188H120.791H119.791C119.791 35.4619 120.625 37.3572 122.305 38.776L122.951 38.012ZM120.791 33.188H121.791C121.791 31.7518 122.231 30.6326 123.073 29.751L122.351 29.06L121.628 28.369C120.39 29.6634 119.791 31.2962 119.791 33.188H120.791ZM122.351 29.06L123.073 29.751C123.904 28.8823 124.984 28.428 126.407 28.428V27.428V26.428C124.501 26.428 122.877 27.0617 121.628 28.369L122.351 29.06ZM126.407 27.428L126.336 28.4255L128.04 28.5455L128.111 27.548L128.181 26.5505L126.477 26.4305L126.407 27.428ZM128.111 27.548L128.017 28.5436L129.553 28.6876L129.647 27.692L129.74 26.6964L128.204 26.5524L128.111 27.548ZM129.647 27.692V28.692C129.9 28.692 130.154 28.673 130.391 28.6202L130.175 27.644L129.958 26.6678C129.907 26.679 129.809 26.692 129.647 26.692V27.692ZM130.175 27.644L130.391 28.6202C130.685 28.5549 130.955 28.4223 131.191 28.2717L130.655 27.428L130.118 26.5843C130.063 26.6192 130.021 26.641 129.992 26.6541C129.963 26.6672 129.952 26.6691 129.958 26.6678L130.175 27.644ZM130.655 27.428L129.672 27.6131L130.368 31.3091L131.351 31.124L132.333 30.9389L131.637 27.2429L130.655 27.428ZM131.351 31.124L130.903 30.2296L130.759 30.3016L131.207 31.196L131.654 32.0904L131.798 32.0184L131.351 31.124ZM131.207 31.196L132.097 30.7418C131.615 29.7963 130.967 29.0223 130.143 28.4531L129.575 29.276L129.006 30.0989C129.526 30.4577 129.966 30.9637 130.316 31.6502L131.207 31.196ZM129.575 29.276L130.152 28.4596C129.311 27.8647 128.337 27.58 127.271 27.58V28.58V29.58C127.964 29.58 128.526 29.7593 128.997 30.0924L129.575 29.276ZM127.271 28.58V27.58C125.731 27.58 124.464 28.2319 123.557 29.4806L124.367 30.068L125.176 30.6554C125.71 29.9201 126.378 29.58 127.271 29.58V28.58ZM124.367 30.068L123.56 29.4773C122.758 30.5721 122.383 31.8843 122.383 33.356H123.383H124.383C124.383 32.2357 124.663 31.3559 125.173 30.6587L124.367 30.068ZM123.383 33.356H122.383C122.383 34.1241 122.492 34.856 122.722 35.5442L123.671 35.228L124.619 34.9118C124.465 34.448 124.383 33.9319 124.383 33.356H123.383ZM123.671 35.228L122.73 35.5676C122.982 36.265 123.365 36.9109 123.866 37.5049L124.631 36.86L125.395 36.2151C125.032 35.7851 124.775 35.343 124.611 34.8884L123.671 35.228ZM124.631 36.86L123.866 37.5049C124.384 38.1179 125.006 38.6145 125.725 38.9929L126.191 38.108L126.656 37.2231C126.159 36.9615 125.742 36.6261 125.395 36.2151L124.631 36.86ZM126.191 38.108L125.734 38.9978C126.486 39.3832 127.273 39.588 128.087 39.588V38.588V37.588C127.62 37.588 127.143 37.4728 126.647 37.2182L126.191 38.108ZM128.087 38.588V39.588C129.113 39.588 130.089 39.3243 131.001 38.8116L130.511 37.94L130.02 37.0684C129.396 37.4197 128.756 37.588 128.087 37.588V38.588ZM130.511 37.94L131.014 38.8038C131.941 38.2634 132.66 37.518 133.149 36.5779L132.263 36.116L131.376 35.6541C131.065 36.25 130.616 36.7206 130.007 37.0762L130.511 37.94ZM132.263 36.116L131.766 36.9842L131.934 37.0802L132.431 36.212L132.927 35.3438L132.759 35.2478L132.263 36.116ZM132.431 36.212L131.488 35.8782L130.264 39.3342L131.207 39.668L132.149 40.0018L133.373 36.5458L132.431 36.212ZM138.888 23.084H139.888V21.9107L138.729 22.0966L138.888 23.084ZM138.888 30.14H137.888V32.5221L139.588 30.8538L138.888 30.14ZM141.216 28.268L141.724 29.1289L141.726 29.1281L141.216 28.268ZM146.184 28.364L145.361 28.9332L146.184 28.364ZM147.024 38.42L147.967 38.0885L147.963 38.0783L147.024 38.42ZM148.32 39.308H149.32V38.308H148.32V39.308ZM148.32 39.5V40.5H149.32V39.5H148.32ZM142.992 39.5H141.992V40.5H142.992V39.5ZM142.992 39.308L142.861 38.3165L141.992 38.431V39.308H142.992ZM144.192 38.324L143.243 38.0078L144.192 38.324ZM144.192 30.236L145.136 29.9075L145.134 29.901L144.192 30.236ZM141.048 29.636L141.535 30.5089L141.545 30.5035L141.555 30.4979L141.048 29.636ZM139.032 32.18L140.012 32.3761L140.013 32.37L139.032 32.18ZM139.224 38.684L140.067 38.1471L139.224 38.684ZM140.304 39.308H141.304V38.4287L140.431 38.3162L140.304 39.308ZM140.304 39.5V40.5H141.304V39.5H140.304ZM135 39.5H134V40.5H135V39.5ZM135 39.284L134.872 38.2921L134 38.404V39.284H135ZM136.248 38.3L135.308 37.9583L135.307 37.9604L136.248 38.3ZM136.104 24.428L135.271 24.9827V24.9827L136.104 24.428ZM135 23.924H134V24.924H135V23.924ZM135 23.708L134.841 22.7206L134 22.8557V23.708H135ZM138.888 23.084H137.888V30.14H138.888H139.888V23.084H138.888ZM138.888 30.14L139.588 30.8538C140.402 30.0553 141.113 29.4899 141.724 29.1289L141.216 28.268L140.707 27.4071C139.91 27.8781 139.069 28.5607 138.187 29.4262L138.888 30.14ZM141.216 28.268L141.726 29.1281C142.541 28.6446 143.311 28.428 144.048 28.428V27.428V26.428C142.897 26.428 141.778 26.7714 140.705 27.4079L141.216 28.268ZM144.048 27.428V28.428C144.823 28.428 145.172 28.6594 145.361 28.9332L146.184 28.364L147.006 27.7948C146.331 26.8206 145.256 26.428 144.048 26.428V27.428ZM146.184 28.364L145.361 28.9332C145.623 29.3118 145.832 30.0133 145.832 31.196H146.832H147.832C147.832 29.8507 147.608 28.6642 147.006 27.7948L146.184 28.364ZM146.832 31.196H145.832V36.548H146.832H147.832V31.196H146.832ZM146.832 36.548H145.832C145.832 37.4429 145.889 38.2273 146.084 38.7617L147.024 38.42L147.963 38.0783C147.902 37.9087 147.832 37.4451 147.832 36.548H146.832ZM147.024 38.42L146.08 38.7515C146.24 39.2072 146.514 39.6205 146.938 39.9109C147.358 40.1988 147.841 40.308 148.32 40.308V39.308V38.308C148.142 38.308 148.081 38.2692 148.069 38.2611C148.061 38.2555 148.015 38.2248 147.967 38.0885L147.024 38.42ZM148.32 39.308H147.32V39.5H148.32H149.32V39.308H148.32ZM148.32 39.5V38.5H142.992V39.5V40.5H148.32V39.5ZM142.992 39.5H143.992V39.308H142.992H141.992V39.5H142.992ZM142.992 39.308L143.122 40.2995C143.576 40.2397 144.012 40.0779 144.382 39.7753C144.751 39.4722 144.995 39.0756 145.14 38.6402L144.192 38.324L143.243 38.0078C143.196 38.1484 143.144 38.2038 143.113 38.2287C143.083 38.2541 143.015 38.2963 142.861 38.3165L142.992 39.308ZM144.192 38.324L145.14 38.6402C145.322 38.0961 145.384 37.3613 145.384 36.524H144.384H143.384C143.384 37.3187 143.317 37.7839 143.243 38.0078L144.192 38.324ZM144.384 36.524H145.384V32.252H144.384H143.384V36.524H144.384ZM144.384 32.252H145.384C145.384 31.283 145.326 30.4537 145.136 29.9075L144.192 30.236L143.247 30.5645C143.313 30.7543 143.384 31.269 143.384 32.252H144.384ZM144.192 30.236L145.134 29.901C144.949 29.3814 144.638 28.9212 144.167 28.5998C143.699 28.281 143.158 28.156 142.608 28.156V29.156V30.156C142.857 30.156 142.98 30.211 143.04 30.2522C143.097 30.2908 143.178 30.3706 143.249 30.571L144.192 30.236ZM142.608 29.156V28.156C141.891 28.156 141.197 28.3879 140.54 28.7741L141.048 29.636L141.555 30.4979C141.986 30.2441 142.332 30.156 142.608 30.156V29.156ZM141.048 29.636L140.56 28.7631C139.911 29.1255 139.358 29.5849 138.917 30.1462L139.704 30.764L140.49 31.3818C140.753 31.0471 141.096 30.7545 141.535 30.5089L141.048 29.636ZM139.704 30.764L138.917 30.1462C138.48 30.7031 138.18 31.3189 138.05 31.99L139.032 32.18L140.013 32.37C140.075 32.0491 140.223 31.7209 140.49 31.3818L139.704 30.764ZM139.032 32.18L138.051 31.9839C137.937 32.5531 137.888 33.2412 137.888 34.028H138.888H139.888C139.888 33.3108 139.934 32.7669 140.012 32.3761L139.032 32.18ZM138.888 34.028H137.888V36.524H138.888H139.888V34.028H138.888ZM138.888 36.524H137.888C137.888 37.097 137.917 37.6046 137.983 38.0337C138.047 38.4433 138.158 38.8721 138.38 39.2209L139.224 38.684L140.067 38.1471C140.071 38.1537 140.055 38.129 140.031 38.0519C140.007 37.977 139.982 37.8707 139.96 37.7263C139.914 37.4354 139.888 37.039 139.888 36.524H138.888ZM139.224 38.684L138.38 39.2209C138.795 39.8733 139.45 40.2061 140.176 40.2998L140.304 39.308L140.431 38.3162C140.165 38.2819 140.1 38.1987 140.067 38.1471L139.224 38.684ZM140.304 39.308H139.304V39.5H140.304H141.304V39.308H140.304ZM140.304 39.5V38.5H135V39.5V40.5H140.304V39.5ZM135 39.5H136V39.284H135H134V39.5H135ZM135 39.284L135.127 40.2759C135.584 40.2172 136.024 40.0589 136.399 39.7633C136.775 39.4665 137.031 39.0753 137.188 38.6396L136.248 38.3L135.307 37.9604C135.256 38.1007 135.2 38.1615 135.16 38.1927C135.119 38.2251 135.039 38.2708 134.872 38.2921L135 39.284ZM136.248 38.3L137.187 38.6417C137.38 38.1115 137.44 37.3652 137.44 36.524H136.44H135.44C135.44 37.3468 135.371 37.7845 135.308 37.9583L136.248 38.3ZM136.44 36.524H137.44V26.66H136.44H135.44V36.524H136.44ZM136.44 26.66H137.44C137.44 26.0574 137.411 25.529 137.344 25.0891C137.282 24.6762 137.172 24.2282 136.936 23.8733L136.104 24.428L135.271 24.9827C135.259 24.9638 135.317 25.0558 135.367 25.3869C135.412 25.691 135.44 26.1106 135.44 26.66H136.44ZM136.104 24.428L136.936 23.8733C136.476 23.1844 135.745 22.924 135 22.924V23.924V24.924C135.149 24.924 135.22 24.9488 135.244 24.9597C135.259 24.9666 135.263 24.9698 135.271 24.9827L136.104 24.428ZM135 23.924H136V23.708H135H134V23.924H135ZM135 23.708L135.158 24.6954L139.046 24.0714L138.888 23.084L138.729 22.0966L134.841 22.7206L135 23.708ZM158.138 24.836L159.078 24.4943L159.077 24.4903L158.138 24.836ZM156.77 23.924H155.77V24.924H156.77V23.924ZM156.77 23.708V22.708H155.77V23.708H156.77ZM162.53 23.708H163.53V22.708H162.53V23.708ZM162.53 23.924L162.715 24.9069L163.53 24.7539V23.924H162.53ZM161.354 24.596L160.563 23.9846L160.554 23.9961L160.546 24.0078L161.354 24.596ZM160.754 36.62L159.799 36.3236L159.799 36.3243L160.754 36.62ZM159.506 38.396L158.872 37.6229L158.871 37.6241L159.506 38.396ZM157.61 39.452L157.927 40.4007L157.936 40.3975L157.945 40.3942L157.61 39.452ZM152.45 39.14L152.009 40.0375L152.022 40.0434L152.45 39.14ZM149.978 37.244L149.124 36.7242L148.742 37.3525L149.228 37.9046L149.978 37.244ZM152.402 33.26L152.808 32.3462L152.005 31.9891L151.548 32.7402L152.402 33.26ZM152.618 33.356L153.585 33.6119L153.803 32.7882L153.024 32.4422L152.618 33.356ZM152.378 34.316L153.359 34.5121L153.362 34.4963L153.365 34.4804L152.378 34.316ZM153.17 37.628L152.436 38.307L152.445 38.3166L152.454 38.3259L153.17 37.628ZM157.586 37.652L156.811 37.0199L157.586 37.652ZM158.33 26.852H159.33C159.33 25.8751 159.274 25.034 159.078 24.4943L158.138 24.836L157.199 25.1777C157.258 25.342 157.33 25.8449 157.33 26.852H158.33ZM158.138 24.836L159.077 24.4903C158.905 24.0249 158.618 23.6096 158.183 23.3199C157.753 23.0335 157.261 22.924 156.77 22.924V23.924V24.924C156.967 24.924 157.047 24.9665 157.074 24.984C157.095 24.9984 157.147 25.0391 157.2 25.1817L158.138 24.836ZM156.77 23.924H157.77V23.708H156.77H155.77V23.924H156.77ZM156.77 23.708V24.708H162.53V23.708V22.708H156.77V23.708ZM162.53 23.708H161.53V23.924H162.53H163.53V23.708H162.53ZM162.53 23.924L162.346 22.9411C161.637 23.0741 161.01 23.406 160.563 23.9846L161.354 24.596L162.146 25.2074C162.243 25.082 162.4 24.9659 162.715 24.9069L162.53 23.924ZM161.354 24.596L160.546 24.0078C160.291 24.3575 160.159 24.7874 160.083 25.2011C160.004 25.6294 159.97 26.1288 159.97 26.684H160.97H161.97C161.97 26.1992 162.001 25.8305 162.05 25.5629C162.074 25.4304 162.101 25.3347 162.125 25.2685C162.15 25.2014 162.166 25.1796 162.163 25.1842L161.354 24.596ZM160.97 26.684H159.97V34.484H160.97H161.97V26.684H160.97ZM160.97 34.484H159.97C159.97 35.4214 159.897 36.0091 159.799 36.3236L160.754 36.62L161.709 36.9164C161.9 36.3029 161.97 35.4666 161.97 34.484H160.97ZM160.754 36.62L159.799 36.3243C159.657 36.7827 159.368 37.2164 158.872 37.6229L159.506 38.396L160.141 39.1691C160.893 38.5516 161.435 37.8013 161.71 36.9157L160.754 36.62ZM159.506 38.396L158.871 37.6241C158.423 37.9923 157.895 38.2894 157.275 38.5098L157.61 39.452L157.945 40.3942C158.765 40.1026 159.501 39.6957 160.142 39.1679L159.506 38.396ZM157.61 39.452L157.294 38.5033C156.675 38.7096 156.046 38.812 155.402 38.812V39.812V40.812C156.263 40.812 157.106 40.6744 157.927 40.4007L157.61 39.452ZM155.402 39.812V38.812C154.53 38.812 153.692 38.6223 152.879 38.2366L152.45 39.14L152.022 40.0434C153.097 40.5537 154.227 40.812 155.402 40.812V39.812ZM152.45 39.14L152.891 38.2426C152.067 37.8372 151.348 37.2862 150.729 36.5834L149.978 37.244L149.228 37.9046C150.017 38.8018 150.946 39.5148 152.009 40.0374L152.45 39.14ZM149.978 37.244L150.833 37.7638L153.257 33.7798L152.402 33.26L151.548 32.7402L149.124 36.7242L149.978 37.244ZM152.402 33.26L151.996 34.1738L152.212 34.2698L152.618 33.356L153.024 32.4422L152.808 32.3462L152.402 33.26ZM152.618 33.356L151.652 33.1001C151.515 33.6167 151.418 33.9967 151.392 34.1516L152.378 34.316L153.365 34.4804C153.363 34.489 153.365 34.4766 153.377 34.4269C153.387 34.383 153.401 34.3234 153.42 34.2465C153.459 34.093 153.514 33.8821 153.585 33.6119L152.618 33.356ZM152.378 34.316L151.398 34.1199C151.32 34.5093 151.282 34.9113 151.282 35.324H152.282H153.282C153.282 35.0327 153.309 34.7627 153.359 34.5121L152.378 34.316ZM152.282 35.324H151.282C151.282 36.464 151.668 37.4766 152.436 38.307L153.17 37.628L153.904 36.949C153.489 36.4994 153.282 35.976 153.282 35.324H152.282ZM153.17 37.628L152.454 38.3259C153.256 39.1491 154.269 39.564 155.426 39.564V38.564V37.564C154.791 37.564 154.3 37.3549 153.887 36.9301L153.17 37.628ZM155.426 38.564V39.564C156.603 39.564 157.636 39.1726 158.361 38.2841L157.586 37.652L156.811 37.0199C156.544 37.3474 156.137 37.564 155.426 37.564V38.564ZM157.586 37.652L158.361 38.2841C159.05 37.4396 159.33 36.3382 159.33 35.108H158.33H157.33C157.33 36.0538 157.114 36.6484 156.811 37.0199L157.586 37.652ZM158.33 35.108H159.33V26.852H158.33H157.33V35.108H158.33ZM174.663 39.5L173.863 40.1L174.163 40.5H174.663V39.5ZM174.063 38.468L173.127 38.8191L173.136 38.8432L173.146 38.8667L174.063 38.468ZM173.847 37.34H174.847L172.971 36.8574L173.847 37.34ZM171.807 39.164L172.226 40.072L172.229 40.0706L171.807 39.164ZM166.311 38.996L165.726 39.8072L165.735 39.8135L166.311 38.996ZM168.423 33.116L168.828 34.0304L168.831 34.029L168.423 33.116ZM173.655 31.628L173.888 32.6004L174.655 32.4166V31.628H173.655ZM168.159 29.612L168.685 30.4627L168.696 30.4557L168.159 29.612ZM166.119 32.036L165.124 31.9389L167.032 32.4447L166.119 32.036ZM166.503 28.1L167.134 27.3239L165.689 26.1498L165.508 28.0029L166.503 28.1ZM168.039 28.22L167.707 27.2766L167.697 27.2802L168.039 28.22ZM170.151 27.596L169.955 26.6154L169.949 26.6165L170.151 27.596ZM176.463 38.036L177.407 37.7066L177.404 37.6973L176.463 38.036ZM177.951 39.284H178.951V38.4573L178.139 38.3018L177.951 39.284ZM177.951 39.5V40.5H178.951V39.5H177.951ZM173.655 32.612H174.655V31.373L173.444 31.6345L173.655 32.612ZM170.127 33.836L169.65 32.957L169.648 32.9581L170.127 33.836ZM168.567 37.916L167.911 38.6706L168.567 37.916ZM172.959 36.692L172.078 36.2189L172.077 36.2201L172.959 36.692ZM174.663 39.5L175.463 38.9C175.27 38.6425 175.109 38.3661 174.98 38.0693L174.063 38.468L173.146 38.8667C173.337 39.3059 173.576 39.7175 173.863 40.1L174.663 39.5ZM174.063 38.468L174.999 38.1169C174.893 37.8324 174.847 37.5751 174.847 37.34H173.847H172.847C172.847 37.8409 172.945 38.3356 173.127 38.8191L174.063 38.468ZM173.847 37.34L172.971 36.8574C172.656 37.4295 172.149 37.9016 171.385 38.2574L171.807 39.164L172.229 40.0706C173.321 39.5624 174.174 38.8185 174.723 37.8226L173.847 37.34ZM171.807 39.164L171.388 38.256C170.698 38.5745 169.93 38.74 169.071 38.74V39.74V40.74C170.196 40.74 171.252 40.5215 172.226 40.072L171.807 39.164ZM169.071 39.74V38.74C168.076 38.74 167.376 38.5231 166.887 38.1785L166.311 38.996L165.735 39.8135C166.654 40.4609 167.794 40.74 169.071 40.74V39.74ZM166.311 38.996L166.896 38.1848C166.48 37.885 166.279 37.5049 166.279 36.932H165.279H164.279C164.279 38.1191 164.766 39.115 165.726 39.8072L166.311 38.996ZM165.279 36.932H166.279C166.279 35.8744 166.917 34.8765 168.828 34.0304L168.423 33.116L168.018 32.2016C165.737 33.2115 164.279 34.7576 164.279 36.932H165.279ZM168.423 33.116L168.831 34.029C169.482 33.7383 171.128 33.2622 173.888 32.6004L173.655 31.628L173.422 30.6556C170.71 31.3058 168.868 31.8217 168.015 32.203L168.423 33.116ZM173.655 31.628H174.655V31.172H173.655H172.655V31.628H173.655ZM173.655 31.172H174.655C174.655 30.2045 174.477 29.2353 173.834 28.5929L173.127 29.3L172.42 30.0071C172.482 30.0687 172.655 30.3475 172.655 31.172H173.655ZM173.127 29.3L173.834 28.5929C173.189 27.9481 172.208 27.772 171.231 27.772V28.772V29.772C172.078 29.772 172.361 29.9479 172.42 30.0071L173.127 29.3ZM171.231 28.772V27.772C169.896 27.772 168.681 28.0943 167.622 28.7683L168.159 29.612L168.696 30.4557C169.397 30.0097 170.23 29.772 171.231 29.772V28.772ZM168.159 29.612L167.633 28.7614C166.561 29.4245 165.757 30.3982 165.206 31.6273L166.119 32.036L167.032 32.4447C167.441 31.5298 167.998 30.8875 168.685 30.4626L168.159 29.612ZM166.119 32.036L167.114 32.1331L167.498 28.1971L166.503 28.1L165.508 28.0029L165.124 31.9389L166.119 32.036ZM166.503 28.1L165.872 28.8761C166.241 29.1751 166.705 29.412 167.247 29.412V28.412V27.412C167.275 27.412 167.284 27.4186 167.268 27.4118C167.249 27.4039 167.204 27.3809 167.134 27.3239L166.503 28.1ZM167.247 28.412V29.412C167.61 29.412 168.014 29.293 168.381 29.1598L168.039 28.22L167.697 27.2802C167.544 27.3359 167.427 27.3714 167.341 27.3921C167.25 27.4144 167.225 27.412 167.247 27.412V28.412ZM168.039 28.22L168.371 29.1633C169.216 28.866 169.872 28.6744 170.353 28.5755L170.151 27.596L169.949 26.6165C169.342 26.7416 168.59 26.966 167.707 27.2767L168.039 28.22ZM170.151 27.596L170.347 28.5766C170.823 28.4815 171.433 28.428 172.191 28.428V27.428V26.428C171.349 26.428 170.599 26.4865 169.955 26.6154L170.151 27.596ZM172.191 27.428V28.428C173.643 28.428 174.352 28.7227 174.652 29.0231L175.359 28.316L176.066 27.6089C175.183 26.7253 173.78 26.428 172.191 26.428V27.428ZM175.359 28.316L174.652 29.0231C174.954 29.325 175.247 30.0281 175.247 31.46H176.247H177.247C177.247 29.8839 176.948 28.491 176.066 27.6089L175.359 28.316ZM176.247 31.46H175.247V35.972H176.247H177.247V31.46H176.247ZM176.247 35.972H175.247C175.247 36.9526 175.314 37.796 175.522 38.3747L176.463 38.036L177.404 37.6973C177.324 37.476 177.247 36.9434 177.247 35.972H176.247ZM176.463 38.036L175.519 38.3654C175.884 39.4108 176.682 40.0592 177.763 40.2662L177.951 39.284L178.139 38.3018C177.716 38.2208 177.523 38.0372 177.407 37.7066L176.463 38.036ZM177.951 39.284H176.951V39.5H177.951H178.951V39.284H177.951ZM177.951 39.5V38.5H174.663V39.5V40.5H177.951V39.5ZM173.655 32.612L173.444 31.6345C171.973 31.9522 170.701 32.3873 169.65 32.957L170.127 33.836L170.604 34.715C171.441 34.2607 172.521 33.8798 173.866 33.5895L173.655 32.612ZM170.127 33.836L169.648 32.9581C168.087 33.8094 167.015 35.0075 167.015 36.62H168.015H169.015C169.015 36.0565 169.351 35.3986 170.606 34.7139L170.127 33.836ZM168.015 36.62H167.015C167.015 37.416 167.298 38.1374 167.911 38.6706L168.567 37.916L169.223 37.1614C169.1 37.0546 169.015 36.912 169.015 36.62H168.015ZM168.567 37.916L167.911 38.6706C168.488 39.1721 169.196 39.396 169.959 39.396V38.396V37.396C169.602 37.396 169.382 37.2999 169.223 37.1614L168.567 37.916ZM169.959 38.396V39.396C170.792 39.396 171.568 39.2253 172.247 38.8395C172.93 38.4513 173.459 37.8777 173.841 37.1639L172.959 36.692L172.077 36.2201C171.851 36.6423 171.576 36.9207 171.259 37.1005C170.938 37.2827 170.518 37.396 169.959 37.396V38.396ZM172.959 36.692L173.84 37.1651C174.411 36.1021 174.655 34.7592 174.655 33.212H173.655H172.655C172.655 34.5768 172.435 35.5539 172.078 36.2189L172.959 36.692ZM173.655 33.212H174.655V32.612H173.655H172.655V33.212H173.655ZM183.557 38.276L182.735 37.7055L181.724 39.1611L183.493 39.274L183.557 38.276ZM185.813 38.42L185.749 39.418L185.781 39.42H185.813V38.42ZM188.765 37.844L189.197 38.7455L189.2 38.7443L188.765 37.844ZM190.757 35.66L190.999 34.6899L190.131 34.4727L189.819 35.3122L190.757 35.66ZM190.949 35.708L191.89 36.0443L192.262 35.0054L191.191 34.7379L190.949 35.708ZM189.509 39.74L188.994 40.5975L190.04 41.2251L190.45 40.0763L189.509 39.74ZM188.861 39.548L188.978 38.5548L188.861 39.548ZM179.909 39.5L179.085 38.933L178.006 40.5H179.909V39.5ZM187.277 28.796L188.1 29.363L189.135 27.8595L187.311 27.7966L187.277 28.796ZM185.885 28.748L185.919 27.7486L185.902 27.748H185.885V28.748ZM183.125 29.156L183.474 30.093L183.478 30.0915L183.125 29.156ZM181.181 31.004L180.938 31.9741L181.785 32.1859L182.109 31.3754L181.181 31.004ZM180.989 30.956L180.012 30.7438L179.806 31.6911L180.746 31.9261L180.989 30.956ZM181.781 27.308L182.555 26.6748L181.243 25.0716L180.804 27.0958L181.781 27.308ZM182.261 27.62L182.44 26.6361V26.6361L182.261 27.62ZM190.925 27.668L191.746 28.2385L192.837 26.668H190.925V27.668ZM183.557 38.276L183.493 39.274L185.749 39.418L185.813 38.42L185.876 37.422L183.62 37.278L183.557 38.276ZM185.813 38.42V39.42C187.085 39.42 188.227 39.2115 189.197 38.7455L188.765 37.844L188.332 36.9425C187.703 37.2445 186.876 37.42 185.813 37.42V38.42ZM188.765 37.844L189.2 38.7443C190.39 38.1689 191.236 37.244 191.694 36.0078L190.757 35.66L189.819 35.3122C189.542 36.06 189.059 36.5911 188.33 36.9437L188.765 37.844ZM190.757 35.66L190.514 36.6301L190.706 36.6781L190.949 35.708L191.191 34.7379L190.999 34.6899L190.757 35.66ZM190.949 35.708L190.007 35.3717L188.567 39.4037L189.509 39.74L190.45 40.0763L191.89 36.0443L190.949 35.708ZM189.509 39.74L190.023 38.8825C189.699 38.6878 189.33 38.5963 188.978 38.5548L188.861 39.548L188.744 40.5412C188.835 40.5519 188.9 40.566 188.943 40.5788C188.986 40.5916 189 40.6007 188.994 40.5975L189.509 39.74ZM188.861 39.548L188.978 38.5548C188.667 38.5183 188.356 38.5 188.045 38.5V39.5V40.5C188.277 40.5 188.51 40.5137 188.744 40.5412L188.861 39.548ZM188.045 39.5V38.5H187.589V39.5V40.5H188.045V39.5ZM187.589 39.5V38.5H179.909V39.5V40.5H187.589V39.5ZM179.909 39.5L180.732 40.067L188.1 29.363L187.277 28.796L186.453 28.229L179.085 38.933L179.909 39.5ZM187.277 28.796L187.311 27.7966L185.919 27.7486L185.885 28.748L185.85 29.7474L187.242 29.7954L187.277 28.796ZM185.885 28.748V27.748C184.694 27.748 183.643 27.8912 182.771 28.2205L183.125 29.156L183.478 30.0915C184.046 29.8768 184.835 29.748 185.885 29.748V28.748ZM183.125 29.156L182.775 28.219C181.586 28.6625 180.716 29.4729 180.252 30.6326L181.181 31.004L182.109 31.3754C182.349 30.7751 182.775 30.3535 183.474 30.093L183.125 29.156ZM181.181 31.004L181.423 30.0339L181.231 29.9859L180.989 30.956L180.746 31.9261L180.938 31.9741L181.181 31.004ZM180.989 30.956L181.966 31.1682L182.758 27.5202L181.781 27.308L180.804 27.0958L180.012 30.7438L180.989 30.956ZM181.781 27.308L181.007 27.9412C181.259 28.2499 181.614 28.5189 182.082 28.6039L182.261 27.62L182.44 26.6361C182.491 26.6454 182.53 26.6642 182.554 26.6796C182.575 26.6933 182.574 26.6978 182.555 26.6748L181.781 27.308ZM182.261 27.62L182.082 28.6039C182.354 28.6533 182.72 28.668 183.125 28.668V27.668V26.668C182.73 26.668 182.52 26.6507 182.44 26.6361L182.261 27.62ZM183.125 27.668V28.668H190.925V27.668V26.668H183.125V27.668ZM190.925 27.668L190.103 27.0975L182.735 37.7055L183.557 38.276L184.378 38.8465L191.746 28.2385L190.925 27.668ZM196.997 38.276L196.175 37.7055L195.164 39.1611L196.933 39.274L196.997 38.276ZM199.253 38.42L199.189 39.418L199.221 39.42H199.253V38.42ZM202.205 37.844L202.637 38.7455L202.64 38.7443L202.205 37.844ZM204.197 35.66L204.439 34.6899L203.571 34.4727L203.259 35.3122L204.197 35.66ZM204.389 35.708L205.33 36.0443L205.702 35.0054L204.631 34.7379L204.389 35.708ZM202.949 39.74L202.434 40.5975L203.48 41.2251L203.89 40.0763L202.949 39.74ZM202.301 39.548L202.418 38.5548L202.301 39.548ZM193.349 39.5L192.525 38.933L191.446 40.5H193.349V39.5ZM200.717 28.796L201.54 29.363L202.575 27.8595L200.751 27.7966L200.717 28.796ZM199.325 28.748L199.359 27.7486L199.342 27.748H199.325V28.748ZM196.565 29.156L196.914 30.093L196.918 30.0915L196.565 29.156ZM194.621 31.004L194.378 31.9741L195.225 32.1859L195.549 31.3754L194.621 31.004ZM194.429 30.956L193.452 30.7438L193.246 31.6911L194.186 31.9261L194.429 30.956ZM195.221 27.308L195.995 26.6748L194.683 25.0716L194.244 27.0958L195.221 27.308ZM195.701 27.62L195.88 26.6361V26.6361L195.701 27.62ZM204.365 27.668L205.186 28.2385L206.277 26.668H204.365V27.668ZM196.997 38.276L196.933 39.274L199.189 39.418L199.253 38.42L199.316 37.422L197.06 37.278L196.997 38.276ZM199.253 38.42V39.42C200.525 39.42 201.667 39.2115 202.637 38.7455L202.205 37.844L201.772 36.9425C201.143 37.2445 200.316 37.42 199.253 37.42V38.42ZM202.205 37.844L202.64 38.7443C203.83 38.1689 204.676 37.244 205.134 36.0078L204.197 35.66L203.259 35.3122C202.982 36.06 202.499 36.5911 201.77 36.9437L202.205 37.844ZM204.197 35.66L203.954 36.6301L204.146 36.6781L204.389 35.708L204.631 34.7379L204.439 34.6899L204.197 35.66ZM204.389 35.708L203.447 35.3717L202.007 39.4037L202.949 39.74L203.89 40.0763L205.33 36.0443L204.389 35.708ZM202.949 39.74L203.463 38.8825C203.139 38.6878 202.77 38.5963 202.418 38.5548L202.301 39.548L202.184 40.5412C202.275 40.5519 202.34 40.566 202.383 40.5788C202.426 40.5916 202.44 40.6007 202.434 40.5975L202.949 39.74ZM202.301 39.548L202.418 38.5548C202.107 38.5183 201.796 38.5 201.485 38.5V39.5V40.5C201.717 40.5 201.95 40.5137 202.184 40.5412L202.301 39.548ZM201.485 39.5V38.5H201.029V39.5V40.5H201.485V39.5ZM201.029 39.5V38.5H193.349V39.5V40.5H201.029V39.5ZM193.349 39.5L194.172 40.067L201.54 29.363L200.717 28.796L199.893 28.229L192.525 38.933L193.349 39.5ZM200.717 28.796L200.751 27.7966L199.359 27.7486L199.325 28.748L199.29 29.7474L200.682 29.7954L200.717 28.796ZM199.325 28.748V27.748C198.134 27.748 197.083 27.8912 196.211 28.2205L196.565 29.156L196.918 30.0915C197.486 29.8768 198.275 29.748 199.325 29.748V28.748ZM196.565 29.156L196.215 28.219C195.026 28.6625 194.156 29.4729 193.692 30.6326L194.621 31.004L195.549 31.3754C195.789 30.7751 196.215 30.3535 196.914 30.093L196.565 29.156ZM194.621 31.004L194.863 30.0339L194.671 29.9859L194.429 30.956L194.186 31.9261L194.378 31.9741L194.621 31.004ZM194.429 30.956L195.406 31.1682L196.198 27.5202L195.221 27.308L194.244 27.0958L193.452 30.7438L194.429 30.956ZM195.221 27.308L194.447 27.9412C194.699 28.2499 195.054 28.5189 195.522 28.6039L195.701 27.62L195.88 26.6361C195.931 26.6454 195.97 26.6642 195.994 26.6796C196.015 26.6933 196.014 26.6978 195.995 26.6748L195.221 27.308ZM195.701 27.62L195.522 28.6039C195.794 28.6533 196.16 28.668 196.565 28.668V27.668V26.668C196.17 26.668 195.96 26.6507 195.88 26.6361L195.701 27.62ZM196.565 27.668V28.668H204.365V27.668V26.668H196.565V27.668ZM204.365 27.668L203.543 27.0975L196.175 37.7055L196.997 38.276L197.818 38.8465L205.186 28.2385L204.365 27.668Z" fill="#00626D" mask="url(#path-1-outside-1_17342_1247)"/>
</g>
<defs>
<filter id="filter0_dddd_17342_1247" x="0.887695" y="0.910645" width="234.39" height="73.8452" filterUnits="userSpaceOnUse" color-interpolation-filters="sRGB">
<feFlood flood-opacity="0" result="BackgroundImageFix"/>
<feColorMatrix in="SourceAlpha" type="matrix" values="0 0 0 0 0 0 0 0 0 0 0 0 0 0 0 0 0 0 127 0" result="hardAlpha"/>
<feOffset/>
<feGaussianBlur stdDeviation="5"/>
<feComposite in2="hardAlpha" operator="out"/>
<feColorMatrix type="matrix" values="0 0 0 0 0.346004 0 0 0 0 0.171023 0 0 0 0 0.426401 0 0 0 1 0"/>
<feBlend mode="normal" in2="BackgroundImageFix" result="effect1_dropShadow_17342_1247"/>
<feColorMatrix in="SourceAlpha" type="matrix" values="0 0 0 0 0 0 0 0 0 0 0 0 0 0 0 0 0 0 127 0" result="hardAlpha"/>
<feOffset dx="4" dy="4"/>
<feGaussianBlur stdDeviation="12.5"/>
<feComposite in2="hardAlpha" operator="out"/>
<feColorMatrix type="matrix" values="0 0 0 0 0.244739 0 0 0 0 0.133473 0 0 0 0 0.295861 0 0 0 0.48 0"/>
<feBlend mode="normal" in2="effect1_dropShadow_17342_1247" result="effect2_dropShadow_17342_1247"/>
<feColorMatrix in="SourceAlpha" type="matrix" values="0 0 0 0 0 0 0 0 0 0 0 0 0 0 0 0 0 0 127 0" result="hardAlpha"/>
<feOffset dx="1" dy="1"/>
<feComposite in2="hardAlpha" operator="out"/>
<feColorMatrix type="matrix" values="0 0 0 0 0 0 0 0 0 0.196078 0 0 0 0 0.227451 0 0 0 1 0"/>
<feBlend mode="normal" in2="effect2_dropShadow_17342_1247" result="effect3_dropShadow_17342_1247"/>
<feColorMatrix in="SourceAlpha" type="matrix" values="0 0 0 0 0 0 0 0 0 0 0 0 0 0 0 0 0 0 127 0" result="hardAlpha"/>
<feOffset dx="2" dy="2"/>
<feComposite in2="hardAlpha" operator="out"/>
<feColorMatrix type="matrix" values="0 0 0 0 0 0 0 0 0 0.196078 0 0 0 0 0.227451 0 0 0 1 0"/>
<feBlend mode="normal" in2="effect3_dropShadow_17342_1247" result="effect4_dropShadow_17342_1247"/>
<feBlend mode="normal" in="SourceGraphic" in2="effect4_dropShadow_17342_1247" result="shape"/>
</filter>
</defs>
</svg>
