<svg width="40" height="42" viewBox="0 0 40 42" fill="none" xmlns="http://www.w3.org/2000/svg">
<path d="M19.9997 6.7002C17.2404 6.70007 14.543 7.53864 12.2487 9.10987C9.95431 10.6811 8.16605 12.9144 7.11001 15.5274C6.05398 18.1404 5.77761 21.0157 6.31585 23.7896C6.85409 26.5636 8.18277 29.1117 10.1339 31.1116C12.085 33.1116 14.5708 34.4736 17.2771 35.0254C19.9834 35.5773 22.7886 35.2941 25.3379 34.2118C27.8872 33.1295 30.0661 31.2966 31.5991 28.945C33.1321 26.5933 33.9504 23.8285 33.9504 21.0002C33.9462 17.209 32.4751 13.5743 29.8598 10.8935C27.2444 8.21265 23.6985 6.7046 19.9997 6.7002ZM28.3247 20.9362C28.4066 20.9418 28.4867 20.9639 28.5603 21.0012C28.6339 21.0385 28.6995 21.0904 28.7536 21.1537C28.8076 21.2171 28.8489 21.2907 28.8752 21.3705C28.9015 21.4502 28.9121 21.5345 28.9066 21.6184C28.7515 23.931 27.7468 26.0973 26.0951 27.6807C24.4434 29.2641 22.2675 30.1468 20.006 30.1509C19.8043 30.1509 19.6014 30.1437 19.3972 30.1291C19.3141 30.1252 19.2327 30.1042 19.1576 30.0676C19.0825 30.0309 19.0153 29.9792 18.9599 29.9156C18.9046 29.852 18.8622 29.7777 18.8352 29.697C18.8082 29.6164 18.7972 29.531 18.8028 29.446C18.8084 29.3609 18.8305 29.2778 18.8679 29.2016C18.9052 29.1255 18.957 29.0577 19.0202 29.0023C19.0834 28.9469 19.1568 28.905 19.236 28.879C19.3153 28.853 19.3988 28.8435 19.4816 28.8511C21.5127 28.9906 23.5147 28.298 25.048 26.9256C26.5813 25.5531 27.5204 23.613 27.6591 21.5313C27.6705 21.362 27.747 21.2042 27.8718 21.0926C27.9966 20.981 28.1595 20.9247 28.3247 20.9362ZM9.21098 19.7055C9.21098 19.8754 9.14513 20.0384 9.02792 20.1585C8.91071 20.2787 8.75174 20.3461 8.58598 20.3461C8.42022 20.3461 8.26125 20.2787 8.14404 20.1585C8.02683 20.0384 7.96098 19.8754 7.96098 19.7055C7.96098 13.4754 13.3616 8.40746 19.9997 8.40746C20.1655 8.40746 20.3245 8.47495 20.4417 8.59509C20.5589 8.71524 20.6247 8.87818 20.6247 9.04809C20.6247 9.21799 20.5589 9.38094 20.4417 9.50108C20.3245 9.62122 20.1655 9.68871 19.9997 9.68871C14.0504 9.68871 9.21098 14.1821 9.21098 19.7055ZM11.6979 21.6409C11.5321 21.6409 11.3731 21.5734 11.2559 21.4532C11.1387 21.3331 11.0729 21.1701 11.0729 21.0002C11.0757 18.5744 12.0171 16.2487 13.6906 14.5333C15.3641 12.818 17.633 11.8531 19.9997 11.8502C20.1655 11.8502 20.3245 11.9177 20.4417 12.0378C20.5589 12.158 20.6247 12.3209 20.6247 12.4908C20.6247 12.6607 20.5589 12.8237 20.4417 12.9438C20.3245 13.0639 20.1655 13.1314 19.9997 13.1314C17.9646 13.1343 16.0136 13.9643 14.5745 15.4393C13.1354 16.9144 12.3257 18.9142 12.3229 21.0002C12.3229 21.1701 12.257 21.3331 12.1398 21.4532C12.0226 21.5734 11.8636 21.6409 11.6979 21.6409ZM14.3472 21.0002C14.3472 19.8543 14.6787 18.7341 15.2998 17.7814C15.921 16.8286 16.8038 16.086 17.8366 15.6474C18.8695 15.2089 20.006 15.0942 21.1025 15.3177C22.199 15.5413 23.2061 16.0931 23.9967 16.9034C24.7872 17.7137 25.3255 18.746 25.5436 19.8699C25.7617 20.9938 25.6498 22.1587 25.222 23.2174C24.7941 24.2761 24.0696 25.181 23.1401 25.8176C22.2105 26.4542 21.1177 26.794 19.9997 26.794C18.5011 26.7923 17.0643 26.1814 16.0046 25.0952C14.9449 24.009 14.3489 22.5363 14.3472 21.0002ZM31.3472 22.4423C31.4291 22.4479 31.5092 22.47 31.5828 22.5073C31.6563 22.5447 31.722 22.5965 31.7761 22.6598C31.8301 22.7232 31.8714 22.7968 31.8977 22.8766C31.924 22.9563 31.9346 23.0406 31.9291 23.1245C31.5372 29.058 26.3041 33.5956 20.0691 33.5956C19.7729 33.5956 19.4745 33.5851 19.1741 33.5642C19.0083 33.5527 18.8538 33.4742 18.7445 33.3459C18.6352 33.2177 18.5801 33.0502 18.5913 32.8803C18.6025 32.7104 18.6791 32.552 18.8042 32.44C18.9293 32.3279 19.0927 32.2714 19.2585 32.2829C25.196 32.6955 30.321 28.5461 30.6816 23.0355C30.6935 22.8671 30.7697 22.7103 30.8938 22.5992C31.0179 22.4881 31.1797 22.4317 31.3441 22.4423H31.3472Z" fill="white"/>
<path d="M20 3.0625C16.5388 3.0625 13.1554 4.11452 10.2775 6.08551C7.39967 8.05651 5.15665 10.858 3.83212 14.1356C2.50758 17.4133 2.16102 21.0199 2.83627 24.4994C3.51151 27.979 5.17822 31.1751 7.62564 33.6837C10.0731 36.1923 13.1913 37.9007 16.5859 38.5928C19.9806 39.285 23.4993 38.9297 26.697 37.5721C29.8947 36.2144 32.6278 33.9153 34.5507 30.9655C36.4737 28.0157 37.5 24.5477 37.5 21C37.4947 16.2443 35.6493 11.685 32.3685 8.32226C29.0878 4.95951 24.6397 3.06793 20 3.0625ZM20 36.5813C16.9935 36.5814 14.0544 35.6677 11.5545 33.9557C9.05456 32.2437 7.10608 29.8102 5.95544 26.9631C4.8048 24.116 4.50367 20.9832 5.09014 17.9606C5.67662 14.9381 7.12435 12.1617 9.25025 9.9826C11.3762 7.80345 14.0848 6.31941 17.0335 5.71816C19.9823 5.1169 23.0388 5.42542 25.8165 6.60471C28.5942 7.784 30.9684 9.78109 32.6387 12.3434C34.3091 14.9058 35.2006 17.9183 35.2006 21C35.1962 25.1309 33.5933 29.0913 30.7436 32.0123C27.8939 34.9334 24.0302 36.5765 20 36.5813Z" fill="white"/>
<path d="M20.0002 25.5124C22.4316 25.5124 24.4027 23.4921 24.4027 20.9999C24.4027 18.5076 22.4316 16.4873 20.0002 16.4873C17.5687 16.4873 15.5977 18.5076 15.5977 20.9999C15.5977 23.4921 17.5687 25.5124 20.0002 25.5124Z" fill="white"/>
</svg>
