<svg display="none" xmlns="http://www.w3.org/2000/svg">

    <symbol id="calendar" viewBox="0 0 512 512">
        <path d="M405.3,42.7H384V21.3C384,9.6,374.4,0,362.7,0c-11.8,0-21.3,9.6-21.3,21.3v21.3H170.7V21.3
	c0-11.8-9.6-21.3-21.3-21.3S128,9.6,128,21.3v21.3h-21.3C47.8,42.7,0.1,90.5,0,149.3v256C0.1,464.2,47.8,511.9,106.7,512h298.7
	c58.9-0.1,106.6-47.8,106.7-106.7v-256C511.9,90.5,464.2,42.7,405.3,42.7z M42.7,149.3c0-35.3,28.7-64,64-64h298.7
	c35.3,0,64,28.7,64,64v21.3H42.7V149.3z M405.3,469.3H106.7c-35.3,0-64-28.7-64-64v-192h426.7v192
	C469.3,440.7,440.7,469.3,405.3,469.3z" />
        <circle cx="256" cy="320" r="32" />
        <circle cx="149.3" cy="320" r="32" />
        <circle cx="362.7" cy="320" r="32" />
    </symbol>

    <symbol id="search" viewBox="0 0 513.749 513.749">
        <g>
            <path
                d="M504.352,459.061l-99.435-99.477c74.402-99.427,54.115-240.344-45.312-314.746S119.261-9.277,44.859,90.15   S-9.256,330.494,90.171,404.896c79.868,59.766,189.565,59.766,269.434,0l99.477,99.477c12.501,12.501,32.769,12.501,45.269,0   c12.501-12.501,12.501-32.769,0-45.269L504.352,459.061z M225.717,385.696c-88.366,0-160-71.634-160-160s71.634-160,160-160   s160,71.634,160,160C385.623,314.022,314.044,385.602,225.717,385.696z" />
        </g>
    </symbol>

    <symbol id="arrow-right" viewBox="0 0 512.1 291.2">
        <path d="M407.3,282.2l83.6-83.6c28.2-29.6,28.2-76,0-105.6L407.3,9.4c-12.5-12.5-32.8-12.5-45.3,0s-12.5,32.8,0,45.3
	l0,0l59.3,59.3L32,114.4c-17.7,0-32,14.3-32,32l0,0c0,17.7,14.3,32,32,32l388.9-0.5l-58.9,59c-12.3,12.7-11.9,33,0.8,45.2
	C375.2,294.2,394.9,294.2,407.3,282.2L407.3,282.2z" />
    </symbol>

    <symbol id="close" viewBox="0 0 512.021 512.021">
        <g>
            <path
                d="M301.258,256.01L502.645,54.645c12.501-12.501,12.501-32.769,0-45.269c-12.501-12.501-32.769-12.501-45.269,0l0,0   L256.01,210.762L54.645,9.376c-12.501-12.501-32.769-12.501-45.269,0s-12.501,32.769,0,45.269L210.762,256.01L9.376,457.376   c-12.501,12.501-12.501,32.769,0,45.269s32.769,12.501,45.269,0L256.01,301.258l201.365,201.387   c12.501,12.501,32.769,12.501,45.269,0c12.501-12.501,12.501-32.769,0-45.269L301.258,256.01z" />
        </g>
    </symbol>

    <symbol id="arrow-top" viewBox="0 0 512 270">
        <path d="M45.2,269.8L248.3,66.9c4.2-4.2,10.9-4.2,15.1,0L466.8,270l45.2-45.1L308.7,21.8c-29.2-29.1-76.4-29.1-105.6,0L0,224.6
	L45.2,269.8z" />
    </symbol>

    <symbol id="arrow-btn" viewBox="0 0 46 46">
        <g>
            <path
                d="M28.2547 18.6884L17.3436 29.5995C17.2097 29.7334 17.0526 29.8006 16.8722 29.8013C16.6918 29.8019 16.5347 29.7346 16.4008 29.5995C16.2669 29.4644 16.1997 29.3072 16.199 29.1281C16.1984 28.949 16.2657 28.7918 16.4008 28.6567L27.3119 17.7456L20.2701 17.7465C20.0859 17.7459 19.9297 17.6852 19.8015 17.5646C19.6733 17.4439 19.607 17.282 19.6026 17.079C19.6026 16.8703 19.662 16.7053 19.7808 16.584C19.8996 16.4627 20.0627 16.4014 20.2701 16.4002L28.5347 16.4002C28.6982 16.4002 28.8396 16.4266 28.959 16.4794C29.0784 16.5322 29.1887 16.6092 29.2899 16.7104C29.3911 16.8116 29.4681 16.9219 29.5209 17.0413C29.5737 17.1607 29.6004 17.3025 29.6011 17.4665L29.6001 25.7302C29.6001 25.9138 29.5391 26.0709 29.4172 26.2016C29.2953 26.3324 29.13 26.3977 28.9213 26.3977C28.717 26.3946 28.5549 26.3342 28.4348 26.2167C28.3148 26.0992 28.2544 25.937 28.2538 25.7302L28.2547 18.6884Z" />
        </g>
    </symbol>

    <symbol id="prev" viewBox="0 0 32 32">
        <path
            d="M9.23664 15.3334L24.6673 15.3334C24.8566 15.3334 25.0153 15.397 25.1433 15.5241C25.2713 15.6512 25.3349 15.8099 25.334 16.0001C25.3331 16.1903 25.2695 16.349 25.1433 16.4761C25.0171 16.6032 24.8584 16.6668 24.6673 16.6668H9.23664L14.2166 21.6454C14.3464 21.7761 14.414 21.9294 14.4193 22.1054C14.4246 22.2814 14.3571 22.4428 14.2166 22.5894C14.0691 22.737 13.9104 22.8117 13.7406 22.8134C13.5709 22.8152 13.4122 22.7432 13.2646 22.5974L7.42064 16.7534C7.30509 16.6379 7.22375 16.5192 7.17664 16.3974C7.12953 16.2757 7.10598 16.1432 7.10598 16.0001C7.10598 15.857 7.12953 15.7246 7.17664 15.6028C7.22375 15.481 7.30509 15.3619 7.42064 15.2454L13.2646 9.40278C13.3944 9.273 13.5486 9.205 13.7273 9.19878C13.906 9.19255 14.0691 9.26322 14.2166 9.41078C14.3589 9.55744 14.4309 9.71478 14.4326 9.88278C14.4344 10.0508 14.3624 10.2081 14.2166 10.3548L9.23664 15.3334Z" />
    </symbol>

    <symbol id="next" viewBox="0 0 32 32">
        <path
            d="M22.7634 16.6666H7.33269C7.14336 16.6666 6.98469 16.603 6.85669 16.4759C6.72869 16.3488 6.66514 16.1901 6.66602 15.9999C6.66691 15.8097 6.73047 15.651 6.85669 15.5239C6.98291 15.3968 7.14158 15.3332 7.33269 15.3332H22.7634L17.7834 10.3546C17.6536 10.2239 17.586 10.0706 17.5807 9.89456C17.5754 9.71856 17.6429 9.55722 17.7834 9.41056C17.9309 9.263 18.0896 9.18833 18.2594 9.18656C18.4291 9.18478 18.5878 9.25678 18.7354 9.40256L24.5794 15.2466C24.6949 15.3621 24.7762 15.4808 24.8234 15.6026C24.8705 15.7243 24.894 15.8568 24.894 15.9999C24.894 16.143 24.8705 16.2754 24.8234 16.3972C24.7762 16.519 24.6949 16.6381 24.5794 16.7546L18.7354 22.5972C18.6056 22.727 18.4514 22.795 18.2727 22.8012C18.094 22.8074 17.9309 22.7368 17.7834 22.5892C17.6411 22.4426 17.5691 22.2852 17.5674 22.1172C17.5656 21.9492 17.6376 21.7919 17.7834 21.6452L22.7634 16.6666Z" />
    </symbol>

    <symbol id="search" viewBox="0 0 32 32">
        <path
            d="M25.9808 26.8721L17.6315 18.5227C16.9648 19.0907 16.1981 19.5303 15.3315 19.8414C14.4648 20.1525 13.5937 20.3081 12.7181 20.3081C10.583 20.3081 8.7759 19.5689 7.29679 18.0907C5.81768 16.6125 5.07813 14.8058 5.07812 12.6707C5.07812 10.5356 5.81679 8.72806 7.29412 7.24806C8.77146 5.76806 10.5777 5.02717 12.7128 5.02539C14.8479 5.02362 16.6559 5.76317 18.1368 7.24406C19.6177 8.72495 20.3581 10.5325 20.3581 12.6667C20.3581 13.5929 20.1941 14.4894 19.8661 15.3561C19.5381 16.2227 19.107 16.9641 18.5728 17.5801L26.9221 25.9281L25.9808 26.8721ZM12.7195 18.9734C14.4883 18.9734 15.9817 18.3645 17.1995 17.1467C18.4172 15.9289 19.0261 14.4352 19.0261 12.6654C19.0261 10.8956 18.4172 9.40228 17.1995 8.18539C15.9817 6.9685 14.4883 6.35962 12.7195 6.35873C10.9506 6.35784 9.45679 6.96673 8.23812 8.18539C7.01946 9.40406 6.41057 10.8974 6.41146 12.6654C6.41235 14.4334 7.02124 15.9267 8.23812 17.1454C9.45501 18.3641 10.9483 18.973 12.7181 18.9721" />
    </symbol>

</svg>