<svg width="48" height="48" viewBox="0 0 48 48" fill="none" xmlns="http://www.w3.org/2000/svg">
<path fill-rule="evenodd" clip-rule="evenodd" d="M24 4C12.954 4 4 12.954 4 24C4 27.78 5.05 31.32 6.876 34.336L5.092 40.4C4.98957 40.7482 4.98283 41.1175 5.07249 41.4692C5.16215 41.8208 5.34489 42.1418 5.60152 42.3985C5.85814 42.6551 6.17916 42.8378 6.53083 42.9275C6.8825 43.0172 7.25183 43.0104 7.6 42.908L13.664 41.124C16.7815 43.0099 20.3565 44.0046 24 44C35.046 44 44 35.046 44 24C44 12.954 35.046 4 24 4ZM19.476 28.526C23.522 32.57 27.384 33.104 28.748 33.154C30.822 33.23 32.842 31.646 33.628 29.808C33.7264 29.5792 33.7619 29.3282 33.731 29.0811C33.7001 28.8339 33.6038 28.5995 33.452 28.402C32.356 27.002 30.874 25.996 29.426 24.996C29.1238 24.7865 28.7522 24.7023 28.3892 24.7612C28.0263 24.8202 27.7003 25.0176 27.48 25.312L26.28 27.142C26.2166 27.24 26.1183 27.3102 26.005 27.3385C25.8917 27.3667 25.772 27.3508 25.67 27.294C24.856 26.828 23.67 26.036 22.818 25.184C21.966 24.332 21.222 23.2 20.804 22.438C20.7534 22.3409 20.7391 22.229 20.7637 22.1223C20.7883 22.0156 20.8501 21.9212 20.938 21.856L22.786 20.484C23.0505 20.2552 23.2212 19.9368 23.2655 19.5899C23.3098 19.243 23.2245 18.8919 23.026 18.604C22.13 17.292 21.086 15.624 19.572 14.518C19.3762 14.3773 19.1474 14.2896 18.9077 14.2633C18.668 14.237 18.4256 14.2731 18.204 14.368C16.364 15.156 14.772 17.176 14.848 19.254C14.898 20.618 15.432 24.48 19.476 28.526Z" fill="white"/>
</svg>
